999
dxflib 3.26.4.0
  0
SECTION
  2
HEADER
  9
$ACADVER
  1
AC1015
  9
$HANDSEED
  5
FFFF
  9
$DIMADEC
 70
0
  9
$DIMASZ
 40
2.5
  9
$DIMATFIT
 70
0
  9
$DIMAUNIT
 70
0
  9
$DIMAZIN
 70
2
  9
$DIMBLK
  1
0
  9
$DIMBLK1
  1
0
  9
$DIMBLK2
  1
0
  9
$DIMDEC
 70
4
  9
$DIMDLI
 40
5.0
  9
$DIMDSEP
 70
46
  9
$DIMEXE
 40
1.25
  9
$DIMEXO
 40
0.625
  9
$DIMGAP
 40
0.625
  9
$DIMLFAC
 40
1.0
  9
$DIMLUNIT
 70
2
  9
$DIMSCALE
 40
1.0
  9
$DIMTAD
 70
1
  9
$DIMTIH
 70
0
  9
$DIMTSZ
 40
0.0
  9
$DIMTXT
 40
2.5
  9
$DIMZIN
 70
8
  9
$DWGCODEPAGE
  3
ANSI_1252
  9
$INSUNITS
 70
4
  9
$LTSCALE
 40
1.0
  9
$MAXACTVP
 70
64
  9
$MEASUREMENT
 70
1
  9
$MIRRTEXT
 70
0
  9
$PDMODE
 70
0
  9
$PDSIZE
 40
0.0
  0
ENDSEC
  0
SECTION
  2
TABLES
  0
TABLE
  2
VPORT
  5
8
100
AcDbSymbolTable
 70
1
  0
VPORT
  5
30
100
AcDbSymbolTableRecord
100
AcDbViewportTableRecord
  2
*Active
 70
0
 10
0.0
 20
0.0
 11
1.0
 21
1.0
 12
286.3055555555554861
 22
148.5
 13
0.0
 23
0.0
 14
10.0
 24
10.0
 15
10.0
 25
10.0
 16
0.0
 26
0.0
 36
1.0
 17
0.0
 27
0.0
 37
0.0
 40
297.0
 41
1.92798353909465
 42
50.0
 43
0.0
 44
0.0
 50
0.0
 51
0.0
 71
0
 72
100
 73
1
 74
3
 75
1
 76
1
 77
0
 78
0
281
0
 65
1
110
0.0
120
0.0
130
0.0
111
1.0
121
0.0
131
0.0
112
0.0
122
1.0
132
0.0
 79
0
146
0.0
  0
ENDTAB
  0
TABLE
  2
LTYPE
  5
5
100
AcDbSymbolTable
 70
41
  0
LTYPE
  5
16
100
AcDbSymbolTableRecord
100
AcDbLinetypeTableRecord
  2
Continuous
 70
0
  3
Solid line
 72
65
 73
0
 40
0.0
  0
LTYPE
  5
31
100
AcDbSymbolTableRecord
100
AcDbLinetypeTableRecord
  2
ACAD_ISO06W100
 70
0
  3
ISO long-dash triple-dot ____ ... ____ ... ____
 72
65
 73
8
 40
36.0000000000000071
 49
24.0
 74
0
 49
-2.9500000000000002
 74
0
 49
0.1
 74
0
 49
-2.9000000000000004
 74
0
 49
0.1
 74
0
 49
-2.9000000000000004
 74
0
 49
0.1
 74
0
 49
-2.9500000000000002
 74
0
  0
LTYPE
  5
32
100
AcDbSymbolTableRecord
100
AcDbLinetypeTableRecord
  2
ACAD_ISO10W100
 70
0
  3
ISO dash dot __ . __ . __ . __ . __ . __ . __ . 
 72
65
 73
4
 40
18.0
 49
12.0
 74
0
 49
-2.9500000000000002
 74
0
 49
0.1
 74
0
 49
-2.9500000000000002
 74
0
  0
LTYPE
  5
33
100
AcDbSymbolTableRecord
100
AcDbLinetypeTableRecord
  2
ACAD_ISO15W100
 70
0
  3
ISO double-dash triple-dot __ __ . . . __ __ . .
 72
65
 73
10
 40
39.0000000000000071
 49
12.0
 74
0
 49
-3.0
 74
0
 49
12.0
 74
0
 49
-2.9500000000000002
 74
0
 49
0.1
 74
0
 49
-2.9000000000000004
 74
0
 49
0.1
 74
0
 49
-2.9000000000000004
 74
0
 49
0.1
 74
0
 49
-2.9500000000000002
 74
0
  0
LTYPE
  5
34
100
AcDbSymbolTableRecord
100
AcDbLinetypeTableRecord
  2
ACAD_ISO05W100
 70
0
  3
ISO long-dash double-dot ____ .. ____ .. ____ . 
 72
65
 73
6
 40
33.0000000000000071
 49
24.0
 74
0
 49
-2.9500000000000002
 74
0
 49
0.1
 74
0
 49
-2.9000000000000004
 74
0
 49
0.1
 74
0
 49
-2.9500000000000002
 74
0
  0
LTYPE
  5
35
100
AcDbSymbolTableRecord
100
AcDbLinetypeTableRecord
  2
DASHDOT
 70
0
  3
Dash dot __ . __ . __ . __ . __ . __ . __ . __
 72
65
 73
4
 40
25.4000000000000021
 49
12.6999999999999993
 74
0
 49
-6.2999999999999998
 74
0
 49
0.1
 74
0
 49
-6.2999999999999998
 74
0
  0
LTYPE
  5
36
100
AcDbSymbolTableRecord
100
AcDbLinetypeTableRecord
  2
ACAD_ISO11W100
 70
0
  3
ISO double-dash dot __ __ . __ __ . __ __ . __ _
 72
65
 73
6
 40
33.0
 49
12.0
 74
0
 49
-3.0
 74
0
 49
12.0
 74
0
 49
-2.9500000000000002
 74
0
 49
0.1
 74
0
 49
-2.9500000000000002
 74
0
  0
LTYPE
  5
37
100
AcDbSymbolTableRecord
100
AcDbLinetypeTableRecord
  2
CENTER
 70
0
  3
Center ____ _ ____ _ ____ _ ____ _ ____ _ ____
 72
65
 73
4
 40
50.8000000000000043
 49
31.75
 74
0
 49
-6.3499999999999996
 74
0
 49
6.3499999999999996
 74
0
 49
-6.3499999999999996
 74
0
  0
LTYPE
  5
38
100
AcDbSymbolTableRecord
100
AcDbLinetypeTableRecord
  2
DASHEDX2
 70
0
  3
Dashed (2x) ____  ____  ____  ____  ____  ___
 72
65
 73
2
 40
38.0999999999999943
 49
25.3999999999999986
 74
0
 49
-12.6999999999999993
 74
0
  0
LTYPE
  5
39
100
AcDbSymbolTableRecord
100
AcDbLinetypeTableRecord
  2
DASHED
 70
0
  3
Dashed __ __ __ __ __ __ __ __ __ __ __ __ __ _
 72
65
 73
2
 40
19.0499999999999972
 49
12.6999999999999993
 74
0
 49
-6.3499999999999996
 74
0
  0
LTYPE
  5
3A
100
AcDbSymbolTableRecord
100
AcDbLinetypeTableRecord
  2
ACAD_ISO13W100
 70
0
  3
ISO double-dash double-dot __ __ . . __ __ . . _
 72
65
 73
8
 40
36.0000000000000071
 49
12.0
 74
0
 49
-3.0
 74
0
 49
12.0
 74
0
 49
-2.9500000000000002
 74
0
 49
0.1
 74
0
 49
-2.9000000000000004
 74
0
 49
0.1
 74
0
 49
-2.9500000000000002
 74
0
  0
LTYPE
  5
3B
100
AcDbSymbolTableRecord
100
AcDbLinetypeTableRecord
  2
BORDER
 70
0
  3
Border __ __ . __ __ . __ __ . __ __ . __ __ .
 72
65
 73
6
 40
44.4499999999999957
 49
12.6999999999999993
 74
0
 49
-6.3499999999999996
 74
0
 49
12.6999999999999993
 74
0
 49
-6.2999999999999998
 74
0
 49
0.1
 74
0
 49
-6.2999999999999998
 74
0
  0
LTYPE
  5
3C
100
AcDbSymbolTableRecord
100
AcDbLinetypeTableRecord
  2
BORDERX2
 70
0
  3
Border (2x) ____  ____  .  ____  ____  .  ___
 72
65
 73
6
 40
88.8999999999999773
 49
25.3999999999999986
 74
0
 49
-12.6999999999999993
 74
0
 49
25.3999999999999986
 74
0
 49
-12.6499999999999986
 74
0
 49
0.1
 74
0
 49
-12.6499999999999986
 74
0
  0
LTYPE
  5
15
100
AcDbSymbolTableRecord
100
AcDbLinetypeTableRecord
  2
BYLAYER
 70
0
  3

 72
65
 73
0
 40
0.0
  0
LTYPE
  5
3D
100
AcDbSymbolTableRecord
100
AcDbLinetypeTableRecord
  2
BORDER2
 70
0
  3
Border (.5x) __.__.__.__.__.__.__.__.__.__.__.
 72
65
 73
6
 40
22.2250000000000014
 49
6.3499999999999996
 74
0
 49
-3.1749999999999998
 74
0
 49
6.3499999999999996
 74
0
 49
-3.125
 74
0
 49
0.1
 74
0
 49
-3.125
 74
0
  0
LTYPE
  5
3E
100
AcDbSymbolTableRecord
100
AcDbLinetypeTableRecord
  2
ACAD_ISO02W100
 70
0
  3
ISO dash __ __ __ __ __ __ __ __ __ __ __ __ __
 72
65
 73
2
 40
15.0
 49
12.0
 74
0
 49
-3.0
 74
0
  0
LTYPE
  5
3F
100
AcDbSymbolTableRecord
100
AcDbLinetypeTableRecord
  2
PHANTOMX2
 70
0
  3
Phantom (2x) ____________    ____    ____   _
 72
65
 73
6
 40
127.0000000000000142
 49
63.5
 74
0
 49
-12.6999999999999993
 74
0
 49
12.6999999999999993
 74
0
 49
-12.6999999999999993
 74
0
 49
12.6999999999999993
 74
0
 49
-12.6999999999999993
 74
0
  0
LTYPE
  5
40
100
AcDbSymbolTableRecord
100
AcDbLinetypeTableRecord
  2
DOT2
 70
0
  3
Dot (.5x) ........................................
 72
65
 73
2
 40
3.1749999999999998
 49
0.1
 74
0
 49
-3.0749999999999997
 74
0
  0
LTYPE
  5
41
100
AcDbSymbolTableRecord
100
AcDbLinetypeTableRecord
  2
DIVIDEX2
 70
0
  3
Divide (2x) ________  .  .  ________  .  .  _
 72
65
 73
6
 40
63.5
 49
25.3999999999999986
 74
0
 49
-12.6499999999999986
 74
0
 49
0.1
 74
0
 49
-12.5999999999999979
 74
0
 49
0.1
 74
0
 49
-12.6499999999999986
 74
0
  0
LTYPE
  5
42
100
AcDbSymbolTableRecord
100
AcDbLinetypeTableRecord
  2
ACAD_ISO07W100
 70
0
  3
ISO dot . . . . . . . . . . . . . . . . . . . . 
 72
65
 73
2
 40
3.0
 49
0.1
 74
0
 49
-2.8999999999999999
 74
0
  0
LTYPE
  5
43
100
AcDbSymbolTableRecord
100
AcDbLinetypeTableRecord
  2
HIDDENX2
 70
0
  3
Hidden (2x) ____ ____ ____ ____ ____ ____ ____ 
 72
65
 73
2
 40
19.0499999999999972
 49
12.6999999999999993
 74
0
 49
-6.3499999999999996
 74
0
  0
LTYPE
  5
44
100
AcDbSymbolTableRecord
100
AcDbLinetypeTableRecord
  2
CENTERX2
 70
0
  3
Center (2x) ________  __  ________  __  _____
 72
65
 73
4
 40
101.6000000000000085
 49
63.5
 74
0
 49
-12.6999999999999993
 74
0
 49
12.6999999999999993
 74
0
 49
-12.6999999999999993
 74
0
  0
LTYPE
  5
45
100
AcDbSymbolTableRecord
100
AcDbLinetypeTableRecord
  2
ACAD_ISO12W100
 70
0
  3
ISO dash double-dot __ . . __ . . __ . . __ . . 
 72
65
 73
6
 40
21.0
 49
12.0
 74
0
 49
-2.9500000000000002
 74
0
 49
0.1
 74
0
 49
-2.9000000000000004
 74
0
 49
0.1
 74
0
 49
-2.9500000000000002
 74
0
  0
LTYPE
  5
46
100
AcDbSymbolTableRecord
100
AcDbLinetypeTableRecord
  2
ACAD_ISO04W100
 70
0
  3
ISO long-dash dot ____ . ____ . ____ . ____ . _
 72
65
 73
4
 40
30.0
 49
24.0
 74
0
 49
-2.9500000000000002
 74
0
 49
0.1
 74
0
 49
-2.9500000000000002
 74
0
  0
LTYPE
  5
47
100
AcDbSymbolTableRecord
100
AcDbLinetypeTableRecord
  2
ACAD_ISO03W100
 70
0
  3
ISO dash space __    __    __    __    __    __
 72
65
 73
2
 40
30.0
 49
12.0
 74
0
 49
-18.0
 74
0
  0
LTYPE
  5
48
100
AcDbSymbolTableRecord
100
AcDbLinetypeTableRecord
  2
DASHDOT2
 70
0
  3
Dash dot (.5x) _._._._._._._._._._._._._._._.
 72
65
 73
4
 40
12.6999999999999993
 49
6.3499999999999996
 74
0
 49
-3.125
 74
0
 49
0.1
 74
0
 49
-3.125
 74
0
  0
LTYPE
  5
49
100
AcDbSymbolTableRecord
100
AcDbLinetypeTableRecord
  2
ACAD_ISO09W100
 70
0
  3
ISO long-dash double-short-dash ____ __ __ ____
 72
65
 73
6
 40
45.0
 49
24.0
 74
0
 49
-3.0
 74
0
 49
6.0
 74
0
 49
-3.0
 74
0
 49
6.0
 74
0
 49
-3.0
 74
0
  0
LTYPE
  5
4A
100
AcDbSymbolTableRecord
100
AcDbLinetypeTableRecord
  2
DIVIDE
 70
0
  3
Divide ____ . . ____ . . ____ . . ____ . . ____
 72
65
 73
6
 40
31.7500000000000036
 49
12.6999999999999993
 74
0
 49
-6.2999999999999998
 74
0
 49
0.1
 74
0
 49
-6.25
 74
0
 49
0.1
 74
0
 49
-6.2999999999999998
 74
0
  0
LTYPE
  5
4B
100
AcDbSymbolTableRecord
100
AcDbLinetypeTableRecord
  2
ACAD_ISO08W100
 70
0
  3
ISO long-dash short-dash ____ __ ____ __ ____ _
 72
65
 73
4
 40
36.0
 49
24.0
 74
0
 49
-3.0
 74
0
 49
6.0
 74
0
 49
-3.0
 74
0
  0
LTYPE
  5
4C
100
AcDbSymbolTableRecord
100
AcDbLinetypeTableRecord
  2
HIDDEN
 70
0
  3
Hidden __ __ __ __ __ __ __ __ __ __ __ __ __ __
 72
65
 73
2
 40
9.5249999999999986
 49
6.3499999999999996
 74
0
 49
-3.1749999999999998
 74
0
  0
LTYPE
  5
4D
100
AcDbSymbolTableRecord
100
AcDbLinetypeTableRecord
  2
PHANTOM2
 70
0
  3
Phantom (.5x) ___ _ _ ___ _ _ ___ _ _ ___ _ _
 72
65
 73
6
 40
31.7500000000000036
 49
15.875
 74
0
 49
-3.1749999999999998
 74
0
 49
3.1749999999999998
 74
0
 49
-3.1749999999999998
 74
0
 49
3.1749999999999998
 74
0
 49
-3.1749999999999998
 74
0
  0
LTYPE
  5
4E
100
AcDbSymbolTableRecord
100
AcDbLinetypeTableRecord
  2
ACAD_ISO14W100
 70
0
  3
ISO dash triple-dot __ . . . __ . . . __ . . . _
 72
65
 73
8
 40
24.0000000000000036
 49
12.0
 74
0
 49
-2.9500000000000002
 74
0
 49
0.1
 74
0
 49
-2.9000000000000004
 74
0
 49
0.1
 74
0
 49
-2.9000000000000004
 74
0
 49
0.1
 74
0
 49
-2.9500000000000002
 74
0
  0
LTYPE
  5
4F
100
AcDbSymbolTableRecord
100
AcDbLinetypeTableRecord
  2
DOT
 70
0
  3
Dot . . . . . . . . . . . . . . . . . . . . . . . .
 72
65
 73
2
 40
6.3499999999999996
 49
0.1
 74
0
 49
-6.25
 74
0
  0
LTYPE
  5
50
100
AcDbSymbolTableRecord
100
AcDbLinetypeTableRecord
  2
DIVIDE2
 70
0
  3
Divide (.5x) __..__..__..__..__..__..__..__.._
 72
65
 73
6
 40
15.8749999999999982
 49
6.3499999999999996
 74
0
 49
-3.125
 74
0
 49
0.1
 74
0
 49
-3.0750000000000002
 74
0
 49
0.1
 74
0
 49
-3.125
 74
0
  0
LTYPE
  5
51
100
AcDbSymbolTableRecord
100
AcDbLinetypeTableRecord
  2
HIDDEN2
 70
0
  3
Hidden (.5x) _ _ _ _ _ _ _ _ _ _ _ _ _ _ _ _ _ 
 72
65
 73
2
 40
4.7624999999999993
 49
3.1749999999999998
 74
0
 49
-1.5874999999999999
 74
0
  0
LTYPE
  5
52
100
AcDbSymbolTableRecord
100
AcDbLinetypeTableRecord
  2
CENTER2
 70
0
  3
Center (.5x) ___ _ ___ _ ___ _ ___ _ ___ _ ___
 72
65
 73
4
 40
28.5750000000000028
 49
19.0500000000000007
 74
0
 49
-3.1749999999999998
 74
0
 49
3.1749999999999998
 74
0
 49
-3.1749999999999998
 74
0
  0
LTYPE
  5
14
100
AcDbSymbolTableRecord
100
AcDbLinetypeTableRecord
  2
BYBLOCK
 70
0
  3

 72
65
 73
0
 40
0.0
  0
LTYPE
  5
53
100
AcDbSymbolTableRecord
100
AcDbLinetypeTableRecord
  2
DASHED2
 70
0
  3
Dashed (.5x) _ _ _ _ _ _ _ _ _ _ _ _ _ _ _ _ _ 
 72
65
 73
2
 40
9.5249999999999986
 49
6.3499999999999996
 74
0
 49
-3.1749999999999998
 74
0
  0
LTYPE
  5
54
100
AcDbSymbolTableRecord
100
AcDbLinetypeTableRecord
  2
PHANTOM
 70
0
  3
Phantom ______  __  __  ______  __  __  ______ 
 72
65
 73
6
 40
63.5000000000000071
 49
31.75
 74
0
 49
-6.3499999999999996
 74
0
 49
6.3499999999999996
 74
0
 49
-6.3499999999999996
 74
0
 49
6.3499999999999996
 74
0
 49
-6.3499999999999996
 74
0
  0
LTYPE
  5
55
100
AcDbSymbolTableRecord
100
AcDbLinetypeTableRecord
  2
DASHDOTX2
 70
0
  3
Dash dot (2x) ____  .  ____  .  ____  .  ___
 72
65
 73
4
 40
50.7999999999999972
 49
25.3999999999999986
 74
0
 49
-12.6499999999999986
 74
0
 49
0.1
 74
0
 49
-12.6499999999999986
 74
0
  0
LTYPE
  5
56
100
AcDbSymbolTableRecord
100
AcDbLinetypeTableRecord
  2
DOTX2
 70
0
  3
Dot (2x) .  .  .  .  .  .  .  .  .  .  .  .  .  .
 72
65
 73
2
 40
12.6999999999999993
 49
0.1
 74
0
 49
-12.5999999999999996
 74
0
  0
ENDTAB
  0
TABLE
  2
LAYER
  5
2
100
AcDbSymbolTable
 70
5
  0
LAYER
  5
57
100
AcDbSymbolTableRecord
100
AcDbLayerTableRecord
  2
main layer
 70
0
 62
7
420
0
  6
Continuous
370
25
390
F
  0
LAYER
  5
58
100
AcDbSymbolTableRecord
100
AcDbLayerTableRecord
  2
true turntable
 70
1
 62
3
420
65280
  6
Continuous
370
25
390
F
  0
LAYER
  5
59
100
AcDbSymbolTableRecord
100
AcDbLayerTableRecord
  2
measurements
 70
0
 62
1
420
16711680
  6
Continuous
370
25
390
F
  0
LAYER
  5
5A
100
AcDbSymbolTableRecord
100
AcDbLayerTableRecord
  2
info
 70
4
 62
5
420
255
  6
Continuous
370
25
390
F
  0
LAYER
  5
10
100
AcDbSymbolTableRecord
100
AcDbLayerTableRecord
  2
0
 70
1
 62
252
420
10526884
  6
Continuous
370
25
390
F
  0
ENDTAB
  0
TABLE
  2
STYLE
  5
3
100
AcDbSymbolTable
 70
12
  0
STYLE
  5
5B
100
AcDbSymbolTableRecord
100
AcDbTextStyleTableRecord
  2
Standard
 70
0
 40
0.0
 41
1.0
 50
0.0
 71
0
 42
2.5
  3

  4

1001
ACAD
1000
txt
1071
0
  0
STYLE
  5
5C
100
AcDbSymbolTableRecord
100
AcDbTextStyleTableRecord
  2
textstyle0
 70
0
 40
0.0
 41
1.0
 50
0.0
 71
0
 42
3.0
  3

  4

1001
ACAD
1000
NormalLatin2
1071
0
  0
STYLE
  5
5D
100
AcDbSymbolTableRecord
100
AcDbTextStyleTableRecord
  2
textstyle1
 70
0
 40
0.0
 41
1.0
 50
0.0
 71
0
 42
2.0
  3

  4

1001
ACAD
1000
NormalLatin2
1071
0
  0
STYLE
  5
5E
100
AcDbSymbolTableRecord
100
AcDbTextStyleTableRecord
  2
textstyle2
 70
0
 40
0.0
 41
1.0
 50
0.0
 71
0
 42
2.0
  3

  4

1001
ACAD
1000
NormalLatin2
1071
0
  0
STYLE
  5
5F
100
AcDbSymbolTableRecord
100
AcDbTextStyleTableRecord
  2
textstyle3
 70
0
 40
0.0
 41
1.0
 50
0.0
 71
0
 42
4.0
  3

  4

1001
ACAD
1000
Standard
1071
0
  0
STYLE
  5
60
100
AcDbSymbolTableRecord
100
AcDbTextStyleTableRecord
  2
textstyle4
 70
0
 40
0.0
 41
1.0
 50
0.0
 71
0
 42
4.0
  3

  4

1001
ACAD
1000
Standard
1071
0
  0
STYLE
  5
61
100
AcDbSymbolTableRecord
100
AcDbTextStyleTableRecord
  2
textstyle5
 70
0
 40
0.0
 41
1.0
 50
0.0
 71
0
 42
4.0
  3

  4

1001
ACAD
1000
Standard
1071
0
  0
STYLE
  5
62
100
AcDbSymbolTableRecord
100
AcDbTextStyleTableRecord
  2
textstyle6
 70
0
 40
0.0
 41
1.0
 50
0.0
 71
0
 42
4.0
  3

  4

1001
ACAD
1000
Standard
1071
0
  0
STYLE
  5
63
100
AcDbSymbolTableRecord
100
AcDbTextStyleTableRecord
  2
textstyle7
 70
0
 40
0.0
 41
1.0
 50
0.0
 71
0
 42
4.0
  3

  4

1001
ACAD
1000
Standard
1071
0
  0
STYLE
  5
64
100
AcDbSymbolTableRecord
100
AcDbTextStyleTableRecord
  2
textstyle8
 70
0
 40
0.0
 41
1.0
 50
0.0
 71
0
 42
4.0
  3

  4

1001
ACAD
1000
standard
1071
0
  0
STYLE
  5
65
100
AcDbSymbolTableRecord
100
AcDbTextStyleTableRecord
  2
textstyle9
 70
0
 40
0.0
 41
1.0
 50
0.0
 71
0
 42
4.0
  3

  4

1001
ACAD
1000
standard
1071
0
  0
STYLE
  5
66
100
AcDbSymbolTableRecord
100
AcDbTextStyleTableRecord
  2
textstyle10
 70
0
 40
0.0
 41
1.0
 50
0.0
 71
0
 42
4.0
  3

  4

1001
ACAD
1000
Standard
1071
0
  0
ENDTAB
  0
TABLE
  2
VIEW
  5
6
100
AcDbSymbolTable
 70
0
  0
ENDTAB
  0
TABLE
  2
UCS
  5
7
100
AcDbSymbolTable
 70
0
  0
ENDTAB
  0
TABLE
  2
APPID
  5
9
100
AcDbSymbolTable
 70
1
  0
APPID
  5
12
100
AcDbSymbolTableRecord
100
AcDbRegAppTableRecord
  2
ACAD
 70
0
  0
APPID
  5
67
100
AcDbSymbolTableRecord
100
AcDbRegAppTableRecord
  2
QCAD
 70
0
  0
ENDTAB
  0
TABLE
  2
DIMSTYLE
  5
A
100
AcDbSymbolTable
 70
1
100
AcDbDimStyleTable
 71
0
  0
DIMSTYLE
105
27
100
AcDbSymbolTableRecord
100
AcDbDimStyleTableRecord
  2
Standard
 41
2.5
 42
0.625
 43
3.75
 44
1.25
 70
0
 73
0
 74
0
 77
1
 78
8
140
2.5
141
2.5
143
0.03937007874016
147
0.625
171
3
172
1
271
2
272
2
274
3
278
44
283
0
284
8
340
5B
  0
ENDTAB
  0
TABLE
  2
BLOCK_RECORD
  5
1
100
AcDbSymbolTable
 70
1
  0
BLOCK_RECORD
  5
1F
100
AcDbSymbolTableRecord
100
AcDbBlockTableRecord
  2
*Model_Space
340
22
  0
BLOCK_RECORD
  5
1B
100
AcDbSymbolTableRecord
100
AcDbBlockTableRecord
  2
*Paper_Space
340
1E
  0
BLOCK_RECORD
  5
23
100
AcDbSymbolTableRecord
100
AcDbBlockTableRecord
  2
*Paper_Space0
340
26
  0
ENDTAB
  0
ENDSEC
  0
SECTION
  2
BLOCKS
  0
BLOCK
  5
20
100
AcDbEntity
  8
0
100
AcDbBlockBegin
  2
*Model_Space
 70
0
 10
0.0
 20
0.0
 30
0.0
  3
*Model_Space
  1

  0
ENDBLK
  5
21
100
AcDbEntity
  8
0
100
AcDbBlockEnd
  0
BLOCK
  5
1C
100
AcDbEntity
 67
1
  8
0
100
AcDbBlockBegin
  2
*Paper_Space
 70
0
 10
0.0
 20
0.0
 30
0.0
  3
*Paper_Space
  1

  0
ENDBLK
  5
1D
100
AcDbEntity
 67
1
  8
0
100
AcDbBlockEnd
  0
BLOCK
  5
24
100
AcDbEntity
  8
0
100
AcDbBlockBegin
  2
*Paper_Space0
 70
0
 10
0.0
 20
0.0
 30
0.0
  3
*Paper_Space0
  1

  0
ENDBLK
  5
25
100
AcDbEntity
  8
0
100
AcDbBlockEnd
  0
ENDSEC
  0
SECTION
  2
ENTITIES
  0
LINE
  5
68
100
AcDbEntity
  8
main layer
 62
256
370
-1
 48
1.0
  6
BYLAYER
100
AcDbLine
 10
-1.0
 20
-36.0
 30
0.0
 11
28.0
 21
-36.0
 31
0.0
  0
LINE
  5
69
100
AcDbEntity
  8
main layer
 62
256
370
-1
 48
1.0
  6
BYLAYER
100
AcDbLine
 10
20.0
 20
20.0
 30
0.0
 11
49.0
 21
20.0
 31
0.0
  0
LINE
  5
6A
100
AcDbEntity
  8
main layer
 62
256
370
-1
 48
1.0
  6
BYLAYER
100
AcDbLine
 10
20.0
 20
20.0
 30
0.0
 11
49.0
 21
20.0
 31
0.0
  0
LINE
  5
6B
100
AcDbEntity
  8
main layer
 62
256
370
-1
 48
1.0
  6
BYLAYER
100
AcDbLine
 10
28.0
 20
-36.0
 30
0.0
 11
28.0
 21
10.0
 31
0.0
  0
LINE
  5
6C
100
AcDbEntity
  8
main layer
 62
256
370
-1
 48
1.0
  6
BYLAYER
100
AcDbLine
 10
49.0
 20
20.0
 30
0.0
 11
49.0
 21
66.0
 31
0.0
  0
LINE
  5
6D
100
AcDbEntity
  8
main layer
 62
256
370
-1
 48
1.0
  6
BYLAYER
100
AcDbLine
 10
49.0
 20
20.0
 30
0.0
 11
49.0
 21
66.0
 31
0.0
  0
LINE
  5
6E
100
AcDbEntity
  8
main layer
 62
256
370
-1
 48
1.0
  6
BYLAYER
100
AcDbLine
 10
28.0
 20
10.0
 30
0.0
 11
-1.0
 21
10.0
 31
0.0
  0
LINE
  5
6F
100
AcDbEntity
  8
main layer
 62
256
370
-1
 48
1.0
  6
BYLAYER
100
AcDbLine
 10
49.0
 20
66.0
 30
0.0
 11
20.0
 21
66.0
 31
0.0
  0
LINE
  5
70
100
AcDbEntity
  8
main layer
 62
256
370
-1
 48
1.0
  6
BYLAYER
100
AcDbLine
 10
49.0
 20
66.0
 30
0.0
 11
20.0
 21
66.0
 31
0.0
  0
LINE
  5
71
100
AcDbEntity
  8
main layer
 62
256
370
-1
 48
1.0
  6
BYLAYER
100
AcDbLine
 10
-1.0
 20
10.0
 30
0.0
 11
-1.0
 21
-36.0
 31
0.0
  0
LINE
  5
72
100
AcDbEntity
  8
main layer
 62
256
370
-1
 48
1.0
  6
BYLAYER
100
AcDbLine
 10
20.0
 20
66.0
 30
0.0
 11
20.0
 21
20.0
 31
0.0
  0
LINE
  5
73
100
AcDbEntity
  8
main layer
 62
256
370
-1
 48
1.0
  6
BYLAYER
100
AcDbLine
 10
20.0
 20
66.0
 30
0.0
 11
20.0
 21
20.0
 31
0.0
  0
LINE
  5
74
100
AcDbEntity
  8
main layer
 62
256
370
-1
 48
1.0
  6
BYLAYER
100
AcDbLine
 10
40.0
 20
-36.0
 30
0.0
 11
69.0
 21
-36.0
 31
0.0
  0
LINE
  5
75
100
AcDbEntity
  8
main layer
 62
256
370
-1
 48
1.0
  6
BYLAYER
100
AcDbLine
 10
61.0
 20
20.0
 30
0.0
 11
90.0
 21
20.0
 31
0.0
  0
LINE
  5
76
100
AcDbEntity
  8
main layer
 62
256
370
-1
 48
1.0
  6
BYLAYER
100
AcDbLine
 10
61.0
 20
20.0
 30
0.0
 11
90.0
 21
20.0
 31
0.0
  0
LINE
  5
77
100
AcDbEntity
  8
main layer
 62
256
370
-1
 48
1.0
  6
BYLAYER
100
AcDbLine
 10
69.0
 20
-36.0
 30
0.0
 11
69.0
 21
10.0
 31
0.0
  0
LINE
  5
78
100
AcDbEntity
  8
main layer
 62
256
370
-1
 48
1.0
  6
BYLAYER
100
AcDbLine
 10
90.0
 20
20.0
 30
0.0
 11
90.0
 21
66.0
 31
0.0
  0
LINE
  5
79
100
AcDbEntity
  8
main layer
 62
256
370
-1
 48
1.0
  6
BYLAYER
100
AcDbLine
 10
90.0
 20
20.0
 30
0.0
 11
90.0
 21
66.0
 31
0.0
  0
LINE
  5
7A
100
AcDbEntity
  8
main layer
 62
256
370
-1
 48
1.0
  6
BYLAYER
100
AcDbLine
 10
69.0
 20
10.0
 30
0.0
 11
40.0
 21
10.0
 31
0.0
  0
LINE
  5
7B
100
AcDbEntity
  8
main layer
 62
256
370
-1
 48
1.0
  6
BYLAYER
100
AcDbLine
 10
90.0
 20
66.0
 30
0.0
 11
61.0
 21
66.0
 31
0.0
  0
LINE
  5
7C
100
AcDbEntity
  8
main layer
 62
256
370
-1
 48
1.0
  6
BYLAYER
100
AcDbLine
 10
90.0
 20
66.0
 30
0.0
 11
61.0
 21
66.0
 31
0.0
  0
LINE
  5
7D
100
AcDbEntity
  8
main layer
 62
256
370
-1
 48
1.0
  6
BYLAYER
100
AcDbLine
 10
40.0
 20
10.0
 30
0.0
 11
40.0
 21
-36.0
 31
0.0
  0
LINE
  5
7E
100
AcDbEntity
  8
main layer
 62
256
370
-1
 48
1.0
  6
BYLAYER
100
AcDbLine
 10
61.0
 20
66.0
 30
0.0
 11
61.0
 21
20.0
 31
0.0
  0
LINE
  5
7F
100
AcDbEntity
  8
main layer
 62
256
370
-1
 48
1.0
  6
BYLAYER
100
AcDbLine
 10
61.0
 20
66.0
 30
0.0
 11
61.0
 21
20.0
 31
0.0
  0
LINE
  5
80
100
AcDbEntity
  8
main layer
 62
256
370
-1
 48
1.0
  6
BYLAYER
100
AcDbLine
 10
81.0
 20
-36.0
 30
0.0
 11
110.0
 21
-36.0
 31
0.0
  0
LINE
  5
81
100
AcDbEntity
  8
main layer
 62
256
370
-1
 48
1.0
  6
BYLAYER
100
AcDbLine
 10
102.0
 20
20.0
 30
0.0
 11
131.0
 21
20.0
 31
0.0
  0
LINE
  5
82
100
AcDbEntity
  8
main layer
 62
256
370
-1
 48
1.0
  6
BYLAYER
100
AcDbLine
 10
102.0
 20
20.0
 30
0.0
 11
131.0
 21
20.0
 31
0.0
  0
LINE
  5
83
100
AcDbEntity
  8
main layer
 62
256
370
-1
 48
1.0
  6
BYLAYER
100
AcDbLine
 10
110.0
 20
-36.0
 30
0.0
 11
110.0
 21
10.0
 31
0.0
  0
LINE
  5
84
100
AcDbEntity
  8
main layer
 62
256
370
-1
 48
1.0
  6
BYLAYER
100
AcDbLine
 10
131.0
 20
20.0
 30
0.0
 11
131.0
 21
66.0
 31
0.0
  0
LINE
  5
85
100
AcDbEntity
  8
main layer
 62
256
370
-1
 48
1.0
  6
BYLAYER
100
AcDbLine
 10
131.0
 20
20.0
 30
0.0
 11
131.0
 21
66.0
 31
0.0
  0
LINE
  5
86
100
AcDbEntity
  8
main layer
 62
256
370
-1
 48
1.0
  6
BYLAYER
100
AcDbLine
 10
110.0
 20
10.0
 30
0.0
 11
81.0
 21
10.0
 31
0.0
  0
LINE
  5
87
100
AcDbEntity
  8
main layer
 62
256
370
-1
 48
1.0
  6
BYLAYER
100
AcDbLine
 10
131.0
 20
66.0
 30
0.0
 11
102.0
 21
66.0
 31
0.0
  0
LINE
  5
88
100
AcDbEntity
  8
main layer
 62
256
370
-1
 48
1.0
  6
BYLAYER
100
AcDbLine
 10
131.0
 20
66.0
 30
0.0
 11
102.0
 21
66.0
 31
0.0
  0
LINE
  5
89
100
AcDbEntity
  8
main layer
 62
256
370
-1
 48
1.0
  6
BYLAYER
100
AcDbLine
 10
81.0
 20
10.0
 30
0.0
 11
81.0
 21
-36.0
 31
0.0
  0
LINE
  5
8A
100
AcDbEntity
  8
main layer
 62
256
370
-1
 48
1.0
  6
BYLAYER
100
AcDbLine
 10
102.0
 20
66.0
 30
0.0
 11
102.0
 21
20.0
 31
0.0
  0
LINE
  5
8B
100
AcDbEntity
  8
main layer
 62
256
370
-1
 48
1.0
  6
BYLAYER
100
AcDbLine
 10
102.0
 20
66.0
 30
0.0
 11
102.0
 21
20.0
 31
0.0
  0
LINE
  5
8C
100
AcDbEntity
  8
main layer
 62
256
370
-1
 48
1.0
  6
BYLAYER
100
AcDbLine
 10
122.0
 20
-36.0
 30
0.0
 11
151.0
 21
-36.0
 31
0.0
  0
LINE
  5
8D
100
AcDbEntity
  8
main layer
 62
256
370
-1
 48
1.0
  6
BYLAYER
100
AcDbLine
 10
243.0
 20
24.0
 30
0.0
 11
272.0
 21
24.0
 31
0.0
  0
LINE
  5
8E
100
AcDbEntity
  8
main layer
 62
256
370
-1
 48
1.0
  6
BYLAYER
100
AcDbLine
 10
-122.0
 20
24.0
 30
0.0
 11
-93.0
 21
24.0
 31
0.0
  0
LINE
  5
8F
100
AcDbEntity
  8
main layer
 62
256
370
-1
 48
1.0
  6
BYLAYER
100
AcDbLine
 10
151.0
 20
-36.0
 30
0.0
 11
151.0
 21
10.0
 31
0.0
  0
LINE
  5
90
100
AcDbEntity
  8
main layer
 62
256
370
-1
 48
1.0
  6
BYLAYER
100
AcDbLine
 10
272.0
 20
24.0
 30
0.0
 11
272.0
 21
70.0
 31
0.0
  0
LINE
  5
91
100
AcDbEntity
  8
main layer
 62
256
370
-1
 48
1.0
  6
BYLAYER
100
AcDbLine
 10
-93.0
 20
24.0
 30
0.0
 11
-93.0
 21
70.0
 31
0.0
  0
LINE
  5
92
100
AcDbEntity
  8
main layer
 62
256
370
-1
 48
1.0
  6
BYLAYER
100
AcDbLine
 10
151.0
 20
10.0
 30
0.0
 11
122.0
 21
10.0
 31
0.0
  0
LINE
  5
93
100
AcDbEntity
  8
main layer
 62
256
370
-1
 48
1.0
  6
BYLAYER
100
AcDbLine
 10
272.0
 20
70.0
 30
0.0
 11
243.0
 21
70.0
 31
0.0
  0
LINE
  5
94
100
AcDbEntity
  8
main layer
 62
256
370
-1
 48
1.0
  6
BYLAYER
100
AcDbLine
 10
-93.0
 20
70.0
 30
0.0
 11
-122.0
 21
70.0
 31
0.0
  0
LINE
  5
95
100
AcDbEntity
  8
main layer
 62
256
370
-1
 48
1.0
  6
BYLAYER
100
AcDbLine
 10
122.0
 20
10.0
 30
0.0
 11
122.0
 21
-36.0
 31
0.0
  0
LINE
  5
96
100
AcDbEntity
  8
main layer
 62
256
370
-1
 48
1.0
  6
BYLAYER
100
AcDbLine
 10
243.0
 20
70.0
 30
0.0
 11
243.0
 21
24.0
 31
0.0
  0
LINE
  5
97
100
AcDbEntity
  8
main layer
 62
256
370
-1
 48
1.0
  6
BYLAYER
100
AcDbLine
 10
-122.0
 20
70.0
 30
0.0
 11
-122.0
 21
24.0
 31
0.0
  0
MTEXT
  5
98
100
AcDbEntity
  8
measurements
 62
256
370
-1
 48
1.0
  6
BYLAYER
100
AcDbMText
 10
26.5833492964735143
 20
39.440111357915093
 30
0.0
 40
2.0
 41
0.0
 71
1
 72
1
  1
50x33 button\P29x46 hole\P
  7
textstyle2
 50
0.0
 73
2
 44
1.0
  0
MTEXT
  5
99
100
AcDbEntity
  8
measurements
 62
256
370
-1
 48
1.0
  6
BYLAYER
100
AcDbMText
 10
4.920197549734695
 20
102.9096213487451053
 30
0.0
 40
2.0
 41
0.0
 71
1
 72
1
  1
33x33 button\P29x29 hole\P
  7
textstyle1
 50
0.0
 73
2
 44
1.0
  0
LINE
  5
9A
100
AcDbEntity
  8
main layer
 62
256
370
-1
 48
1.0
  6
BYLAYER
100
AcDbLine
 10
-150.0
 20
130.0
 30
0.0
 11
300.0
 21
130.0
 31
0.0
  0
LINE
  5
9B
100
AcDbEntity
  8
main layer
 62
256
370
-1
 48
1.0
  6
BYLAYER
100
AcDbLine
 10
300.0
 20
130.0
 30
0.0
 11
300.0
 21
-60.0
 31
0.0
  0
LINE
  5
9C
100
AcDbEntity
  8
main layer
 62
256
370
-1
 48
1.0
  6
BYLAYER
100
AcDbLine
 10
300.0
 20
-60.0
 30
0.0
 11
-150.0
 21
-60.0
 31
0.0
  0
LINE
  5
9D
100
AcDbEntity
  8
main layer
 62
256
370
-1
 48
1.0
  6
BYLAYER
100
AcDbLine
 10
-150.0
 20
-60.0
 30
0.0
 11
-150.0
 21
130.0
 31
0.0
  0
CIRCLE
  5
9E
100
AcDbEntity
  8
true turntable
 62
256
370
-1
 48
1.0
  6
BYLAYER
100
AcDbCircle
 10
354.0
 20
70.0
 30
0.0
 40
111.0
  0
CIRCLE
  5
9F
100
AcDbEntity
  8
true turntable
 62
256
370
-1
 48
1.0
  6
BYLAYER
100
AcDbCircle
 10
-204.0
 20
70.0
 30
0.0
 40
111.0
  0
LINE
  5
A0
100
AcDbEntity
  8
main layer
 62
256
370
-1
 48
1.0
  6
BYLAYER
100
AcDbLine
 10
-1.0
 20
87.0
 30
0.0
 11
28.0
 21
87.0
 31
0.0
  0
LINE
  5
A1
100
AcDbEntity
  8
main layer
 62
256
370
-1
 48
1.0
  6
BYLAYER
100
AcDbLine
 10
28.0
 20
87.0
 30
0.0
 11
28.0
 21
116.0
 31
0.0
  0
LINE
  5
A2
100
AcDbEntity
  8
main layer
 62
256
370
-1
 48
1.0
  6
BYLAYER
100
AcDbLine
 10
28.0
 20
116.0
 30
0.0
 11
-1.0
 21
116.0
 31
0.0
  0
LINE
  5
A3
100
AcDbEntity
  8
main layer
 62
256
370
-1
 48
1.0
  6
BYLAYER
100
AcDbLine
 10
-1.0
 20
116.0
 30
0.0
 11
-1.0
 21
87.0
 31
0.0
  0
LINE
  5
A4
100
AcDbEntity
  8
main layer
 62
256
370
-1
 48
1.0
  6
BYLAYER
100
AcDbLine
 10
122.0
 20
87.0
 30
0.0
 11
151.0
 21
87.0
 31
0.0
  0
LINE
  5
A5
100
AcDbEntity
  8
main layer
 62
256
370
-1
 48
1.0
  6
BYLAYER
100
AcDbLine
 10
151.0
 20
87.0
 30
0.0
 11
151.0
 21
116.0
 31
0.0
  0
LINE
  5
A6
100
AcDbEntity
  8
main layer
 62
256
370
-1
 48
1.0
  6
BYLAYER
100
AcDbLine
 10
151.0
 20
116.0
 30
0.0
 11
122.0
 21
116.0
 31
0.0
  0
LINE
  5
A7
100
AcDbEntity
  8
main layer
 62
256
370
-1
 48
1.0
  6
BYLAYER
100
AcDbLine
 10
122.0
 20
116.0
 30
0.0
 11
122.0
 21
87.0
 31
0.0
  0
MTEXT
  5
A8
100
AcDbEntity
  8
info
 62
256
370
-1
 48
1.0
  6
BYLAYER
100
AcDbMText
 10
0.6984072140322155
 20
213.8776318932568188
 30
0.0
 40
3.0
 41
0.0
 71
1
 72
1
  3
2024 null1024, licensed under CC0.\P< https://creativecommons.org/publicdomain/zero/1.0/ >\P\PI decided to make an ambidextrous setup. Two "turntable"  buttons, two\Poptional buttons, 7 keys. There is a "true turntable" layer which depicts\Pabout whe
  3
re the actual turntable would be. It's probably off a bit but w/e,\Pit's close enough.\P\PCurrently, you'd wire the left and right side "turntable" buttons to the\Psame input pin. For a doubles setup, just build two units, although the\Pdistance is a
  3
 bit wide.\P\PAt some point, I'd consider firmware support for multiple turntable\Pbuttons (which would allow you to easily switch to using it as a 9 button\Pcontroller, like if you wanted a very bootleg way to play Pop'n; just spin it\P180 degrees a
  1
nd presto).\P\Palso good lord, laser cutting services are expensive as hell lmao, rip
  7
textstyle0
 50
0.0
 73
2
 44
1.0
  0
LINE
  5
A9
100
AcDbEntity
  8
measurements
 62
256
370
-1
 48
1.0
  6
BYLAYER
100
AcDbLine
 10
-93.0
 20
70.0
 30
0.0
 11
20.0
 21
70.0
 31
0.0
  0
LINE
  5
AA
100
AcDbEntity
  8
measurements
 62
256
370
-1
 48
1.0
  6
BYLAYER
100
AcDbLine
 10
-93.0
 20
70.4482821576679896
 30
0.0
 11
-93.0
 21
69.5517178423320104
 31
0.0
  0
LINE
  5
AB
100
AcDbEntity
  8
measurements
 62
256
370
-1
 48
1.0
  6
BYLAYER
100
AcDbLine
 10
20.0
 20
70.4482821576679896
 30
0.0
 11
20.0
 21
69.5517178423320104
 31
0.0
  0
LINE
  5
AC
100
AcDbEntity
  8
measurements
 62
256
370
-1
 48
1.0
  6
BYLAYER
100
AcDbLine
 10
-92.0
 20
70.1793128630671958
 30
0.0
 11
-92.0
 21
69.8206871369328042
 31
0.0
  0
LINE
  5
AD
100
AcDbEntity
  8
measurements
 62
256
370
-1
 48
1.0
  6
BYLAYER
100
AcDbLine
 10
-91.0
 20
70.1793128630671958
 30
0.0
 11
-91.0
 21
69.8206871369328042
 31
0.0
  0
LINE
  5
AE
100
AcDbEntity
  8
measurements
 62
256
370
-1
 48
1.0
  6
BYLAYER
100
AcDbLine
 10
-90.0
 20
70.1793128630671958
 30
0.0
 11
-90.0
 21
69.8206871369328042
 31
0.0
  0
LINE
  5
AF
100
AcDbEntity
  8
measurements
 62
256
370
-1
 48
1.0
  6
BYLAYER
100
AcDbLine
 10
-89.0
 20
70.1793128630671958
 30
0.0
 11
-89.0
 21
69.8206871369328042
 31
0.0
  0
LINE
  5
B0
100
AcDbEntity
  8
measurements
 62
256
370
-1
 48
1.0
  6
BYLAYER
100
AcDbLine
 10
-88.0
 20
70.1793128630671958
 30
0.0
 11
-88.0
 21
69.8206871369328042
 31
0.0
  0
LINE
  5
B1
100
AcDbEntity
  8
measurements
 62
256
370
-1
 48
1.0
  6
BYLAYER
100
AcDbLine
 10
-87.0
 20
70.1793128630671958
 30
0.0
 11
-87.0
 21
69.8206871369328042
 31
0.0
  0
LINE
  5
B2
100
AcDbEntity
  8
measurements
 62
256
370
-1
 48
1.0
  6
BYLAYER
100
AcDbLine
 10
-86.0
 20
70.1793128630671958
 30
0.0
 11
-86.0
 21
69.8206871369328042
 31
0.0
  0
LINE
  5
B3
100
AcDbEntity
  8
measurements
 62
256
370
-1
 48
1.0
  6
BYLAYER
100
AcDbLine
 10
-85.0
 20
70.1793128630671958
 30
0.0
 11
-85.0
 21
69.8206871369328042
 31
0.0
  0
LINE
  5
B4
100
AcDbEntity
  8
measurements
 62
256
370
-1
 48
1.0
  6
BYLAYER
100
AcDbLine
 10
-84.0
 20
70.1793128630671958
 30
0.0
 11
-84.0
 21
69.8206871369328042
 31
0.0
  0
LINE
  5
B5
100
AcDbEntity
  8
measurements
 62
256
370
-1
 48
1.0
  6
BYLAYER
100
AcDbLine
 10
-83.0
 20
70.1793128630671958
 30
0.0
 11
-83.0
 21
69.8206871369328042
 31
0.0
  0
LINE
  5
B6
100
AcDbEntity
  8
measurements
 62
256
370
-1
 48
1.0
  6
BYLAYER
100
AcDbLine
 10
-82.0
 20
70.1793128630671958
 30
0.0
 11
-82.0
 21
69.8206871369328042
 31
0.0
  0
LINE
  5
B7
100
AcDbEntity
  8
measurements
 62
256
370
-1
 48
1.0
  6
BYLAYER
100
AcDbLine
 10
-81.0
 20
70.1793128630671958
 30
0.0
 11
-81.0
 21
69.8206871369328042
 31
0.0
  0
LINE
  5
B8
100
AcDbEntity
  8
measurements
 62
256
370
-1
 48
1.0
  6
BYLAYER
100
AcDbLine
 10
-80.0
 20
70.1793128630671958
 30
0.0
 11
-80.0
 21
69.8206871369328042
 31
0.0
  0
LINE
  5
B9
100
AcDbEntity
  8
measurements
 62
256
370
-1
 48
1.0
  6
BYLAYER
100
AcDbLine
 10
-79.0
 20
70.1793128630671958
 30
0.0
 11
-79.0
 21
69.8206871369328042
 31
0.0
  0
LINE
  5
BA
100
AcDbEntity
  8
measurements
 62
256
370
-1
 48
1.0
  6
BYLAYER
100
AcDbLine
 10
-78.0
 20
70.1793128630671958
 30
0.0
 11
-78.0
 21
69.8206871369328042
 31
0.0
  0
LINE
  5
BB
100
AcDbEntity
  8
measurements
 62
256
370
-1
 48
1.0
  6
BYLAYER
100
AcDbLine
 10
-77.0
 20
70.1793128630671958
 30
0.0
 11
-77.0
 21
69.8206871369328042
 31
0.0
  0
LINE
  5
BC
100
AcDbEntity
  8
measurements
 62
256
370
-1
 48
1.0
  6
BYLAYER
100
AcDbLine
 10
-76.0
 20
70.1793128630671958
 30
0.0
 11
-76.0
 21
69.8206871369328042
 31
0.0
  0
LINE
  5
BD
100
AcDbEntity
  8
measurements
 62
256
370
-1
 48
1.0
  6
BYLAYER
100
AcDbLine
 10
-75.0
 20
70.1793128630671958
 30
0.0
 11
-75.0
 21
69.8206871369328042
 31
0.0
  0
LINE
  5
BE
100
AcDbEntity
  8
measurements
 62
256
370
-1
 48
1.0
  6
BYLAYER
100
AcDbLine
 10
-74.0
 20
70.1793128630671958
 30
0.0
 11
-74.0
 21
69.8206871369328042
 31
0.0
  0
LINE
  5
BF
100
AcDbEntity
  8
measurements
 62
256
370
-1
 48
1.0
  6
BYLAYER
100
AcDbLine
 10
-73.0
 20
70.1793128630671958
 30
0.0
 11
-73.0
 21
69.8206871369328042
 31
0.0
  0
LINE
  5
C0
100
AcDbEntity
  8
measurements
 62
256
370
-1
 48
1.0
  6
BYLAYER
100
AcDbLine
 10
-72.0
 20
70.1793128630671958
 30
0.0
 11
-72.0
 21
69.8206871369328042
 31
0.0
  0
LINE
  5
C1
100
AcDbEntity
  8
measurements
 62
256
370
-1
 48
1.0
  6
BYLAYER
100
AcDbLine
 10
-71.0
 20
70.1793128630671958
 30
0.0
 11
-71.0
 21
69.8206871369328042
 31
0.0
  0
LINE
  5
C2
100
AcDbEntity
  8
measurements
 62
256
370
-1
 48
1.0
  6
BYLAYER
100
AcDbLine
 10
-70.0
 20
70.1793128630671958
 30
0.0
 11
-70.0
 21
69.8206871369328042
 31
0.0
  0
LINE
  5
C3
100
AcDbEntity
  8
measurements
 62
256
370
-1
 48
1.0
  6
BYLAYER
100
AcDbLine
 10
-69.0
 20
70.1793128630671958
 30
0.0
 11
-69.0
 21
69.8206871369328042
 31
0.0
  0
LINE
  5
C4
100
AcDbEntity
  8
measurements
 62
256
370
-1
 48
1.0
  6
BYLAYER
100
AcDbLine
 10
-68.0
 20
70.1793128630671958
 30
0.0
 11
-68.0
 21
69.8206871369328042
 31
0.0
  0
LINE
  5
C5
100
AcDbEntity
  8
measurements
 62
256
370
-1
 48
1.0
  6
BYLAYER
100
AcDbLine
 10
-67.0
 20
70.1793128630671958
 30
0.0
 11
-67.0
 21
69.8206871369328042
 31
0.0
  0
LINE
  5
C6
100
AcDbEntity
  8
measurements
 62
256
370
-1
 48
1.0
  6
BYLAYER
100
AcDbLine
 10
-66.0
 20
70.1793128630671958
 30
0.0
 11
-66.0
 21
69.8206871369328042
 31
0.0
  0
LINE
  5
C7
100
AcDbEntity
  8
measurements
 62
256
370
-1
 48
1.0
  6
BYLAYER
100
AcDbLine
 10
-65.0
 20
70.1793128630671958
 30
0.0
 11
-65.0
 21
69.8206871369328042
 31
0.0
  0
LINE
  5
C8
100
AcDbEntity
  8
measurements
 62
256
370
-1
 48
1.0
  6
BYLAYER
100
AcDbLine
 10
-64.0
 20
70.1793128630671958
 30
0.0
 11
-64.0
 21
69.8206871369328042
 31
0.0
  0
LINE
  5
C9
100
AcDbEntity
  8
measurements
 62
256
370
-1
 48
1.0
  6
BYLAYER
100
AcDbLine
 10
-63.0
 20
70.1793128630671958
 30
0.0
 11
-63.0
 21
69.8206871369328042
 31
0.0
  0
LINE
  5
CA
100
AcDbEntity
  8
measurements
 62
256
370
-1
 48
1.0
  6
BYLAYER
100
AcDbLine
 10
-62.0
 20
70.1793128630671958
 30
0.0
 11
-62.0
 21
69.8206871369328042
 31
0.0
  0
LINE
  5
CB
100
AcDbEntity
  8
measurements
 62
256
370
-1
 48
1.0
  6
BYLAYER
100
AcDbLine
 10
-61.0
 20
70.1793128630671958
 30
0.0
 11
-61.0
 21
69.8206871369328042
 31
0.0
  0
LINE
  5
CC
100
AcDbEntity
  8
measurements
 62
256
370
-1
 48
1.0
  6
BYLAYER
100
AcDbLine
 10
-60.0
 20
70.1793128630671958
 30
0.0
 11
-60.0
 21
69.8206871369328042
 31
0.0
  0
LINE
  5
CD
100
AcDbEntity
  8
measurements
 62
256
370
-1
 48
1.0
  6
BYLAYER
100
AcDbLine
 10
-59.0
 20
70.1793128630671958
 30
0.0
 11
-59.0
 21
69.8206871369328042
 31
0.0
  0
LINE
  5
CE
100
AcDbEntity
  8
measurements
 62
256
370
-1
 48
1.0
  6
BYLAYER
100
AcDbLine
 10
-58.0
 20
70.1793128630671958
 30
0.0
 11
-58.0
 21
69.8206871369328042
 31
0.0
  0
LINE
  5
CF
100
AcDbEntity
  8
measurements
 62
256
370
-1
 48
1.0
  6
BYLAYER
100
AcDbLine
 10
-57.0
 20
70.1793128630671958
 30
0.0
 11
-57.0
 21
69.8206871369328042
 31
0.0
  0
LINE
  5
D0
100
AcDbEntity
  8
measurements
 62
256
370
-1
 48
1.0
  6
BYLAYER
100
AcDbLine
 10
-56.0
 20
70.1793128630671958
 30
0.0
 11
-56.0
 21
69.8206871369328042
 31
0.0
  0
LINE
  5
D1
100
AcDbEntity
  8
measurements
 62
256
370
-1
 48
1.0
  6
BYLAYER
100
AcDbLine
 10
-55.0
 20
70.1793128630671958
 30
0.0
 11
-55.0
 21
69.8206871369328042
 31
0.0
  0
LINE
  5
D2
100
AcDbEntity
  8
measurements
 62
256
370
-1
 48
1.0
  6
BYLAYER
100
AcDbLine
 10
-54.0
 20
70.1793128630671958
 30
0.0
 11
-54.0
 21
69.8206871369328042
 31
0.0
  0
LINE
  5
D3
100
AcDbEntity
  8
measurements
 62
256
370
-1
 48
1.0
  6
BYLAYER
100
AcDbLine
 10
-53.0
 20
70.1793128630671958
 30
0.0
 11
-53.0
 21
69.8206871369328042
 31
0.0
  0
LINE
  5
D4
100
AcDbEntity
  8
measurements
 62
256
370
-1
 48
1.0
  6
BYLAYER
100
AcDbLine
 10
-52.0
 20
70.1793128630671958
 30
0.0
 11
-52.0
 21
69.8206871369328042
 31
0.0
  0
LINE
  5
D5
100
AcDbEntity
  8
measurements
 62
256
370
-1
 48
1.0
  6
BYLAYER
100
AcDbLine
 10
-51.0
 20
70.1793128630671958
 30
0.0
 11
-51.0
 21
69.8206871369328042
 31
0.0
  0
LINE
  5
D6
100
AcDbEntity
  8
measurements
 62
256
370
-1
 48
1.0
  6
BYLAYER
100
AcDbLine
 10
-50.0
 20
70.1793128630671958
 30
0.0
 11
-50.0
 21
69.8206871369328042
 31
0.0
  0
LINE
  5
D7
100
AcDbEntity
  8
measurements
 62
256
370
-1
 48
1.0
  6
BYLAYER
100
AcDbLine
 10
-49.0
 20
70.1793128630671958
 30
0.0
 11
-49.0
 21
69.8206871369328042
 31
0.0
  0
LINE
  5
D8
100
AcDbEntity
  8
measurements
 62
256
370
-1
 48
1.0
  6
BYLAYER
100
AcDbLine
 10
-48.0
 20
70.1793128630671958
 30
0.0
 11
-48.0
 21
69.8206871369328042
 31
0.0
  0
LINE
  5
D9
100
AcDbEntity
  8
measurements
 62
256
370
-1
 48
1.0
  6
BYLAYER
100
AcDbLine
 10
-47.0
 20
70.1793128630671958
 30
0.0
 11
-47.0
 21
69.8206871369328042
 31
0.0
  0
LINE
  5
DA
100
AcDbEntity
  8
measurements
 62
256
370
-1
 48
1.0
  6
BYLAYER
100
AcDbLine
 10
-46.0
 20
70.1793128630671958
 30
0.0
 11
-46.0
 21
69.8206871369328042
 31
0.0
  0
LINE
  5
DB
100
AcDbEntity
  8
measurements
 62
256
370
-1
 48
1.0
  6
BYLAYER
100
AcDbLine
 10
-45.0
 20
70.1793128630671958
 30
0.0
 11
-45.0
 21
69.8206871369328042
 31
0.0
  0
LINE
  5
DC
100
AcDbEntity
  8
measurements
 62
256
370
-1
 48
1.0
  6
BYLAYER
100
AcDbLine
 10
-44.0
 20
70.1793128630671958
 30
0.0
 11
-44.0
 21
69.8206871369328042
 31
0.0
  0
LINE
  5
DD
100
AcDbEntity
  8
measurements
 62
256
370
-1
 48
1.0
  6
BYLAYER
100
AcDbLine
 10
-43.0
 20
70.1793128630671958
 30
0.0
 11
-43.0
 21
69.8206871369328042
 31
0.0
  0
LINE
  5
DE
100
AcDbEntity
  8
measurements
 62
256
370
-1
 48
1.0
  6
BYLAYER
100
AcDbLine
 10
-42.0
 20
70.1793128630671958
 30
0.0
 11
-42.0
 21
69.8206871369328042
 31
0.0
  0
LINE
  5
DF
100
AcDbEntity
  8
measurements
 62
256
370
-1
 48
1.0
  6
BYLAYER
100
AcDbLine
 10
-41.0
 20
70.1793128630671958
 30
0.0
 11
-41.0
 21
69.8206871369328042
 31
0.0
  0
LINE
  5
E0
100
AcDbEntity
  8
measurements
 62
256
370
-1
 48
1.0
  6
BYLAYER
100
AcDbLine
 10
-40.0
 20
70.1793128630671958
 30
0.0
 11
-40.0
 21
69.8206871369328042
 31
0.0
  0
LINE
  5
E1
100
AcDbEntity
  8
measurements
 62
256
370
-1
 48
1.0
  6
BYLAYER
100
AcDbLine
 10
-39.0
 20
70.1793128630671958
 30
0.0
 11
-39.0
 21
69.8206871369328042
 31
0.0
  0
LINE
  5
E2
100
AcDbEntity
  8
measurements
 62
256
370
-1
 48
1.0
  6
BYLAYER
100
AcDbLine
 10
-38.0
 20
70.1793128630671958
 30
0.0
 11
-38.0
 21
69.8206871369328042
 31
0.0
  0
LINE
  5
E3
100
AcDbEntity
  8
measurements
 62
256
370
-1
 48
1.0
  6
BYLAYER
100
AcDbLine
 10
-37.0
 20
70.1793128630671958
 30
0.0
 11
-37.0
 21
69.8206871369328042
 31
0.0
  0
LINE
  5
E4
100
AcDbEntity
  8
measurements
 62
256
370
-1
 48
1.0
  6
BYLAYER
100
AcDbLine
 10
-36.0
 20
70.1793128630671958
 30
0.0
 11
-36.0
 21
69.8206871369328042
 31
0.0
  0
LINE
  5
E5
100
AcDbEntity
  8
measurements
 62
256
370
-1
 48
1.0
  6
BYLAYER
100
AcDbLine
 10
-35.0
 20
70.1793128630671958
 30
0.0
 11
-35.0
 21
69.8206871369328042
 31
0.0
  0
LINE
  5
E6
100
AcDbEntity
  8
measurements
 62
256
370
-1
 48
1.0
  6
BYLAYER
100
AcDbLine
 10
-34.0
 20
70.1793128630671958
 30
0.0
 11
-34.0
 21
69.8206871369328042
 31
0.0
  0
LINE
  5
E7
100
AcDbEntity
  8
measurements
 62
256
370
-1
 48
1.0
  6
BYLAYER
100
AcDbLine
 10
-33.0
 20
70.1793128630671958
 30
0.0
 11
-33.0
 21
69.8206871369328042
 31
0.0
  0
LINE
  5
E8
100
AcDbEntity
  8
measurements
 62
256
370
-1
 48
1.0
  6
BYLAYER
100
AcDbLine
 10
-32.0
 20
70.1793128630671958
 30
0.0
 11
-32.0
 21
69.8206871369328042
 31
0.0
  0
LINE
  5
E9
100
AcDbEntity
  8
measurements
 62
256
370
-1
 48
1.0
  6
BYLAYER
100
AcDbLine
 10
-31.0
 20
70.1793128630671958
 30
0.0
 11
-31.0
 21
69.8206871369328042
 31
0.0
  0
LINE
  5
EA
100
AcDbEntity
  8
measurements
 62
256
370
-1
 48
1.0
  6
BYLAYER
100
AcDbLine
 10
-30.0
 20
70.1793128630671958
 30
0.0
 11
-30.0
 21
69.8206871369328042
 31
0.0
  0
LINE
  5
EB
100
AcDbEntity
  8
measurements
 62
256
370
-1
 48
1.0
  6
BYLAYER
100
AcDbLine
 10
-29.0
 20
70.1793128630671958
 30
0.0
 11
-29.0
 21
69.8206871369328042
 31
0.0
  0
LINE
  5
EC
100
AcDbEntity
  8
measurements
 62
256
370
-1
 48
1.0
  6
BYLAYER
100
AcDbLine
 10
-28.0
 20
70.1793128630671958
 30
0.0
 11
-28.0
 21
69.8206871369328042
 31
0.0
  0
LINE
  5
ED
100
AcDbEntity
  8
measurements
 62
256
370
-1
 48
1.0
  6
BYLAYER
100
AcDbLine
 10
-27.0
 20
70.1793128630671958
 30
0.0
 11
-27.0
 21
69.8206871369328042
 31
0.0
  0
LINE
  5
EE
100
AcDbEntity
  8
measurements
 62
256
370
-1
 48
1.0
  6
BYLAYER
100
AcDbLine
 10
-26.0
 20
70.1793128630671958
 30
0.0
 11
-26.0
 21
69.8206871369328042
 31
0.0
  0
LINE
  5
EF
100
AcDbEntity
  8
measurements
 62
256
370
-1
 48
1.0
  6
BYLAYER
100
AcDbLine
 10
-25.0
 20
70.1793128630671958
 30
0.0
 11
-25.0
 21
69.8206871369328042
 31
0.0
  0
LINE
  5
F0
100
AcDbEntity
  8
measurements
 62
256
370
-1
 48
1.0
  6
BYLAYER
100
AcDbLine
 10
-24.0
 20
70.1793128630671958
 30
0.0
 11
-24.0
 21
69.8206871369328042
 31
0.0
  0
LINE
  5
F1
100
AcDbEntity
  8
measurements
 62
256
370
-1
 48
1.0
  6
BYLAYER
100
AcDbLine
 10
-23.0
 20
70.1793128630671958
 30
0.0
 11
-23.0
 21
69.8206871369328042
 31
0.0
  0
LINE
  5
F2
100
AcDbEntity
  8
measurements
 62
256
370
-1
 48
1.0
  6
BYLAYER
100
AcDbLine
 10
-22.0
 20
70.1793128630671958
 30
0.0
 11
-22.0
 21
69.8206871369328042
 31
0.0
  0
LINE
  5
F3
100
AcDbEntity
  8
measurements
 62
256
370
-1
 48
1.0
  6
BYLAYER
100
AcDbLine
 10
-21.0
 20
70.1793128630671958
 30
0.0
 11
-21.0
 21
69.8206871369328042
 31
0.0
  0
LINE
  5
F4
100
AcDbEntity
  8
measurements
 62
256
370
-1
 48
1.0
  6
BYLAYER
100
AcDbLine
 10
-20.0
 20
70.1793128630671958
 30
0.0
 11
-20.0
 21
69.8206871369328042
 31
0.0
  0
LINE
  5
F5
100
AcDbEntity
  8
measurements
 62
256
370
-1
 48
1.0
  6
BYLAYER
100
AcDbLine
 10
-19.0
 20
70.1793128630671958
 30
0.0
 11
-19.0
 21
69.8206871369328042
 31
0.0
  0
LINE
  5
F6
100
AcDbEntity
  8
measurements
 62
256
370
-1
 48
1.0
  6
BYLAYER
100
AcDbLine
 10
-18.0
 20
70.1793128630671958
 30
0.0
 11
-18.0
 21
69.8206871369328042
 31
0.0
  0
LINE
  5
F7
100
AcDbEntity
  8
measurements
 62
256
370
-1
 48
1.0
  6
BYLAYER
100
AcDbLine
 10
-17.0
 20
70.1793128630671958
 30
0.0
 11
-17.0
 21
69.8206871369328042
 31
0.0
  0
LINE
  5
F8
100
AcDbEntity
  8
measurements
 62
256
370
-1
 48
1.0
  6
BYLAYER
100
AcDbLine
 10
-16.0
 20
70.1793128630671958
 30
0.0
 11
-16.0
 21
69.8206871369328042
 31
0.0
  0
LINE
  5
F9
100
AcDbEntity
  8
measurements
 62
256
370
-1
 48
1.0
  6
BYLAYER
100
AcDbLine
 10
-15.0
 20
70.1793128630671958
 30
0.0
 11
-15.0
 21
69.8206871369328042
 31
0.0
  0
LINE
  5
FA
100
AcDbEntity
  8
measurements
 62
256
370
-1
 48
1.0
  6
BYLAYER
100
AcDbLine
 10
-14.0
 20
70.1793128630671958
 30
0.0
 11
-14.0
 21
69.8206871369328042
 31
0.0
  0
LINE
  5
FB
100
AcDbEntity
  8
measurements
 62
256
370
-1
 48
1.0
  6
BYLAYER
100
AcDbLine
 10
-13.0
 20
70.1793128630671958
 30
0.0
 11
-13.0
 21
69.8206871369328042
 31
0.0
  0
LINE
  5
FC
100
AcDbEntity
  8
measurements
 62
256
370
-1
 48
1.0
  6
BYLAYER
100
AcDbLine
 10
-12.0
 20
70.1793128630671958
 30
0.0
 11
-12.0
 21
69.8206871369328042
 31
0.0
  0
LINE
  5
FD
100
AcDbEntity
  8
measurements
 62
256
370
-1
 48
1.0
  6
BYLAYER
100
AcDbLine
 10
-11.0
 20
70.1793128630671958
 30
0.0
 11
-11.0
 21
69.8206871369328042
 31
0.0
  0
LINE
  5
FE
100
AcDbEntity
  8
measurements
 62
256
370
-1
 48
1.0
  6
BYLAYER
100
AcDbLine
 10
-10.0
 20
70.1793128630671958
 30
0.0
 11
-10.0
 21
69.8206871369328042
 31
0.0
  0
LINE
  5
FF
100
AcDbEntity
  8
measurements
 62
256
370
-1
 48
1.0
  6
BYLAYER
100
AcDbLine
 10
-9.0
 20
70.1793128630671958
 30
0.0
 11
-9.0
 21
69.8206871369328042
 31
0.0
  0
LINE
  5
100
100
AcDbEntity
  8
measurements
 62
256
370
-1
 48
1.0
  6
BYLAYER
100
AcDbLine
 10
-8.0
 20
70.1793128630671958
 30
0.0
 11
-8.0
 21
69.8206871369328042
 31
0.0
  0
LINE
  5
101
100
AcDbEntity
  8
measurements
 62
256
370
-1
 48
1.0
  6
BYLAYER
100
AcDbLine
 10
-7.0
 20
70.1793128630671958
 30
0.0
 11
-7.0
 21
69.8206871369328042
 31
0.0
  0
LINE
  5
102
100
AcDbEntity
  8
measurements
 62
256
370
-1
 48
1.0
  6
BYLAYER
100
AcDbLine
 10
-6.0
 20
70.1793128630671958
 30
0.0
 11
-6.0
 21
69.8206871369328042
 31
0.0
  0
LINE
  5
103
100
AcDbEntity
  8
measurements
 62
256
370
-1
 48
1.0
  6
BYLAYER
100
AcDbLine
 10
-5.0
 20
70.1793128630671958
 30
0.0
 11
-5.0
 21
69.8206871369328042
 31
0.0
  0
LINE
  5
104
100
AcDbEntity
  8
measurements
 62
256
370
-1
 48
1.0
  6
BYLAYER
100
AcDbLine
 10
-4.0
 20
70.1793128630671958
 30
0.0
 11
-4.0
 21
69.8206871369328042
 31
0.0
  0
LINE
  5
105
100
AcDbEntity
  8
measurements
 62
256
370
-1
 48
1.0
  6
BYLAYER
100
AcDbLine
 10
-3.0
 20
70.1793128630671958
 30
0.0
 11
-3.0
 21
69.8206871369328042
 31
0.0
  0
LINE
  5
106
100
AcDbEntity
  8
measurements
 62
256
370
-1
 48
1.0
  6
BYLAYER
100
AcDbLine
 10
-2.0
 20
70.1793128630671958
 30
0.0
 11
-2.0
 21
69.8206871369328042
 31
0.0
  0
LINE
  5
107
100
AcDbEntity
  8
measurements
 62
256
370
-1
 48
1.0
  6
BYLAYER
100
AcDbLine
 10
-1.0
 20
70.1793128630671958
 30
0.0
 11
-1.0
 21
69.8206871369328042
 31
0.0
  0
LINE
  5
108
100
AcDbEntity
  8
measurements
 62
256
370
-1
 48
1.0
  6
BYLAYER
100
AcDbLine
 10
0.0
 20
70.1793128630671958
 30
0.0
 11
-0.0
 21
69.8206871369328042
 31
0.0
  0
LINE
  5
109
100
AcDbEntity
  8
measurements
 62
256
370
-1
 48
1.0
  6
BYLAYER
100
AcDbLine
 10
1.0
 20
70.1793128630671958
 30
0.0
 11
1.0
 21
69.8206871369328042
 31
0.0
  0
LINE
  5
10A
100
AcDbEntity
  8
measurements
 62
256
370
-1
 48
1.0
  6
BYLAYER
100
AcDbLine
 10
2.0
 20
70.1793128630671958
 30
0.0
 11
2.0
 21
69.8206871369328042
 31
0.0
  0
LINE
  5
10B
100
AcDbEntity
  8
measurements
 62
256
370
-1
 48
1.0
  6
BYLAYER
100
AcDbLine
 10
3.0
 20
70.1793128630671958
 30
0.0
 11
3.0
 21
69.8206871369328042
 31
0.0
  0
LINE
  5
10C
100
AcDbEntity
  8
measurements
 62
256
370
-1
 48
1.0
  6
BYLAYER
100
AcDbLine
 10
4.0
 20
70.1793128630671958
 30
0.0
 11
4.0
 21
69.8206871369328042
 31
0.0
  0
LINE
  5
10D
100
AcDbEntity
  8
measurements
 62
256
370
-1
 48
1.0
  6
BYLAYER
100
AcDbLine
 10
5.0
 20
70.1793128630671958
 30
0.0
 11
5.0
 21
69.8206871369328042
 31
0.0
  0
LINE
  5
10E
100
AcDbEntity
  8
measurements
 62
256
370
-1
 48
1.0
  6
BYLAYER
100
AcDbLine
 10
6.0
 20
70.1793128630671958
 30
0.0
 11
6.0
 21
69.8206871369328042
 31
0.0
  0
LINE
  5
10F
100
AcDbEntity
  8
measurements
 62
256
370
-1
 48
1.0
  6
BYLAYER
100
AcDbLine
 10
7.0
 20
70.1793128630671958
 30
0.0
 11
7.0
 21
69.8206871369328042
 31
0.0
  0
LINE
  5
110
100
AcDbEntity
  8
measurements
 62
256
370
-1
 48
1.0
  6
BYLAYER
100
AcDbLine
 10
8.0
 20
70.1793128630671958
 30
0.0
 11
8.0
 21
69.8206871369328042
 31
0.0
  0
LINE
  5
111
100
AcDbEntity
  8
measurements
 62
256
370
-1
 48
1.0
  6
BYLAYER
100
AcDbLine
 10
9.0
 20
70.1793128630671958
 30
0.0
 11
9.0
 21
69.8206871369328042
 31
0.0
  0
LINE
  5
112
100
AcDbEntity
  8
measurements
 62
256
370
-1
 48
1.0
  6
BYLAYER
100
AcDbLine
 10
10.0
 20
70.1793128630671958
 30
0.0
 11
10.0
 21
69.8206871369328042
 31
0.0
  0
LINE
  5
113
100
AcDbEntity
  8
measurements
 62
256
370
-1
 48
1.0
  6
BYLAYER
100
AcDbLine
 10
11.0
 20
70.1793128630671958
 30
0.0
 11
11.0
 21
69.8206871369328042
 31
0.0
  0
LINE
  5
114
100
AcDbEntity
  8
measurements
 62
256
370
-1
 48
1.0
  6
BYLAYER
100
AcDbLine
 10
12.0
 20
70.1793128630671958
 30
0.0
 11
12.0
 21
69.8206871369328042
 31
0.0
  0
LINE
  5
115
100
AcDbEntity
  8
measurements
 62
256
370
-1
 48
1.0
  6
BYLAYER
100
AcDbLine
 10
13.0
 20
70.1793128630671958
 30
0.0
 11
13.0
 21
69.8206871369328042
 31
0.0
  0
LINE
  5
116
100
AcDbEntity
  8
measurements
 62
256
370
-1
 48
1.0
  6
BYLAYER
100
AcDbLine
 10
14.0
 20
70.1793128630671958
 30
0.0
 11
14.0
 21
69.8206871369328042
 31
0.0
  0
LINE
  5
117
100
AcDbEntity
  8
measurements
 62
256
370
-1
 48
1.0
  6
BYLAYER
100
AcDbLine
 10
15.0
 20
70.1793128630671958
 30
0.0
 11
15.0
 21
69.8206871369328042
 31
0.0
  0
LINE
  5
118
100
AcDbEntity
  8
measurements
 62
256
370
-1
 48
1.0
  6
BYLAYER
100
AcDbLine
 10
16.0
 20
70.1793128630671958
 30
0.0
 11
16.0
 21
69.8206871369328042
 31
0.0
  0
LINE
  5
119
100
AcDbEntity
  8
measurements
 62
256
370
-1
 48
1.0
  6
BYLAYER
100
AcDbLine
 10
17.0
 20
70.1793128630671958
 30
0.0
 11
17.0
 21
69.8206871369328042
 31
0.0
  0
LINE
  5
11A
100
AcDbEntity
  8
measurements
 62
256
370
-1
 48
1.0
  6
BYLAYER
100
AcDbLine
 10
18.0
 20
70.1793128630671958
 30
0.0
 11
18.0
 21
69.8206871369328042
 31
0.0
  0
LINE
  5
11B
100
AcDbEntity
  8
measurements
 62
256
370
-1
 48
1.0
  6
BYLAYER
100
AcDbLine
 10
19.0
 20
70.1793128630671958
 30
0.0
 11
19.0
 21
69.8206871369328042
 31
0.0
  0
LINE
  5
11C
100
AcDbEntity
  8
measurements
 62
256
370
-1
 48
1.0
  6
BYLAYER
100
AcDbLine
 10
-83.0
 20
70.4482821576679896
 30
0.0
 11
-83.0
 21
69.5517178423320104
 31
0.0
  0
LINE
  5
11D
100
AcDbEntity
  8
measurements
 62
256
370
-1
 48
1.0
  6
BYLAYER
100
AcDbLine
 10
-73.0
 20
70.4482821576679896
 30
0.0
 11
-73.0
 21
69.5517178423320104
 31
0.0
  0
LINE
  5
11E
100
AcDbEntity
  8
measurements
 62
256
370
-1
 48
1.0
  6
BYLAYER
100
AcDbLine
 10
-63.0
 20
70.4482821576679896
 30
0.0
 11
-63.0
 21
69.5517178423320104
 31
0.0
  0
LINE
  5
11F
100
AcDbEntity
  8
measurements
 62
256
370
-1
 48
1.0
  6
BYLAYER
100
AcDbLine
 10
-53.0
 20
70.4482821576679896
 30
0.0
 11
-53.0
 21
69.5517178423320104
 31
0.0
  0
LINE
  5
120
100
AcDbEntity
  8
measurements
 62
256
370
-1
 48
1.0
  6
BYLAYER
100
AcDbLine
 10
-43.0
 20
70.4482821576679896
 30
0.0
 11
-43.0
 21
69.5517178423320104
 31
0.0
  0
LINE
  5
121
100
AcDbEntity
  8
measurements
 62
256
370
-1
 48
1.0
  6
BYLAYER
100
AcDbLine
 10
-33.0
 20
70.4482821576679896
 30
0.0
 11
-33.0
 21
69.5517178423320104
 31
0.0
  0
LINE
  5
122
100
AcDbEntity
  8
measurements
 62
256
370
-1
 48
1.0
  6
BYLAYER
100
AcDbLine
 10
-23.0
 20
70.4482821576679896
 30
0.0
 11
-23.0
 21
69.5517178423320104
 31
0.0
  0
LINE
  5
123
100
AcDbEntity
  8
measurements
 62
256
370
-1
 48
1.0
  6
BYLAYER
100
AcDbLine
 10
-13.0
 20
70.4482821576679896
 30
0.0
 11
-13.0
 21
69.5517178423320104
 31
0.0
  0
LINE
  5
124
100
AcDbEntity
  8
measurements
 62
256
370
-1
 48
1.0
  6
BYLAYER
100
AcDbLine
 10
-3.0
 20
70.4482821576679896
 30
0.0
 11
-3.0
 21
69.5517178423320104
 31
0.0
  0
LINE
  5
125
100
AcDbEntity
  8
measurements
 62
256
370
-1
 48
1.0
  6
BYLAYER
100
AcDbLine
 10
7.0
 20
70.4482821576679896
 30
0.0
 11
7.0
 21
69.5517178423320104
 31
0.0
  0
LINE
  5
126
100
AcDbEntity
  8
measurements
 62
256
370
-1
 48
1.0
  6
BYLAYER
100
AcDbLine
 10
17.0
 20
70.4482821576679896
 30
0.0
 11
17.0
 21
69.5517178423320104
 31
0.0
  0
MTEXT
  5
127
100
AcDbEntity
  8
measurements
 62
256
370
-1
 48
1.0
  6
BYLAYER
100
AcDbMText
 10
22.0
 20
74.7999999999999972
 30
0.0
 40
4.0
 41
0.0
 71
1
 72
1
  1
113
  7
textstyle10
 50
0.0
 73
2
 44
1.0
  0
LINE
  5
128
100
AcDbEntity
  8
measurements
 62
256
370
-1
 48
1.0
  6
BYLAYER
100
AcDbLine
 10
49.0
 20
70.0
 30
0.0
 11
61.0
 21
70.0
 31
0.0
  0
LINE
  5
129
100
AcDbEntity
  8
measurements
 62
256
370
-1
 48
1.0
  6
BYLAYER
100
AcDbLine
 10
49.0
 20
70.4482821576679896
 30
0.0
 11
49.0
 21
69.5517178423320104
 31
0.0
  0
LINE
  5
12A
100
AcDbEntity
  8
measurements
 62
256
370
-1
 48
1.0
  6
BYLAYER
100
AcDbLine
 10
61.0
 20
70.4482821576679896
 30
0.0
 11
61.0
 21
69.5517178423320104
 31
0.0
  0
LINE
  5
12B
100
AcDbEntity
  8
measurements
 62
256
370
-1
 48
1.0
  6
BYLAYER
100
AcDbLine
 10
50.0
 20
70.1793128630671958
 30
0.0
 11
50.0
 21
69.8206871369328042
 31
0.0
  0
LINE
  5
12C
100
AcDbEntity
  8
measurements
 62
256
370
-1
 48
1.0
  6
BYLAYER
100
AcDbLine
 10
51.0
 20
70.1793128630671958
 30
0.0
 11
51.0
 21
69.8206871369328042
 31
0.0
  0
LINE
  5
12D
100
AcDbEntity
  8
measurements
 62
256
370
-1
 48
1.0
  6
BYLAYER
100
AcDbLine
 10
52.0
 20
70.1793128630671958
 30
0.0
 11
52.0
 21
69.8206871369328042
 31
0.0
  0
LINE
  5
12E
100
AcDbEntity
  8
measurements
 62
256
370
-1
 48
1.0
  6
BYLAYER
100
AcDbLine
 10
53.0
 20
70.1793128630671958
 30
0.0
 11
53.0
 21
69.8206871369328042
 31
0.0
  0
LINE
  5
12F
100
AcDbEntity
  8
measurements
 62
256
370
-1
 48
1.0
  6
BYLAYER
100
AcDbLine
 10
54.0
 20
70.1793128630671958
 30
0.0
 11
54.0
 21
69.8206871369328042
 31
0.0
  0
LINE
  5
130
100
AcDbEntity
  8
measurements
 62
256
370
-1
 48
1.0
  6
BYLAYER
100
AcDbLine
 10
55.0
 20
70.1793128630671958
 30
0.0
 11
55.0
 21
69.8206871369328042
 31
0.0
  0
LINE
  5
131
100
AcDbEntity
  8
measurements
 62
256
370
-1
 48
1.0
  6
BYLAYER
100
AcDbLine
 10
56.0
 20
70.1793128630671958
 30
0.0
 11
56.0
 21
69.8206871369328042
 31
0.0
  0
LINE
  5
132
100
AcDbEntity
  8
measurements
 62
256
370
-1
 48
1.0
  6
BYLAYER
100
AcDbLine
 10
57.0
 20
70.1793128630671958
 30
0.0
 11
57.0
 21
69.8206871369328042
 31
0.0
  0
LINE
  5
133
100
AcDbEntity
  8
measurements
 62
256
370
-1
 48
1.0
  6
BYLAYER
100
AcDbLine
 10
58.0
 20
70.1793128630671958
 30
0.0
 11
58.0
 21
69.8206871369328042
 31
0.0
  0
LINE
  5
134
100
AcDbEntity
  8
measurements
 62
256
370
-1
 48
1.0
  6
BYLAYER
100
AcDbLine
 10
59.0
 20
70.1793128630671958
 30
0.0
 11
59.0
 21
69.8206871369328042
 31
0.0
  0
LINE
  5
135
100
AcDbEntity
  8
measurements
 62
256
370
-1
 48
1.0
  6
BYLAYER
100
AcDbLine
 10
60.0
 20
70.1793128630671958
 30
0.0
 11
60.0
 21
69.8206871369328042
 31
0.0
  0
LINE
  5
136
100
AcDbEntity
  8
measurements
 62
256
370
-1
 48
1.0
  6
BYLAYER
100
AcDbLine
 10
59.0
 20
70.4482821576679896
 30
0.0
 11
59.0
 21
69.5517178423320104
 31
0.0
  0
MTEXT
  5
137
100
AcDbEntity
  8
measurements
 62
256
370
-1
 48
1.0
  6
BYLAYER
100
AcDbMText
 10
63.0
 20
74.7999999999999972
 30
0.0
 40
4.0
 41
0.0
 71
1
 72
1
  1
12
  7
textstyle5
 50
0.0
 73
2
 44
1.0
  0
LINE
  5
138
100
AcDbEntity
  8
measurements
 62
256
370
-1
 48
1.0
  6
BYLAYER
100
AcDbLine
 10
20.0
 20
17.0
 30
0.0
 11
-1.0
 21
17.0
 31
0.0
  0
LINE
  5
139
100
AcDbEntity
  8
measurements
 62
256
370
-1
 48
1.0
  6
BYLAYER
100
AcDbLine
 10
20.0
 20
16.5517178423320068
 30
0.0
 11
20.0
 21
17.4482821576679932
 31
0.0
  0
LINE
  5
13A
100
AcDbEntity
  8
measurements
 62
256
370
-1
 48
1.0
  6
BYLAYER
100
AcDbLine
 10
-1.0000000000000002
 20
16.5517178423320068
 30
0.0
 11
-0.9999999999999999
 21
17.4482821576679932
 31
0.0
  0
LINE
  5
13B
100
AcDbEntity
  8
measurements
 62
256
370
-1
 48
1.0
  6
BYLAYER
100
AcDbLine
 10
19.0
 20
16.8206871369328042
 30
0.0
 11
19.0
 21
17.1793128630671958
 31
0.0
  0
LINE
  5
13C
100
AcDbEntity
  8
measurements
 62
256
370
-1
 48
1.0
  6
BYLAYER
100
AcDbLine
 10
18.0
 20
16.8206871369328042
 30
0.0
 11
18.0
 21
17.1793128630671958
 31
0.0
  0
LINE
  5
13D
100
AcDbEntity
  8
measurements
 62
256
370
-1
 48
1.0
  6
BYLAYER
100
AcDbLine
 10
17.0
 20
16.8206871369328042
 30
0.0
 11
17.0
 21
17.1793128630671958
 31
0.0
  0
LINE
  5
13E
100
AcDbEntity
  8
measurements
 62
256
370
-1
 48
1.0
  6
BYLAYER
100
AcDbLine
 10
16.0
 20
16.8206871369328042
 30
0.0
 11
16.0
 21
17.1793128630671958
 31
0.0
  0
LINE
  5
13F
100
AcDbEntity
  8
measurements
 62
256
370
-1
 48
1.0
  6
BYLAYER
100
AcDbLine
 10
15.0
 20
16.8206871369328042
 30
0.0
 11
15.0
 21
17.1793128630671958
 31
0.0
  0
LINE
  5
140
100
AcDbEntity
  8
measurements
 62
256
370
-1
 48
1.0
  6
BYLAYER
100
AcDbLine
 10
14.0
 20
16.8206871369328042
 30
0.0
 11
14.0
 21
17.1793128630671958
 31
0.0
  0
LINE
  5
141
100
AcDbEntity
  8
measurements
 62
256
370
-1
 48
1.0
  6
BYLAYER
100
AcDbLine
 10
13.0
 20
16.8206871369328042
 30
0.0
 11
13.0
 21
17.1793128630671958
 31
0.0
  0
LINE
  5
142
100
AcDbEntity
  8
measurements
 62
256
370
-1
 48
1.0
  6
BYLAYER
100
AcDbLine
 10
12.0
 20
16.8206871369328042
 30
0.0
 11
12.0
 21
17.1793128630671958
 31
0.0
  0
LINE
  5
143
100
AcDbEntity
  8
measurements
 62
256
370
-1
 48
1.0
  6
BYLAYER
100
AcDbLine
 10
11.0
 20
16.8206871369328042
 30
0.0
 11
11.0
 21
17.1793128630671958
 31
0.0
  0
LINE
  5
144
100
AcDbEntity
  8
measurements
 62
256
370
-1
 48
1.0
  6
BYLAYER
100
AcDbLine
 10
10.0
 20
16.8206871369328042
 30
0.0
 11
10.0
 21
17.1793128630671958
 31
0.0
  0
LINE
  5
145
100
AcDbEntity
  8
measurements
 62
256
370
-1
 48
1.0
  6
BYLAYER
100
AcDbLine
 10
9.0
 20
16.8206871369328042
 30
0.0
 11
9.0
 21
17.1793128630671958
 31
0.0
  0
LINE
  5
146
100
AcDbEntity
  8
measurements
 62
256
370
-1
 48
1.0
  6
BYLAYER
100
AcDbLine
 10
8.0
 20
16.8206871369328042
 30
0.0
 11
8.0
 21
17.1793128630671958
 31
0.0
  0
LINE
  5
147
100
AcDbEntity
  8
measurements
 62
256
370
-1
 48
1.0
  6
BYLAYER
100
AcDbLine
 10
7.0
 20
16.8206871369328042
 30
0.0
 11
7.0
 21
17.1793128630671958
 31
0.0
  0
LINE
  5
148
100
AcDbEntity
  8
measurements
 62
256
370
-1
 48
1.0
  6
BYLAYER
100
AcDbLine
 10
6.0
 20
16.8206871369328042
 30
0.0
 11
6.0
 21
17.1793128630671958
 31
0.0
  0
LINE
  5
149
100
AcDbEntity
  8
measurements
 62
256
370
-1
 48
1.0
  6
BYLAYER
100
AcDbLine
 10
5.0
 20
16.8206871369328077
 30
0.0
 11
5.0
 21
17.1793128630671994
 31
0.0
  0
LINE
  5
14A
100
AcDbEntity
  8
measurements
 62
256
370
-1
 48
1.0
  6
BYLAYER
100
AcDbLine
 10
4.0
 20
16.8206871369328077
 30
0.0
 11
4.0
 21
17.1793128630671994
 31
0.0
  0
LINE
  5
14B
100
AcDbEntity
  8
measurements
 62
256
370
-1
 48
1.0
  6
BYLAYER
100
AcDbLine
 10
3.0
 20
16.8206871369328077
 30
0.0
 11
3.0
 21
17.1793128630671994
 31
0.0
  0
LINE
  5
14C
100
AcDbEntity
  8
measurements
 62
256
370
-1
 48
1.0
  6
BYLAYER
100
AcDbLine
 10
2.0
 20
16.8206871369328077
 30
0.0
 11
2.0
 21
17.1793128630671994
 31
0.0
  0
LINE
  5
14D
100
AcDbEntity
  8
measurements
 62
256
370
-1
 48
1.0
  6
BYLAYER
100
AcDbLine
 10
1.0
 20
16.8206871369328077
 30
0.0
 11
1.0
 21
17.1793128630671994
 31
0.0
  0
LINE
  5
14E
100
AcDbEntity
  8
measurements
 62
256
370
-1
 48
1.0
  6
BYLAYER
100
AcDbLine
 10
-0.0000000000000001
 20
16.8206871369328077
 30
0.0
 11
0.0000000000000001
 21
17.1793128630671994
 31
0.0
  0
LINE
  5
14F
100
AcDbEntity
  8
measurements
 62
256
370
-1
 48
1.0
  6
BYLAYER
100
AcDbLine
 10
10.0
 20
16.5517178423320068
 30
0.0
 11
10.0
 21
17.4482821576679932
 31
0.0
  0
LINE
  5
150
100
AcDbEntity
  8
measurements
 62
256
370
-1
 48
1.0
  6
BYLAYER
100
AcDbLine
 10
-0.0000000000000001
 20
16.5517178423320104
 30
0.0
 11
0.0000000000000001
 21
17.4482821576679967
 31
0.0
  0
MTEXT
  5
151
100
AcDbEntity
  8
measurements
 62
256
370
-1
 48
1.0
  6
BYLAYER
100
AcDbMText
 10
1.0
 20
21.8000000000000007
 30
0.0
 40
4.0
 41
0.0
 71
1
 72
1
  1
21
  7
textstyle4
 50
0.0
 73
2
 44
1.0
  0
LINE
  5
152
100
AcDbEntity
  8
measurements
 62
256
370
-1
 48
1.0
  6
BYLAYER
100
AcDbLine
 10
-80.0
 20
24.0
 30
0.0
 11
-80.0
 21
20.0
 31
0.0
  0
LINE
  5
153
100
AcDbEntity
  8
measurements
 62
256
370
-1
 48
1.0
  6
BYLAYER
100
AcDbLine
 10
-79.5517178423320104
 20
20.0
 30
0.0
 11
-80.4482821576679896
 21
20.0
 31
0.0
  0
LINE
  5
154
100
AcDbEntity
  8
measurements
 62
256
370
-1
 48
1.0
  6
BYLAYER
100
AcDbLine
 10
-79.8206871369328042
 20
23.0
 30
0.0
 11
-80.1793128630671958
 21
23.0
 31
0.0
  0
LINE
  5
155
100
AcDbEntity
  8
measurements
 62
256
370
-1
 48
1.0
  6
BYLAYER
100
AcDbLine
 10
-79.8206871369328042
 20
22.0
 30
0.0
 11
-80.1793128630671958
 21
22.0
 31
0.0
  0
LINE
  5
156
100
AcDbEntity
  8
measurements
 62
256
370
-1
 48
1.0
  6
BYLAYER
100
AcDbLine
 10
-79.8206871369328042
 20
21.0
 30
0.0
 11
-80.1793128630671958
 21
21.0
 31
0.0
  0
MTEXT
  5
157
100
AcDbEntity
  8
measurements
 62
256
370
-1
 48
1.0
  6
BYLAYER
100
AcDbMText
 10
-78.0
 20
24.8000000000000007
 30
0.0
 40
4.0
 41
0.0
 71
1
 72
1
  1
4
  7
textstyle6
 50
0.0
 73
2
 44
1.0
  0
LINE
  5
158
100
AcDbEntity
  8
measurements
 62
256
370
-1
 48
1.0
  6
BYLAYER
100
AcDbLine
 10
-79.0
 20
24.0
 30
0.0
 11
-92.0
 21
24.0
 31
0.0
  0
LINE
  5
159
100
AcDbEntity
  8
measurements
 62
256
370
-1
 48
1.0
  6
BYLAYER
100
AcDbLine
 10
-92.0
 20
25.0
 30
0.0
 11
-92.0
 21
23.0
 31
0.0
  0
LINE
  5
15A
100
AcDbEntity
  8
measurements
 62
256
370
-1
 48
1.0
  6
BYLAYER
100
AcDbLine
 10
-79.0
 20
23.0
 30
0.0
 11
-79.0
 21
25.0
 31
0.0
  0
LINE
  5
15B
100
AcDbEntity
  8
measurements
 62
256
370
-1
 48
1.0
  6
BYLAYER
100
AcDbLine
 10
20.0
 20
18.0
 30
0.0
 11
20.0
 21
16.0
 31
0.0
  0
LINE
  5
15C
100
AcDbEntity
  8
measurements
 62
256
370
-1
 48
1.0
  6
BYLAYER
100
AcDbLine
 10
-1.0
 20
18.0
 30
0.0
 11
-1.0
 21
16.0
 31
0.0
  0
LINE
  5
15D
100
AcDbEntity
  8
measurements
 62
256
370
-1
 48
1.0
  6
BYLAYER
100
AcDbLine
 10
20.0
 20
80.0
 30
0.0
 11
-1.0
 21
80.0
 31
0.0
  0
LINE
  5
15E
100
AcDbEntity
  8
measurements
 62
256
370
-1
 48
1.0
  6
BYLAYER
100
AcDbLine
 10
20.0
 20
79.7838145458777035
 30
0.0
 11
20.0
 21
80.2161854541222965
 31
0.0
  0
LINE
  5
15F
100
AcDbEntity
  8
measurements
 62
256
370
-1
 48
1.0
  6
BYLAYER
100
AcDbLine
 10
-1.0
 20
79.7838145458777035
 30
0.0
 11
-0.9999999999999999
 21
80.2161854541222965
 31
0.0
  0
LINE
  5
160
100
AcDbEntity
  8
measurements
 62
256
370
-1
 48
1.0
  6
BYLAYER
100
AcDbLine
 10
19.0
 20
79.9135258183510757
 30
0.0
 11
19.0
 21
80.0864741816489243
 31
0.0
  0
LINE
  5
161
100
AcDbEntity
  8
measurements
 62
256
370
-1
 48
1.0
  6
BYLAYER
100
AcDbLine
 10
18.0
 20
79.9135258183510757
 30
0.0
 11
18.0
 21
80.0864741816489243
 31
0.0
  0
LINE
  5
162
100
AcDbEntity
  8
measurements
 62
256
370
-1
 48
1.0
  6
BYLAYER
100
AcDbLine
 10
17.0
 20
79.9135258183510757
 30
0.0
 11
17.0
 21
80.0864741816489243
 31
0.0
  0
LINE
  5
163
100
AcDbEntity
  8
measurements
 62
256
370
-1
 48
1.0
  6
BYLAYER
100
AcDbLine
 10
16.0
 20
79.9135258183510757
 30
0.0
 11
16.0
 21
80.0864741816489243
 31
0.0
  0
LINE
  5
164
100
AcDbEntity
  8
measurements
 62
256
370
-1
 48
1.0
  6
BYLAYER
100
AcDbLine
 10
15.0
 20
79.9135258183510757
 30
0.0
 11
15.0
 21
80.0864741816489243
 31
0.0
  0
LINE
  5
165
100
AcDbEntity
  8
measurements
 62
256
370
-1
 48
1.0
  6
BYLAYER
100
AcDbLine
 10
14.0
 20
79.9135258183510757
 30
0.0
 11
14.0
 21
80.0864741816489243
 31
0.0
  0
LINE
  5
166
100
AcDbEntity
  8
measurements
 62
256
370
-1
 48
1.0
  6
BYLAYER
100
AcDbLine
 10
13.0
 20
79.9135258183510757
 30
0.0
 11
13.0
 21
80.0864741816489243
 31
0.0
  0
LINE
  5
167
100
AcDbEntity
  8
measurements
 62
256
370
-1
 48
1.0
  6
BYLAYER
100
AcDbLine
 10
12.0
 20
79.9135258183510757
 30
0.0
 11
12.0
 21
80.0864741816489243
 31
0.0
  0
LINE
  5
168
100
AcDbEntity
  8
measurements
 62
256
370
-1
 48
1.0
  6
BYLAYER
100
AcDbLine
 10
11.0
 20
79.9135258183510757
 30
0.0
 11
11.0
 21
80.0864741816489243
 31
0.0
  0
LINE
  5
169
100
AcDbEntity
  8
measurements
 62
256
370
-1
 48
1.0
  6
BYLAYER
100
AcDbLine
 10
10.0
 20
79.9135258183510757
 30
0.0
 11
10.0
 21
80.0864741816489243
 31
0.0
  0
LINE
  5
16A
100
AcDbEntity
  8
measurements
 62
256
370
-1
 48
1.0
  6
BYLAYER
100
AcDbLine
 10
9.0
 20
79.9135258183510757
 30
0.0
 11
9.0
 21
80.0864741816489243
 31
0.0
  0
LINE
  5
16B
100
AcDbEntity
  8
measurements
 62
256
370
-1
 48
1.0
  6
BYLAYER
100
AcDbLine
 10
8.0
 20
79.9135258183510757
 30
0.0
 11
8.0
 21
80.0864741816489243
 31
0.0
  0
LINE
  5
16C
100
AcDbEntity
  8
measurements
 62
256
370
-1
 48
1.0
  6
BYLAYER
100
AcDbLine
 10
7.0
 20
79.9135258183510757
 30
0.0
 11
7.0
 21
80.0864741816489243
 31
0.0
  0
LINE
  5
16D
100
AcDbEntity
  8
measurements
 62
256
370
-1
 48
1.0
  6
BYLAYER
100
AcDbLine
 10
6.0
 20
79.9135258183510757
 30
0.0
 11
6.0
 21
80.0864741816489243
 31
0.0
  0
LINE
  5
16E
100
AcDbEntity
  8
measurements
 62
256
370
-1
 48
1.0
  6
BYLAYER
100
AcDbLine
 10
5.0
 20
79.9135258183510757
 30
0.0
 11
5.0
 21
80.0864741816489243
 31
0.0
  0
LINE
  5
16F
100
AcDbEntity
  8
measurements
 62
256
370
-1
 48
1.0
  6
BYLAYER
100
AcDbLine
 10
4.0
 20
79.9135258183510757
 30
0.0
 11
4.0
 21
80.0864741816489243
 31
0.0
  0
LINE
  5
170
100
AcDbEntity
  8
measurements
 62
256
370
-1
 48
1.0
  6
BYLAYER
100
AcDbLine
 10
3.0
 20
79.9135258183510757
 30
0.0
 11
3.0
 21
80.0864741816489243
 31
0.0
  0
LINE
  5
171
100
AcDbEntity
  8
measurements
 62
256
370
-1
 48
1.0
  6
BYLAYER
100
AcDbLine
 10
2.0
 20
79.9135258183510757
 30
0.0
 11
2.0
 21
80.0864741816489243
 31
0.0
  0
LINE
  5
172
100
AcDbEntity
  8
measurements
 62
256
370
-1
 48
1.0
  6
BYLAYER
100
AcDbLine
 10
1.0
 20
79.9135258183510757
 30
0.0
 11
1.0
 21
80.0864741816489243
 31
0.0
  0
LINE
  5
173
100
AcDbEntity
  8
measurements
 62
256
370
-1
 48
1.0
  6
BYLAYER
100
AcDbLine
 10
-0.0
 20
79.9135258183510757
 30
0.0
 11
0.0
 21
80.0864741816489243
 31
0.0
  0
LINE
  5
174
100
AcDbEntity
  8
measurements
 62
256
370
-1
 48
1.0
  6
BYLAYER
100
AcDbLine
 10
10.0
 20
79.7838145458777035
 30
0.0
 11
10.0
 21
80.2161854541222965
 31
0.0
  0
LINE
  5
175
100
AcDbEntity
  8
measurements
 62
256
370
-1
 48
1.0
  6
BYLAYER
100
AcDbLine
 10
-0.0000000000000001
 20
79.7838145458777035
 30
0.0
 11
0.0000000000000001
 21
80.2161854541222965
 31
0.0
  0
MTEXT
  5
176
100
AcDbEntity
  8
measurements
 62
256
370
-1
 48
1.0
  6
BYLAYER
100
AcDbMText
 10
1.0
 20
84.7999999999999972
 30
0.0
 40
4.0
 41
0.0
 71
1
 72
1
  1
21
  7
textstyle7
 50
0.0
 73
2
 44
1.0
  0
LINE
  5
177
100
AcDbEntity
  8
measurements
 62
256
370
-1
 48
1.0
  6
BYLAYER
100
AcDbLine
 10
122.0
 20
120.0
 30
0.0
 11
28.0
 21
120.0
 31
0.0
  0
LINE
  5
178
100
AcDbEntity
  8
measurements
 62
256
370
-1
 48
1.0
  6
BYLAYER
100
AcDbLine
 10
122.0
 20
119.6886929460638953
 30
0.0
 11
122.0
 21
120.3113070539361047
 31
0.0
  0
LINE
  5
179
100
AcDbEntity
  8
measurements
 62
256
370
-1
 48
1.0
  6
BYLAYER
100
AcDbLine
 10
28.0
 20
119.6886929460638953
 30
0.0
 11
28.0
 21
120.3113070539361047
 31
0.0
  0
LINE
  5
17A
100
AcDbEntity
  8
measurements
 62
256
370
-1
 48
1.0
  6
BYLAYER
100
AcDbLine
 10
121.0
 20
119.8754771784255553
 30
0.0
 11
121.0
 21
120.1245228215744447
 31
0.0
  0
LINE
  5
17B
100
AcDbEntity
  8
measurements
 62
256
370
-1
 48
1.0
  6
BYLAYER
100
AcDbLine
 10
120.0
 20
119.8754771784255553
 30
0.0
 11
120.0
 21
120.1245228215744447
 31
0.0
  0
LINE
  5
17C
100
AcDbEntity
  8
measurements
 62
256
370
-1
 48
1.0
  6
BYLAYER
100
AcDbLine
 10
119.0
 20
119.8754771784255553
 30
0.0
 11
119.0
 21
120.1245228215744447
 31
0.0
  0
LINE
  5
17D
100
AcDbEntity
  8
measurements
 62
256
370
-1
 48
1.0
  6
BYLAYER
100
AcDbLine
 10
118.0
 20
119.8754771784255553
 30
0.0
 11
118.0
 21
120.1245228215744447
 31
0.0
  0
LINE
  5
17E
100
AcDbEntity
  8
measurements
 62
256
370
-1
 48
1.0
  6
BYLAYER
100
AcDbLine
 10
117.0
 20
119.8754771784255553
 30
0.0
 11
117.0
 21
120.1245228215744447
 31
0.0
  0
LINE
  5
17F
100
AcDbEntity
  8
measurements
 62
256
370
-1
 48
1.0
  6
BYLAYER
100
AcDbLine
 10
116.0
 20
119.8754771784255553
 30
0.0
 11
116.0
 21
120.1245228215744447
 31
0.0
  0
LINE
  5
180
100
AcDbEntity
  8
measurements
 62
256
370
-1
 48
1.0
  6
BYLAYER
100
AcDbLine
 10
115.0
 20
119.8754771784255553
 30
0.0
 11
115.0
 21
120.1245228215744447
 31
0.0
  0
LINE
  5
181
100
AcDbEntity
  8
measurements
 62
256
370
-1
 48
1.0
  6
BYLAYER
100
AcDbLine
 10
114.0
 20
119.8754771784255553
 30
0.0
 11
114.0
 21
120.1245228215744447
 31
0.0
  0
LINE
  5
182
100
AcDbEntity
  8
measurements
 62
256
370
-1
 48
1.0
  6
BYLAYER
100
AcDbLine
 10
113.0
 20
119.8754771784255553
 30
0.0
 11
113.0
 21
120.1245228215744447
 31
0.0
  0
LINE
  5
183
100
AcDbEntity
  8
measurements
 62
256
370
-1
 48
1.0
  6
BYLAYER
100
AcDbLine
 10
112.0
 20
119.8754771784255553
 30
0.0
 11
112.0
 21
120.1245228215744447
 31
0.0
  0
LINE
  5
184
100
AcDbEntity
  8
measurements
 62
256
370
-1
 48
1.0
  6
BYLAYER
100
AcDbLine
 10
111.0
 20
119.8754771784255553
 30
0.0
 11
111.0
 21
120.1245228215744447
 31
0.0
  0
LINE
  5
185
100
AcDbEntity
  8
measurements
 62
256
370
-1
 48
1.0
  6
BYLAYER
100
AcDbLine
 10
110.0
 20
119.8754771784255553
 30
0.0
 11
110.0
 21
120.1245228215744447
 31
0.0
  0
LINE
  5
186
100
AcDbEntity
  8
measurements
 62
256
370
-1
 48
1.0
  6
BYLAYER
100
AcDbLine
 10
109.0
 20
119.8754771784255553
 30
0.0
 11
109.0
 21
120.1245228215744447
 31
0.0
  0
LINE
  5
187
100
AcDbEntity
  8
measurements
 62
256
370
-1
 48
1.0
  6
BYLAYER
100
AcDbLine
 10
108.0
 20
119.8754771784255553
 30
0.0
 11
108.0
 21
120.1245228215744447
 31
0.0
  0
LINE
  5
188
100
AcDbEntity
  8
measurements
 62
256
370
-1
 48
1.0
  6
BYLAYER
100
AcDbLine
 10
107.0
 20
119.8754771784255553
 30
0.0
 11
107.0
 21
120.1245228215744447
 31
0.0
  0
LINE
  5
189
100
AcDbEntity
  8
measurements
 62
256
370
-1
 48
1.0
  6
BYLAYER
100
AcDbLine
 10
106.0
 20
119.8754771784255553
 30
0.0
 11
106.0
 21
120.1245228215744447
 31
0.0
  0
LINE
  5
18A
100
AcDbEntity
  8
measurements
 62
256
370
-1
 48
1.0
  6
BYLAYER
100
AcDbLine
 10
105.0
 20
119.8754771784255553
 30
0.0
 11
105.0
 21
120.1245228215744447
 31
0.0
  0
LINE
  5
18B
100
AcDbEntity
  8
measurements
 62
256
370
-1
 48
1.0
  6
BYLAYER
100
AcDbLine
 10
104.0
 20
119.8754771784255553
 30
0.0
 11
104.0
 21
120.1245228215744447
 31
0.0
  0
LINE
  5
18C
100
AcDbEntity
  8
measurements
 62
256
370
-1
 48
1.0
  6
BYLAYER
100
AcDbLine
 10
103.0
 20
119.8754771784255553
 30
0.0
 11
103.0
 21
120.1245228215744447
 31
0.0
  0
LINE
  5
18D
100
AcDbEntity
  8
measurements
 62
256
370
-1
 48
1.0
  6
BYLAYER
100
AcDbLine
 10
102.0
 20
119.8754771784255553
 30
0.0
 11
102.0
 21
120.1245228215744447
 31
0.0
  0
LINE
  5
18E
100
AcDbEntity
  8
measurements
 62
256
370
-1
 48
1.0
  6
BYLAYER
100
AcDbLine
 10
101.0
 20
119.8754771784255553
 30
0.0
 11
101.0
 21
120.1245228215744447
 31
0.0
  0
LINE
  5
18F
100
AcDbEntity
  8
measurements
 62
256
370
-1
 48
1.0
  6
BYLAYER
100
AcDbLine
 10
100.0
 20
119.8754771784255553
 30
0.0
 11
100.0
 21
120.1245228215744447
 31
0.0
  0
LINE
  5
190
100
AcDbEntity
  8
measurements
 62
256
370
-1
 48
1.0
  6
BYLAYER
100
AcDbLine
 10
99.0
 20
119.8754771784255553
 30
0.0
 11
99.0
 21
120.1245228215744447
 31
0.0
  0
LINE
  5
191
100
AcDbEntity
  8
measurements
 62
256
370
-1
 48
1.0
  6
BYLAYER
100
AcDbLine
 10
98.0
 20
119.8754771784255553
 30
0.0
 11
98.0
 21
120.1245228215744447
 31
0.0
  0
LINE
  5
192
100
AcDbEntity
  8
measurements
 62
256
370
-1
 48
1.0
  6
BYLAYER
100
AcDbLine
 10
97.0
 20
119.8754771784255553
 30
0.0
 11
97.0
 21
120.1245228215744447
 31
0.0
  0
LINE
  5
193
100
AcDbEntity
  8
measurements
 62
256
370
-1
 48
1.0
  6
BYLAYER
100
AcDbLine
 10
96.0
 20
119.8754771784255553
 30
0.0
 11
96.0
 21
120.1245228215744447
 31
0.0
  0
LINE
  5
194
100
AcDbEntity
  8
measurements
 62
256
370
-1
 48
1.0
  6
BYLAYER
100
AcDbLine
 10
95.0
 20
119.8754771784255553
 30
0.0
 11
95.0
 21
120.1245228215744447
 31
0.0
  0
LINE
  5
195
100
AcDbEntity
  8
measurements
 62
256
370
-1
 48
1.0
  6
BYLAYER
100
AcDbLine
 10
94.0
 20
119.8754771784255553
 30
0.0
 11
94.0
 21
120.1245228215744447
 31
0.0
  0
LINE
  5
196
100
AcDbEntity
  8
measurements
 62
256
370
-1
 48
1.0
  6
BYLAYER
100
AcDbLine
 10
93.0
 20
119.8754771784255553
 30
0.0
 11
93.0
 21
120.1245228215744447
 31
0.0
  0
LINE
  5
197
100
AcDbEntity
  8
measurements
 62
256
370
-1
 48
1.0
  6
BYLAYER
100
AcDbLine
 10
92.0
 20
119.8754771784255553
 30
0.0
 11
92.0
 21
120.1245228215744447
 31
0.0
  0
LINE
  5
198
100
AcDbEntity
  8
measurements
 62
256
370
-1
 48
1.0
  6
BYLAYER
100
AcDbLine
 10
91.0
 20
119.8754771784255553
 30
0.0
 11
91.0
 21
120.1245228215744447
 31
0.0
  0
LINE
  5
199
100
AcDbEntity
  8
measurements
 62
256
370
-1
 48
1.0
  6
BYLAYER
100
AcDbLine
 10
90.0
 20
119.8754771784255553
 30
0.0
 11
90.0
 21
120.1245228215744447
 31
0.0
  0
LINE
  5
19A
100
AcDbEntity
  8
measurements
 62
256
370
-1
 48
1.0
  6
BYLAYER
100
AcDbLine
 10
89.0
 20
119.8754771784255553
 30
0.0
 11
89.0
 21
120.1245228215744447
 31
0.0
  0
LINE
  5
19B
100
AcDbEntity
  8
measurements
 62
256
370
-1
 48
1.0
  6
BYLAYER
100
AcDbLine
 10
88.0
 20
119.8754771784255553
 30
0.0
 11
88.0
 21
120.1245228215744447
 31
0.0
  0
LINE
  5
19C
100
AcDbEntity
  8
measurements
 62
256
370
-1
 48
1.0
  6
BYLAYER
100
AcDbLine
 10
87.0
 20
119.8754771784255553
 30
0.0
 11
87.0
 21
120.1245228215744447
 31
0.0
  0
LINE
  5
19D
100
AcDbEntity
  8
measurements
 62
256
370
-1
 48
1.0
  6
BYLAYER
100
AcDbLine
 10
86.0
 20
119.8754771784255553
 30
0.0
 11
86.0
 21
120.1245228215744447
 31
0.0
  0
LINE
  5
19E
100
AcDbEntity
  8
measurements
 62
256
370
-1
 48
1.0
  6
BYLAYER
100
AcDbLine
 10
85.0
 20
119.8754771784255553
 30
0.0
 11
85.0
 21
120.1245228215744447
 31
0.0
  0
LINE
  5
19F
100
AcDbEntity
  8
measurements
 62
256
370
-1
 48
1.0
  6
BYLAYER
100
AcDbLine
 10
84.0
 20
119.8754771784255553
 30
0.0
 11
84.0
 21
120.1245228215744447
 31
0.0
  0
LINE
  5
1A0
100
AcDbEntity
  8
measurements
 62
256
370
-1
 48
1.0
  6
BYLAYER
100
AcDbLine
 10
83.0
 20
119.8754771784255553
 30
0.0
 11
83.0
 21
120.1245228215744447
 31
0.0
  0
LINE
  5
1A1
100
AcDbEntity
  8
measurements
 62
256
370
-1
 48
1.0
  6
BYLAYER
100
AcDbLine
 10
82.0
 20
119.8754771784255553
 30
0.0
 11
82.0
 21
120.1245228215744447
 31
0.0
  0
LINE
  5
1A2
100
AcDbEntity
  8
measurements
 62
256
370
-1
 48
1.0
  6
BYLAYER
100
AcDbLine
 10
81.0
 20
119.8754771784255553
 30
0.0
 11
81.0
 21
120.1245228215744447
 31
0.0
  0
LINE
  5
1A3
100
AcDbEntity
  8
measurements
 62
256
370
-1
 48
1.0
  6
BYLAYER
100
AcDbLine
 10
80.0
 20
119.8754771784255553
 30
0.0
 11
80.0
 21
120.1245228215744447
 31
0.0
  0
LINE
  5
1A4
100
AcDbEntity
  8
measurements
 62
256
370
-1
 48
1.0
  6
BYLAYER
100
AcDbLine
 10
79.0
 20
119.8754771784255553
 30
0.0
 11
79.0
 21
120.1245228215744447
 31
0.0
  0
LINE
  5
1A5
100
AcDbEntity
  8
measurements
 62
256
370
-1
 48
1.0
  6
BYLAYER
100
AcDbLine
 10
78.0
 20
119.8754771784255553
 30
0.0
 11
78.0
 21
120.1245228215744447
 31
0.0
  0
LINE
  5
1A6
100
AcDbEntity
  8
measurements
 62
256
370
-1
 48
1.0
  6
BYLAYER
100
AcDbLine
 10
77.0
 20
119.8754771784255553
 30
0.0
 11
77.0
 21
120.1245228215744447
 31
0.0
  0
LINE
  5
1A7
100
AcDbEntity
  8
measurements
 62
256
370
-1
 48
1.0
  6
BYLAYER
100
AcDbLine
 10
76.0
 20
119.8754771784255553
 30
0.0
 11
76.0
 21
120.1245228215744447
 31
0.0
  0
LINE
  5
1A8
100
AcDbEntity
  8
measurements
 62
256
370
-1
 48
1.0
  6
BYLAYER
100
AcDbLine
 10
75.0
 20
119.8754771784255553
 30
0.0
 11
75.0
 21
120.1245228215744447
 31
0.0
  0
LINE
  5
1A9
100
AcDbEntity
  8
measurements
 62
256
370
-1
 48
1.0
  6
BYLAYER
100
AcDbLine
 10
74.0
 20
119.8754771784255553
 30
0.0
 11
74.0
 21
120.1245228215744447
 31
0.0
  0
LINE
  5
1AA
100
AcDbEntity
  8
measurements
 62
256
370
-1
 48
1.0
  6
BYLAYER
100
AcDbLine
 10
73.0
 20
119.8754771784255553
 30
0.0
 11
73.0
 21
120.1245228215744447
 31
0.0
  0
LINE
  5
1AB
100
AcDbEntity
  8
measurements
 62
256
370
-1
 48
1.0
  6
BYLAYER
100
AcDbLine
 10
72.0
 20
119.8754771784255553
 30
0.0
 11
72.0
 21
120.1245228215744447
 31
0.0
  0
LINE
  5
1AC
100
AcDbEntity
  8
measurements
 62
256
370
-1
 48
1.0
  6
BYLAYER
100
AcDbLine
 10
71.0
 20
119.8754771784255553
 30
0.0
 11
71.0
 21
120.1245228215744447
 31
0.0
  0
LINE
  5
1AD
100
AcDbEntity
  8
measurements
 62
256
370
-1
 48
1.0
  6
BYLAYER
100
AcDbLine
 10
70.0
 20
119.8754771784255553
 30
0.0
 11
70.0
 21
120.1245228215744447
 31
0.0
  0
LINE
  5
1AE
100
AcDbEntity
  8
measurements
 62
256
370
-1
 48
1.0
  6
BYLAYER
100
AcDbLine
 10
69.0
 20
119.8754771784255553
 30
0.0
 11
69.0
 21
120.1245228215744447
 31
0.0
  0
LINE
  5
1AF
100
AcDbEntity
  8
measurements
 62
256
370
-1
 48
1.0
  6
BYLAYER
100
AcDbLine
 10
68.0
 20
119.8754771784255553
 30
0.0
 11
68.0
 21
120.1245228215744447
 31
0.0
  0
LINE
  5
1B0
100
AcDbEntity
  8
measurements
 62
256
370
-1
 48
1.0
  6
BYLAYER
100
AcDbLine
 10
67.0
 20
119.8754771784255553
 30
0.0
 11
67.0
 21
120.1245228215744447
 31
0.0
  0
LINE
  5
1B1
100
AcDbEntity
  8
measurements
 62
256
370
-1
 48
1.0
  6
BYLAYER
100
AcDbLine
 10
66.0
 20
119.8754771784255553
 30
0.0
 11
66.0
 21
120.1245228215744447
 31
0.0
  0
LINE
  5
1B2
100
AcDbEntity
  8
measurements
 62
256
370
-1
 48
1.0
  6
BYLAYER
100
AcDbLine
 10
65.0
 20
119.8754771784255553
 30
0.0
 11
65.0
 21
120.1245228215744447
 31
0.0
  0
LINE
  5
1B3
100
AcDbEntity
  8
measurements
 62
256
370
-1
 48
1.0
  6
BYLAYER
100
AcDbLine
 10
64.0
 20
119.8754771784255553
 30
0.0
 11
64.0
 21
120.1245228215744447
 31
0.0
  0
LINE
  5
1B4
100
AcDbEntity
  8
measurements
 62
256
370
-1
 48
1.0
  6
BYLAYER
100
AcDbLine
 10
63.0
 20
119.8754771784255695
 30
0.0
 11
63.0
 21
120.1245228215744589
 31
0.0
  0
LINE
  5
1B5
100
AcDbEntity
  8
measurements
 62
256
370
-1
 48
1.0
  6
BYLAYER
100
AcDbLine
 10
62.0
 20
119.8754771784255695
 30
0.0
 11
62.0
 21
120.1245228215744589
 31
0.0
  0
LINE
  5
1B6
100
AcDbEntity
  8
measurements
 62
256
370
-1
 48
1.0
  6
BYLAYER
100
AcDbLine
 10
61.0
 20
119.8754771784255695
 30
0.0
 11
61.0
 21
120.1245228215744589
 31
0.0
  0
LINE
  5
1B7
100
AcDbEntity
  8
measurements
 62
256
370
-1
 48
1.0
  6
BYLAYER
100
AcDbLine
 10
60.0
 20
119.8754771784255695
 30
0.0
 11
60.0
 21
120.1245228215744589
 31
0.0
  0
LINE
  5
1B8
100
AcDbEntity
  8
measurements
 62
256
370
-1
 48
1.0
  6
BYLAYER
100
AcDbLine
 10
59.0
 20
119.8754771784255695
 30
0.0
 11
59.0
 21
120.1245228215744589
 31
0.0
  0
LINE
  5
1B9
100
AcDbEntity
  8
measurements
 62
256
370
-1
 48
1.0
  6
BYLAYER
100
AcDbLine
 10
58.0
 20
119.8754771784255695
 30
0.0
 11
58.0
 21
120.1245228215744589
 31
0.0
  0
LINE
  5
1BA
100
AcDbEntity
  8
measurements
 62
256
370
-1
 48
1.0
  6
BYLAYER
100
AcDbLine
 10
57.0
 20
119.8754771784255695
 30
0.0
 11
57.0
 21
120.1245228215744589
 31
0.0
  0
LINE
  5
1BB
100
AcDbEntity
  8
measurements
 62
256
370
-1
 48
1.0
  6
BYLAYER
100
AcDbLine
 10
56.0
 20
119.8754771784255695
 30
0.0
 11
56.0
 21
120.1245228215744589
 31
0.0
  0
LINE
  5
1BC
100
AcDbEntity
  8
measurements
 62
256
370
-1
 48
1.0
  6
BYLAYER
100
AcDbLine
 10
55.0
 20
119.8754771784255695
 30
0.0
 11
55.0
 21
120.1245228215744589
 31
0.0
  0
LINE
  5
1BD
100
AcDbEntity
  8
measurements
 62
256
370
-1
 48
1.0
  6
BYLAYER
100
AcDbLine
 10
54.0
 20
119.8754771784255695
 30
0.0
 11
54.0
 21
120.1245228215744589
 31
0.0
  0
LINE
  5
1BE
100
AcDbEntity
  8
measurements
 62
256
370
-1
 48
1.0
  6
BYLAYER
100
AcDbLine
 10
53.0
 20
119.8754771784255695
 30
0.0
 11
53.0
 21
120.1245228215744589
 31
0.0
  0
LINE
  5
1BF
100
AcDbEntity
  8
measurements
 62
256
370
-1
 48
1.0
  6
BYLAYER
100
AcDbLine
 10
52.0
 20
119.8754771784255695
 30
0.0
 11
52.0
 21
120.1245228215744589
 31
0.0
  0
LINE
  5
1C0
100
AcDbEntity
  8
measurements
 62
256
370
-1
 48
1.0
  6
BYLAYER
100
AcDbLine
 10
51.0
 20
119.8754771784255695
 30
0.0
 11
51.0
 21
120.1245228215744589
 31
0.0
  0
LINE
  5
1C1
100
AcDbEntity
  8
measurements
 62
256
370
-1
 48
1.0
  6
BYLAYER
100
AcDbLine
 10
50.0
 20
119.8754771784255695
 30
0.0
 11
50.0
 21
120.1245228215744589
 31
0.0
  0
LINE
  5
1C2
100
AcDbEntity
  8
measurements
 62
256
370
-1
 48
1.0
  6
BYLAYER
100
AcDbLine
 10
49.0
 20
119.8754771784255695
 30
0.0
 11
49.0
 21
120.1245228215744589
 31
0.0
  0
LINE
  5
1C3
100
AcDbEntity
  8
measurements
 62
256
370
-1
 48
1.0
  6
BYLAYER
100
AcDbLine
 10
48.0
 20
119.8754771784255695
 30
0.0
 11
48.0
 21
120.1245228215744589
 31
0.0
  0
LINE
  5
1C4
100
AcDbEntity
  8
measurements
 62
256
370
-1
 48
1.0
  6
BYLAYER
100
AcDbLine
 10
47.0
 20
119.8754771784255695
 30
0.0
 11
47.0
 21
120.1245228215744589
 31
0.0
  0
LINE
  5
1C5
100
AcDbEntity
  8
measurements
 62
256
370
-1
 48
1.0
  6
BYLAYER
100
AcDbLine
 10
46.0
 20
119.8754771784255695
 30
0.0
 11
46.0
 21
120.1245228215744589
 31
0.0
  0
LINE
  5
1C6
100
AcDbEntity
  8
measurements
 62
256
370
-1
 48
1.0
  6
BYLAYER
100
AcDbLine
 10
45.0
 20
119.8754771784255695
 30
0.0
 11
45.0
 21
120.1245228215744589
 31
0.0
  0
LINE
  5
1C7
100
AcDbEntity
  8
measurements
 62
256
370
-1
 48
1.0
  6
BYLAYER
100
AcDbLine
 10
44.0
 20
119.8754771784255695
 30
0.0
 11
44.0
 21
120.1245228215744589
 31
0.0
  0
LINE
  5
1C8
100
AcDbEntity
  8
measurements
 62
256
370
-1
 48
1.0
  6
BYLAYER
100
AcDbLine
 10
43.0
 20
119.8754771784255695
 30
0.0
 11
43.0
 21
120.1245228215744589
 31
0.0
  0
LINE
  5
1C9
100
AcDbEntity
  8
measurements
 62
256
370
-1
 48
1.0
  6
BYLAYER
100
AcDbLine
 10
42.0
 20
119.8754771784255695
 30
0.0
 11
42.0
 21
120.1245228215744589
 31
0.0
  0
LINE
  5
1CA
100
AcDbEntity
  8
measurements
 62
256
370
-1
 48
1.0
  6
BYLAYER
100
AcDbLine
 10
41.0
 20
119.8754771784255695
 30
0.0
 11
41.0
 21
120.1245228215744589
 31
0.0
  0
LINE
  5
1CB
100
AcDbEntity
  8
measurements
 62
256
370
-1
 48
1.0
  6
BYLAYER
100
AcDbLine
 10
40.0
 20
119.8754771784255695
 30
0.0
 11
40.0
 21
120.1245228215744589
 31
0.0
  0
LINE
  5
1CC
100
AcDbEntity
  8
measurements
 62
256
370
-1
 48
1.0
  6
BYLAYER
100
AcDbLine
 10
39.0
 20
119.8754771784255695
 30
0.0
 11
39.0
 21
120.1245228215744589
 31
0.0
  0
LINE
  5
1CD
100
AcDbEntity
  8
measurements
 62
256
370
-1
 48
1.0
  6
BYLAYER
100
AcDbLine
 10
38.0
 20
119.8754771784255695
 30
0.0
 11
38.0
 21
120.1245228215744589
 31
0.0
  0
LINE
  5
1CE
100
AcDbEntity
  8
measurements
 62
256
370
-1
 48
1.0
  6
BYLAYER
100
AcDbLine
 10
37.0
 20
119.8754771784255695
 30
0.0
 11
37.0
 21
120.1245228215744589
 31
0.0
  0
LINE
  5
1CF
100
AcDbEntity
  8
measurements
 62
256
370
-1
 48
1.0
  6
BYLAYER
100
AcDbLine
 10
36.0
 20
119.8754771784255695
 30
0.0
 11
36.0
 21
120.1245228215744589
 31
0.0
  0
LINE
  5
1D0
100
AcDbEntity
  8
measurements
 62
256
370
-1
 48
1.0
  6
BYLAYER
100
AcDbLine
 10
35.0
 20
119.8754771784255695
 30
0.0
 11
35.0
 21
120.1245228215744589
 31
0.0
  0
LINE
  5
1D1
100
AcDbEntity
  8
measurements
 62
256
370
-1
 48
1.0
  6
BYLAYER
100
AcDbLine
 10
34.0
 20
119.8754771784255695
 30
0.0
 11
34.0
 21
120.1245228215744589
 31
0.0
  0
LINE
  5
1D2
100
AcDbEntity
  8
measurements
 62
256
370
-1
 48
1.0
  6
BYLAYER
100
AcDbLine
 10
33.0
 20
119.8754771784255695
 30
0.0
 11
33.0
 21
120.1245228215744589
 31
0.0
  0
LINE
  5
1D3
100
AcDbEntity
  8
measurements
 62
256
370
-1
 48
1.0
  6
BYLAYER
100
AcDbLine
 10
32.0
 20
119.8754771784255695
 30
0.0
 11
32.0
 21
120.1245228215744589
 31
0.0
  0
LINE
  5
1D4
100
AcDbEntity
  8
measurements
 62
256
370
-1
 48
1.0
  6
BYLAYER
100
AcDbLine
 10
31.0
 20
119.8754771784255695
 30
0.0
 11
31.0
 21
120.1245228215744589
 31
0.0
  0
LINE
  5
1D5
100
AcDbEntity
  8
measurements
 62
256
370
-1
 48
1.0
  6
BYLAYER
100
AcDbLine
 10
30.0
 20
119.8754771784255695
 30
0.0
 11
30.0
 21
120.1245228215744589
 31
0.0
  0
LINE
  5
1D6
100
AcDbEntity
  8
measurements
 62
256
370
-1
 48
1.0
  6
BYLAYER
100
AcDbLine
 10
29.0
 20
119.8754771784255695
 30
0.0
 11
29.0
 21
120.1245228215744589
 31
0.0
  0
LINE
  5
1D7
100
AcDbEntity
  8
measurements
 62
256
370
-1
 48
1.0
  6
BYLAYER
100
AcDbLine
 10
112.0
 20
119.6886929460638953
 30
0.0
 11
112.0
 21
120.3113070539361047
 31
0.0
  0
LINE
  5
1D8
100
AcDbEntity
  8
measurements
 62
256
370
-1
 48
1.0
  6
BYLAYER
100
AcDbLine
 10
102.0
 20
119.6886929460638953
 30
0.0
 11
102.0
 21
120.3113070539361047
 31
0.0
  0
LINE
  5
1D9
100
AcDbEntity
  8
measurements
 62
256
370
-1
 48
1.0
  6
BYLAYER
100
AcDbLine
 10
92.0
 20
119.6886929460638953
 30
0.0
 11
92.0
 21
120.3113070539361047
 31
0.0
  0
LINE
  5
1DA
100
AcDbEntity
  8
measurements
 62
256
370
-1
 48
1.0
  6
BYLAYER
100
AcDbLine
 10
82.0
 20
119.6886929460638953
 30
0.0
 11
82.0
 21
120.3113070539361047
 31
0.0
  0
LINE
  5
1DB
100
AcDbEntity
  8
measurements
 62
256
370
-1
 48
1.0
  6
BYLAYER
100
AcDbLine
 10
72.0
 20
119.6886929460638953
 30
0.0
 11
72.0
 21
120.3113070539361047
 31
0.0
  0
LINE
  5
1DC
100
AcDbEntity
  8
measurements
 62
256
370
-1
 48
1.0
  6
BYLAYER
100
AcDbLine
 10
62.0
 20
119.6886929460639095
 30
0.0
 11
62.0
 21
120.3113070539361189
 31
0.0
  0
LINE
  5
1DD
100
AcDbEntity
  8
measurements
 62
256
370
-1
 48
1.0
  6
BYLAYER
100
AcDbLine
 10
52.0
 20
119.6886929460639095
 30
0.0
 11
52.0
 21
120.3113070539361189
 31
0.0
  0
LINE
  5
1DE
100
AcDbEntity
  8
measurements
 62
256
370
-1
 48
1.0
  6
BYLAYER
100
AcDbLine
 10
42.0
 20
119.6886929460639095
 30
0.0
 11
42.0
 21
120.3113070539361189
 31
0.0
  0
LINE
  5
1DF
100
AcDbEntity
  8
measurements
 62
256
370
-1
 48
1.0
  6
BYLAYER
100
AcDbLine
 10
32.0
 20
119.6886929460639095
 30
0.0
 11
32.0
 21
120.3113070539361189
 31
0.0
  0
MTEXT
  5
1E0
100
AcDbEntity
  8
measurements
 62
256
370
-1
 48
1.0
  6
BYLAYER
100
AcDbMText
 10
30.0
 20
124.7999999999999972
 30
0.0
 40
4.0
 41
0.0
 71
1
 72
1
  1
94
  7
textstyle3
 50
0.0
 73
2
 44
1.0
  0
LINE
  5
1E1
100
AcDbEntity
  8
measurements
 62
256
370
-1
 48
1.0
  6
BYLAYER
100
AcDbLine
 10
-150.0
 20
-70.0
 30
0.0
 11
300.0
 21
-70.0
 31
0.0
  0
LINE
  5
1E2
100
AcDbEntity
  8
measurements
 62
256
370
-1
 48
1.0
  6
BYLAYER
100
AcDbLine
 10
-150.0
 20
-69.5520565627779632
 30
0.0
 11
-150.0
 21
-70.4479434372220368
 31
0.0
  0
LINE
  5
1E3
100
AcDbEntity
  8
measurements
 62
256
370
-1
 48
1.0
  6
BYLAYER
100
AcDbLine
 10
300.0
 20
-69.5520565627779632
 30
0.0
 11
300.0
 21
-70.4479434372220368
 31
0.0
  0
LINE
  5
1E4
100
AcDbEntity
  8
measurements
 62
256
370
-1
 48
1.0
  6
BYLAYER
100
AcDbLine
 10
-149.0
 20
-69.820822625111191
 30
0.0
 11
-149.0
 21
-70.179177374888809
 31
0.0
  0
LINE
  5
1E5
100
AcDbEntity
  8
measurements
 62
256
370
-1
 48
1.0
  6
BYLAYER
100
AcDbLine
 10
-148.0
 20
-69.820822625111191
 30
0.0
 11
-148.0
 21
-70.179177374888809
 31
0.0
  0
LINE
  5
1E6
100
AcDbEntity
  8
measurements
 62
256
370
-1
 48
1.0
  6
BYLAYER
100
AcDbLine
 10
-147.0
 20
-69.820822625111191
 30
0.0
 11
-147.0
 21
-70.179177374888809
 31
0.0
  0
LINE
  5
1E7
100
AcDbEntity
  8
measurements
 62
256
370
-1
 48
1.0
  6
BYLAYER
100
AcDbLine
 10
-146.0
 20
-69.820822625111191
 30
0.0
 11
-146.0
 21
-70.179177374888809
 31
0.0
  0
LINE
  5
1E8
100
AcDbEntity
  8
measurements
 62
256
370
-1
 48
1.0
  6
BYLAYER
100
AcDbLine
 10
-145.0
 20
-69.820822625111191
 30
0.0
 11
-145.0
 21
-70.179177374888809
 31
0.0
  0
LINE
  5
1E9
100
AcDbEntity
  8
measurements
 62
256
370
-1
 48
1.0
  6
BYLAYER
100
AcDbLine
 10
-144.0
 20
-69.820822625111191
 30
0.0
 11
-144.0
 21
-70.179177374888809
 31
0.0
  0
LINE
  5
1EA
100
AcDbEntity
  8
measurements
 62
256
370
-1
 48
1.0
  6
BYLAYER
100
AcDbLine
 10
-143.0
 20
-69.820822625111191
 30
0.0
 11
-143.0
 21
-70.179177374888809
 31
0.0
  0
LINE
  5
1EB
100
AcDbEntity
  8
measurements
 62
256
370
-1
 48
1.0
  6
BYLAYER
100
AcDbLine
 10
-142.0
 20
-69.820822625111191
 30
0.0
 11
-142.0
 21
-70.179177374888809
 31
0.0
  0
LINE
  5
1EC
100
AcDbEntity
  8
measurements
 62
256
370
-1
 48
1.0
  6
BYLAYER
100
AcDbLine
 10
-141.0
 20
-69.820822625111191
 30
0.0
 11
-141.0
 21
-70.179177374888809
 31
0.0
  0
LINE
  5
1ED
100
AcDbEntity
  8
measurements
 62
256
370
-1
 48
1.0
  6
BYLAYER
100
AcDbLine
 10
-140.0
 20
-69.820822625111191
 30
0.0
 11
-140.0
 21
-70.179177374888809
 31
0.0
  0
LINE
  5
1EE
100
AcDbEntity
  8
measurements
 62
256
370
-1
 48
1.0
  6
BYLAYER
100
AcDbLine
 10
-139.0
 20
-69.820822625111191
 30
0.0
 11
-139.0
 21
-70.179177374888809
 31
0.0
  0
LINE
  5
1EF
100
AcDbEntity
  8
measurements
 62
256
370
-1
 48
1.0
  6
BYLAYER
100
AcDbLine
 10
-138.0
 20
-69.820822625111191
 30
0.0
 11
-138.0
 21
-70.179177374888809
 31
0.0
  0
LINE
  5
1F0
100
AcDbEntity
  8
measurements
 62
256
370
-1
 48
1.0
  6
BYLAYER
100
AcDbLine
 10
-137.0
 20
-69.820822625111191
 30
0.0
 11
-137.0
 21
-70.179177374888809
 31
0.0
  0
LINE
  5
1F1
100
AcDbEntity
  8
measurements
 62
256
370
-1
 48
1.0
  6
BYLAYER
100
AcDbLine
 10
-136.0
 20
-69.820822625111191
 30
0.0
 11
-136.0
 21
-70.179177374888809
 31
0.0
  0
LINE
  5
1F2
100
AcDbEntity
  8
measurements
 62
256
370
-1
 48
1.0
  6
BYLAYER
100
AcDbLine
 10
-135.0
 20
-69.820822625111191
 30
0.0
 11
-135.0
 21
-70.179177374888809
 31
0.0
  0
LINE
  5
1F3
100
AcDbEntity
  8
measurements
 62
256
370
-1
 48
1.0
  6
BYLAYER
100
AcDbLine
 10
-134.0
 20
-69.820822625111191
 30
0.0
 11
-134.0
 21
-70.179177374888809
 31
0.0
  0
LINE
  5
1F4
100
AcDbEntity
  8
measurements
 62
256
370
-1
 48
1.0
  6
BYLAYER
100
AcDbLine
 10
-133.0
 20
-69.820822625111191
 30
0.0
 11
-133.0
 21
-70.179177374888809
 31
0.0
  0
LINE
  5
1F5
100
AcDbEntity
  8
measurements
 62
256
370
-1
 48
1.0
  6
BYLAYER
100
AcDbLine
 10
-132.0
 20
-69.820822625111191
 30
0.0
 11
-132.0
 21
-70.179177374888809
 31
0.0
  0
LINE
  5
1F6
100
AcDbEntity
  8
measurements
 62
256
370
-1
 48
1.0
  6
BYLAYER
100
AcDbLine
 10
-131.0
 20
-69.820822625111191
 30
0.0
 11
-131.0
 21
-70.179177374888809
 31
0.0
  0
LINE
  5
1F7
100
AcDbEntity
  8
measurements
 62
256
370
-1
 48
1.0
  6
BYLAYER
100
AcDbLine
 10
-130.0
 20
-69.820822625111191
 30
0.0
 11
-130.0
 21
-70.179177374888809
 31
0.0
  0
LINE
  5
1F8
100
AcDbEntity
  8
measurements
 62
256
370
-1
 48
1.0
  6
BYLAYER
100
AcDbLine
 10
-129.0
 20
-69.820822625111191
 30
0.0
 11
-129.0
 21
-70.179177374888809
 31
0.0
  0
LINE
  5
1F9
100
AcDbEntity
  8
measurements
 62
256
370
-1
 48
1.0
  6
BYLAYER
100
AcDbLine
 10
-128.0
 20
-69.820822625111191
 30
0.0
 11
-128.0
 21
-70.179177374888809
 31
0.0
  0
LINE
  5
1FA
100
AcDbEntity
  8
measurements
 62
256
370
-1
 48
1.0
  6
BYLAYER
100
AcDbLine
 10
-127.0
 20
-69.820822625111191
 30
0.0
 11
-127.0
 21
-70.179177374888809
 31
0.0
  0
LINE
  5
1FB
100
AcDbEntity
  8
measurements
 62
256
370
-1
 48
1.0
  6
BYLAYER
100
AcDbLine
 10
-126.0
 20
-69.820822625111191
 30
0.0
 11
-126.0
 21
-70.179177374888809
 31
0.0
  0
LINE
  5
1FC
100
AcDbEntity
  8
measurements
 62
256
370
-1
 48
1.0
  6
BYLAYER
100
AcDbLine
 10
-125.0
 20
-69.820822625111191
 30
0.0
 11
-125.0
 21
-70.179177374888809
 31
0.0
  0
LINE
  5
1FD
100
AcDbEntity
  8
measurements
 62
256
370
-1
 48
1.0
  6
BYLAYER
100
AcDbLine
 10
-124.0
 20
-69.820822625111191
 30
0.0
 11
-124.0
 21
-70.179177374888809
 31
0.0
  0
LINE
  5
1FE
100
AcDbEntity
  8
measurements
 62
256
370
-1
 48
1.0
  6
BYLAYER
100
AcDbLine
 10
-123.0
 20
-69.820822625111191
 30
0.0
 11
-123.0
 21
-70.179177374888809
 31
0.0
  0
LINE
  5
1FF
100
AcDbEntity
  8
measurements
 62
256
370
-1
 48
1.0
  6
BYLAYER
100
AcDbLine
 10
-122.0
 20
-69.820822625111191
 30
0.0
 11
-122.0
 21
-70.179177374888809
 31
0.0
  0
LINE
  5
200
100
AcDbEntity
  8
measurements
 62
256
370
-1
 48
1.0
  6
BYLAYER
100
AcDbLine
 10
-121.0
 20
-69.820822625111191
 30
0.0
 11
-121.0
 21
-70.179177374888809
 31
0.0
  0
LINE
  5
201
100
AcDbEntity
  8
measurements
 62
256
370
-1
 48
1.0
  6
BYLAYER
100
AcDbLine
 10
-120.0
 20
-69.820822625111191
 30
0.0
 11
-120.0
 21
-70.179177374888809
 31
0.0
  0
LINE
  5
202
100
AcDbEntity
  8
measurements
 62
256
370
-1
 48
1.0
  6
BYLAYER
100
AcDbLine
 10
-119.0
 20
-69.820822625111191
 30
0.0
 11
-119.0
 21
-70.179177374888809
 31
0.0
  0
LINE
  5
203
100
AcDbEntity
  8
measurements
 62
256
370
-1
 48
1.0
  6
BYLAYER
100
AcDbLine
 10
-118.0
 20
-69.820822625111191
 30
0.0
 11
-118.0
 21
-70.179177374888809
 31
0.0
  0
LINE
  5
204
100
AcDbEntity
  8
measurements
 62
256
370
-1
 48
1.0
  6
BYLAYER
100
AcDbLine
 10
-117.0
 20
-69.820822625111191
 30
0.0
 11
-117.0
 21
-70.179177374888809
 31
0.0
  0
LINE
  5
205
100
AcDbEntity
  8
measurements
 62
256
370
-1
 48
1.0
  6
BYLAYER
100
AcDbLine
 10
-116.0
 20
-69.820822625111191
 30
0.0
 11
-116.0
 21
-70.179177374888809
 31
0.0
  0
LINE
  5
206
100
AcDbEntity
  8
measurements
 62
256
370
-1
 48
1.0
  6
BYLAYER
100
AcDbLine
 10
-115.0
 20
-69.820822625111191
 30
0.0
 11
-115.0
 21
-70.179177374888809
 31
0.0
  0
LINE
  5
207
100
AcDbEntity
  8
measurements
 62
256
370
-1
 48
1.0
  6
BYLAYER
100
AcDbLine
 10
-114.0
 20
-69.820822625111191
 30
0.0
 11
-114.0
 21
-70.179177374888809
 31
0.0
  0
LINE
  5
208
100
AcDbEntity
  8
measurements
 62
256
370
-1
 48
1.0
  6
BYLAYER
100
AcDbLine
 10
-113.0
 20
-69.820822625111191
 30
0.0
 11
-113.0
 21
-70.179177374888809
 31
0.0
  0
LINE
  5
209
100
AcDbEntity
  8
measurements
 62
256
370
-1
 48
1.0
  6
BYLAYER
100
AcDbLine
 10
-112.0
 20
-69.820822625111191
 30
0.0
 11
-112.0
 21
-70.179177374888809
 31
0.0
  0
LINE
  5
20A
100
AcDbEntity
  8
measurements
 62
256
370
-1
 48
1.0
  6
BYLAYER
100
AcDbLine
 10
-111.0
 20
-69.820822625111191
 30
0.0
 11
-111.0
 21
-70.179177374888809
 31
0.0
  0
LINE
  5
20B
100
AcDbEntity
  8
measurements
 62
256
370
-1
 48
1.0
  6
BYLAYER
100
AcDbLine
 10
-110.0
 20
-69.820822625111191
 30
0.0
 11
-110.0
 21
-70.179177374888809
 31
0.0
  0
LINE
  5
20C
100
AcDbEntity
  8
measurements
 62
256
370
-1
 48
1.0
  6
BYLAYER
100
AcDbLine
 10
-109.0
 20
-69.820822625111191
 30
0.0
 11
-109.0
 21
-70.179177374888809
 31
0.0
  0
LINE
  5
20D
100
AcDbEntity
  8
measurements
 62
256
370
-1
 48
1.0
  6
BYLAYER
100
AcDbLine
 10
-108.0
 20
-69.820822625111191
 30
0.0
 11
-108.0
 21
-70.179177374888809
 31
0.0
  0
LINE
  5
20E
100
AcDbEntity
  8
measurements
 62
256
370
-1
 48
1.0
  6
BYLAYER
100
AcDbLine
 10
-107.0
 20
-69.820822625111191
 30
0.0
 11
-107.0
 21
-70.179177374888809
 31
0.0
  0
LINE
  5
20F
100
AcDbEntity
  8
measurements
 62
256
370
-1
 48
1.0
  6
BYLAYER
100
AcDbLine
 10
-106.0
 20
-69.820822625111191
 30
0.0
 11
-106.0
 21
-70.179177374888809
 31
0.0
  0
LINE
  5
210
100
AcDbEntity
  8
measurements
 62
256
370
-1
 48
1.0
  6
BYLAYER
100
AcDbLine
 10
-105.0
 20
-69.820822625111191
 30
0.0
 11
-105.0
 21
-70.179177374888809
 31
0.0
  0
LINE
  5
211
100
AcDbEntity
  8
measurements
 62
256
370
-1
 48
1.0
  6
BYLAYER
100
AcDbLine
 10
-104.0
 20
-69.820822625111191
 30
0.0
 11
-104.0
 21
-70.179177374888809
 31
0.0
  0
LINE
  5
212
100
AcDbEntity
  8
measurements
 62
256
370
-1
 48
1.0
  6
BYLAYER
100
AcDbLine
 10
-103.0
 20
-69.820822625111191
 30
0.0
 11
-103.0
 21
-70.179177374888809
 31
0.0
  0
LINE
  5
213
100
AcDbEntity
  8
measurements
 62
256
370
-1
 48
1.0
  6
BYLAYER
100
AcDbLine
 10
-102.0
 20
-69.820822625111191
 30
0.0
 11
-102.0
 21
-70.179177374888809
 31
0.0
  0
LINE
  5
214
100
AcDbEntity
  8
measurements
 62
256
370
-1
 48
1.0
  6
BYLAYER
100
AcDbLine
 10
-101.0
 20
-69.820822625111191
 30
0.0
 11
-101.0
 21
-70.179177374888809
 31
0.0
  0
LINE
  5
215
100
AcDbEntity
  8
measurements
 62
256
370
-1
 48
1.0
  6
BYLAYER
100
AcDbLine
 10
-100.0
 20
-69.820822625111191
 30
0.0
 11
-100.0
 21
-70.179177374888809
 31
0.0
  0
LINE
  5
216
100
AcDbEntity
  8
measurements
 62
256
370
-1
 48
1.0
  6
BYLAYER
100
AcDbLine
 10
-99.0
 20
-69.820822625111191
 30
0.0
 11
-99.0
 21
-70.179177374888809
 31
0.0
  0
LINE
  5
217
100
AcDbEntity
  8
measurements
 62
256
370
-1
 48
1.0
  6
BYLAYER
100
AcDbLine
 10
-98.0
 20
-69.820822625111191
 30
0.0
 11
-98.0
 21
-70.179177374888809
 31
0.0
  0
LINE
  5
218
100
AcDbEntity
  8
measurements
 62
256
370
-1
 48
1.0
  6
BYLAYER
100
AcDbLine
 10
-97.0
 20
-69.820822625111191
 30
0.0
 11
-97.0
 21
-70.179177374888809
 31
0.0
  0
LINE
  5
219
100
AcDbEntity
  8
measurements
 62
256
370
-1
 48
1.0
  6
BYLAYER
100
AcDbLine
 10
-96.0
 20
-69.820822625111191
 30
0.0
 11
-96.0
 21
-70.179177374888809
 31
0.0
  0
LINE
  5
21A
100
AcDbEntity
  8
measurements
 62
256
370
-1
 48
1.0
  6
BYLAYER
100
AcDbLine
 10
-95.0
 20
-69.820822625111191
 30
0.0
 11
-95.0
 21
-70.179177374888809
 31
0.0
  0
LINE
  5
21B
100
AcDbEntity
  8
measurements
 62
256
370
-1
 48
1.0
  6
BYLAYER
100
AcDbLine
 10
-94.0
 20
-69.820822625111191
 30
0.0
 11
-94.0
 21
-70.179177374888809
 31
0.0
  0
LINE
  5
21C
100
AcDbEntity
  8
measurements
 62
256
370
-1
 48
1.0
  6
BYLAYER
100
AcDbLine
 10
-93.0
 20
-69.820822625111191
 30
0.0
 11
-93.0
 21
-70.179177374888809
 31
0.0
  0
LINE
  5
21D
100
AcDbEntity
  8
measurements
 62
256
370
-1
 48
1.0
  6
BYLAYER
100
AcDbLine
 10
-92.0
 20
-69.820822625111191
 30
0.0
 11
-92.0
 21
-70.179177374888809
 31
0.0
  0
LINE
  5
21E
100
AcDbEntity
  8
measurements
 62
256
370
-1
 48
1.0
  6
BYLAYER
100
AcDbLine
 10
-91.0
 20
-69.820822625111191
 30
0.0
 11
-91.0
 21
-70.179177374888809
 31
0.0
  0
LINE
  5
21F
100
AcDbEntity
  8
measurements
 62
256
370
-1
 48
1.0
  6
BYLAYER
100
AcDbLine
 10
-90.0
 20
-69.820822625111191
 30
0.0
 11
-90.0
 21
-70.179177374888809
 31
0.0
  0
LINE
  5
220
100
AcDbEntity
  8
measurements
 62
256
370
-1
 48
1.0
  6
BYLAYER
100
AcDbLine
 10
-89.0
 20
-69.820822625111191
 30
0.0
 11
-89.0
 21
-70.179177374888809
 31
0.0
  0
LINE
  5
221
100
AcDbEntity
  8
measurements
 62
256
370
-1
 48
1.0
  6
BYLAYER
100
AcDbLine
 10
-88.0
 20
-69.820822625111191
 30
0.0
 11
-88.0
 21
-70.179177374888809
 31
0.0
  0
LINE
  5
222
100
AcDbEntity
  8
measurements
 62
256
370
-1
 48
1.0
  6
BYLAYER
100
AcDbLine
 10
-87.0
 20
-69.820822625111191
 30
0.0
 11
-87.0
 21
-70.179177374888809
 31
0.0
  0
LINE
  5
223
100
AcDbEntity
  8
measurements
 62
256
370
-1
 48
1.0
  6
BYLAYER
100
AcDbLine
 10
-86.0
 20
-69.820822625111191
 30
0.0
 11
-86.0
 21
-70.179177374888809
 31
0.0
  0
LINE
  5
224
100
AcDbEntity
  8
measurements
 62
256
370
-1
 48
1.0
  6
BYLAYER
100
AcDbLine
 10
-85.0
 20
-69.820822625111191
 30
0.0
 11
-85.0
 21
-70.179177374888809
 31
0.0
  0
LINE
  5
225
100
AcDbEntity
  8
measurements
 62
256
370
-1
 48
1.0
  6
BYLAYER
100
AcDbLine
 10
-84.0
 20
-69.820822625111191
 30
0.0
 11
-84.0
 21
-70.179177374888809
 31
0.0
  0
LINE
  5
226
100
AcDbEntity
  8
measurements
 62
256
370
-1
 48
1.0
  6
BYLAYER
100
AcDbLine
 10
-83.0
 20
-69.820822625111191
 30
0.0
 11
-83.0
 21
-70.179177374888809
 31
0.0
  0
LINE
  5
227
100
AcDbEntity
  8
measurements
 62
256
370
-1
 48
1.0
  6
BYLAYER
100
AcDbLine
 10
-82.0
 20
-69.820822625111191
 30
0.0
 11
-82.0
 21
-70.179177374888809
 31
0.0
  0
LINE
  5
228
100
AcDbEntity
  8
measurements
 62
256
370
-1
 48
1.0
  6
BYLAYER
100
AcDbLine
 10
-81.0
 20
-69.820822625111191
 30
0.0
 11
-81.0
 21
-70.179177374888809
 31
0.0
  0
LINE
  5
229
100
AcDbEntity
  8
measurements
 62
256
370
-1
 48
1.0
  6
BYLAYER
100
AcDbLine
 10
-80.0
 20
-69.820822625111191
 30
0.0
 11
-80.0
 21
-70.179177374888809
 31
0.0
  0
LINE
  5
22A
100
AcDbEntity
  8
measurements
 62
256
370
-1
 48
1.0
  6
BYLAYER
100
AcDbLine
 10
-79.0
 20
-69.820822625111191
 30
0.0
 11
-79.0
 21
-70.179177374888809
 31
0.0
  0
LINE
  5
22B
100
AcDbEntity
  8
measurements
 62
256
370
-1
 48
1.0
  6
BYLAYER
100
AcDbLine
 10
-78.0
 20
-69.820822625111191
 30
0.0
 11
-78.0
 21
-70.179177374888809
 31
0.0
  0
LINE
  5
22C
100
AcDbEntity
  8
measurements
 62
256
370
-1
 48
1.0
  6
BYLAYER
100
AcDbLine
 10
-77.0
 20
-69.820822625111191
 30
0.0
 11
-77.0
 21
-70.179177374888809
 31
0.0
  0
LINE
  5
22D
100
AcDbEntity
  8
measurements
 62
256
370
-1
 48
1.0
  6
BYLAYER
100
AcDbLine
 10
-76.0
 20
-69.820822625111191
 30
0.0
 11
-76.0
 21
-70.179177374888809
 31
0.0
  0
LINE
  5
22E
100
AcDbEntity
  8
measurements
 62
256
370
-1
 48
1.0
  6
BYLAYER
100
AcDbLine
 10
-75.0
 20
-69.820822625111191
 30
0.0
 11
-75.0
 21
-70.179177374888809
 31
0.0
  0
LINE
  5
22F
100
AcDbEntity
  8
measurements
 62
256
370
-1
 48
1.0
  6
BYLAYER
100
AcDbLine
 10
-74.0
 20
-69.820822625111191
 30
0.0
 11
-74.0
 21
-70.179177374888809
 31
0.0
  0
LINE
  5
230
100
AcDbEntity
  8
measurements
 62
256
370
-1
 48
1.0
  6
BYLAYER
100
AcDbLine
 10
-73.0
 20
-69.820822625111191
 30
0.0
 11
-73.0
 21
-70.179177374888809
 31
0.0
  0
LINE
  5
231
100
AcDbEntity
  8
measurements
 62
256
370
-1
 48
1.0
  6
BYLAYER
100
AcDbLine
 10
-72.0
 20
-69.820822625111191
 30
0.0
 11
-72.0
 21
-70.179177374888809
 31
0.0
  0
LINE
  5
232
100
AcDbEntity
  8
measurements
 62
256
370
-1
 48
1.0
  6
BYLAYER
100
AcDbLine
 10
-71.0
 20
-69.820822625111191
 30
0.0
 11
-71.0
 21
-70.179177374888809
 31
0.0
  0
LINE
  5
233
100
AcDbEntity
  8
measurements
 62
256
370
-1
 48
1.0
  6
BYLAYER
100
AcDbLine
 10
-70.0
 20
-69.820822625111191
 30
0.0
 11
-70.0
 21
-70.179177374888809
 31
0.0
  0
LINE
  5
234
100
AcDbEntity
  8
measurements
 62
256
370
-1
 48
1.0
  6
BYLAYER
100
AcDbLine
 10
-69.0
 20
-69.820822625111191
 30
0.0
 11
-69.0
 21
-70.179177374888809
 31
0.0
  0
LINE
  5
235
100
AcDbEntity
  8
measurements
 62
256
370
-1
 48
1.0
  6
BYLAYER
100
AcDbLine
 10
-68.0
 20
-69.820822625111191
 30
0.0
 11
-68.0
 21
-70.179177374888809
 31
0.0
  0
LINE
  5
236
100
AcDbEntity
  8
measurements
 62
256
370
-1
 48
1.0
  6
BYLAYER
100
AcDbLine
 10
-67.0
 20
-69.820822625111191
 30
0.0
 11
-67.0
 21
-70.179177374888809
 31
0.0
  0
LINE
  5
237
100
AcDbEntity
  8
measurements
 62
256
370
-1
 48
1.0
  6
BYLAYER
100
AcDbLine
 10
-66.0
 20
-69.820822625111191
 30
0.0
 11
-66.0
 21
-70.179177374888809
 31
0.0
  0
LINE
  5
238
100
AcDbEntity
  8
measurements
 62
256
370
-1
 48
1.0
  6
BYLAYER
100
AcDbLine
 10
-65.0
 20
-69.820822625111191
 30
0.0
 11
-65.0
 21
-70.179177374888809
 31
0.0
  0
LINE
  5
239
100
AcDbEntity
  8
measurements
 62
256
370
-1
 48
1.0
  6
BYLAYER
100
AcDbLine
 10
-64.0
 20
-69.820822625111191
 30
0.0
 11
-64.0
 21
-70.179177374888809
 31
0.0
  0
LINE
  5
23A
100
AcDbEntity
  8
measurements
 62
256
370
-1
 48
1.0
  6
BYLAYER
100
AcDbLine
 10
-63.0
 20
-69.820822625111191
 30
0.0
 11
-63.0
 21
-70.179177374888809
 31
0.0
  0
LINE
  5
23B
100
AcDbEntity
  8
measurements
 62
256
370
-1
 48
1.0
  6
BYLAYER
100
AcDbLine
 10
-62.0
 20
-69.820822625111191
 30
0.0
 11
-62.0
 21
-70.179177374888809
 31
0.0
  0
LINE
  5
23C
100
AcDbEntity
  8
measurements
 62
256
370
-1
 48
1.0
  6
BYLAYER
100
AcDbLine
 10
-61.0
 20
-69.820822625111191
 30
0.0
 11
-61.0
 21
-70.179177374888809
 31
0.0
  0
LINE
  5
23D
100
AcDbEntity
  8
measurements
 62
256
370
-1
 48
1.0
  6
BYLAYER
100
AcDbLine
 10
-60.0
 20
-69.820822625111191
 30
0.0
 11
-60.0
 21
-70.179177374888809
 31
0.0
  0
LINE
  5
23E
100
AcDbEntity
  8
measurements
 62
256
370
-1
 48
1.0
  6
BYLAYER
100
AcDbLine
 10
-59.0
 20
-69.820822625111191
 30
0.0
 11
-59.0
 21
-70.179177374888809
 31
0.0
  0
LINE
  5
23F
100
AcDbEntity
  8
measurements
 62
256
370
-1
 48
1.0
  6
BYLAYER
100
AcDbLine
 10
-58.0
 20
-69.820822625111191
 30
0.0
 11
-58.0
 21
-70.179177374888809
 31
0.0
  0
LINE
  5
240
100
AcDbEntity
  8
measurements
 62
256
370
-1
 48
1.0
  6
BYLAYER
100
AcDbLine
 10
-57.0
 20
-69.820822625111191
 30
0.0
 11
-57.0
 21
-70.179177374888809
 31
0.0
  0
LINE
  5
241
100
AcDbEntity
  8
measurements
 62
256
370
-1
 48
1.0
  6
BYLAYER
100
AcDbLine
 10
-56.0
 20
-69.820822625111191
 30
0.0
 11
-56.0
 21
-70.179177374888809
 31
0.0
  0
LINE
  5
242
100
AcDbEntity
  8
measurements
 62
256
370
-1
 48
1.0
  6
BYLAYER
100
AcDbLine
 10
-55.0
 20
-69.820822625111191
 30
0.0
 11
-55.0
 21
-70.179177374888809
 31
0.0
  0
LINE
  5
243
100
AcDbEntity
  8
measurements
 62
256
370
-1
 48
1.0
  6
BYLAYER
100
AcDbLine
 10
-54.0
 20
-69.820822625111191
 30
0.0
 11
-54.0
 21
-70.179177374888809
 31
0.0
  0
LINE
  5
244
100
AcDbEntity
  8
measurements
 62
256
370
-1
 48
1.0
  6
BYLAYER
100
AcDbLine
 10
-53.0
 20
-69.820822625111191
 30
0.0
 11
-53.0
 21
-70.179177374888809
 31
0.0
  0
LINE
  5
245
100
AcDbEntity
  8
measurements
 62
256
370
-1
 48
1.0
  6
BYLAYER
100
AcDbLine
 10
-52.0
 20
-69.820822625111191
 30
0.0
 11
-52.0
 21
-70.179177374888809
 31
0.0
  0
LINE
  5
246
100
AcDbEntity
  8
measurements
 62
256
370
-1
 48
1.0
  6
BYLAYER
100
AcDbLine
 10
-51.0
 20
-69.820822625111191
 30
0.0
 11
-51.0
 21
-70.179177374888809
 31
0.0
  0
LINE
  5
247
100
AcDbEntity
  8
measurements
 62
256
370
-1
 48
1.0
  6
BYLAYER
100
AcDbLine
 10
-50.0
 20
-69.820822625111191
 30
0.0
 11
-50.0
 21
-70.179177374888809
 31
0.0
  0
LINE
  5
248
100
AcDbEntity
  8
measurements
 62
256
370
-1
 48
1.0
  6
BYLAYER
100
AcDbLine
 10
-49.0
 20
-69.820822625111191
 30
0.0
 11
-49.0
 21
-70.179177374888809
 31
0.0
  0
LINE
  5
249
100
AcDbEntity
  8
measurements
 62
256
370
-1
 48
1.0
  6
BYLAYER
100
AcDbLine
 10
-48.0
 20
-69.820822625111191
 30
0.0
 11
-48.0
 21
-70.179177374888809
 31
0.0
  0
LINE
  5
24A
100
AcDbEntity
  8
measurements
 62
256
370
-1
 48
1.0
  6
BYLAYER
100
AcDbLine
 10
-47.0
 20
-69.820822625111191
 30
0.0
 11
-47.0
 21
-70.179177374888809
 31
0.0
  0
LINE
  5
24B
100
AcDbEntity
  8
measurements
 62
256
370
-1
 48
1.0
  6
BYLAYER
100
AcDbLine
 10
-46.0
 20
-69.820822625111191
 30
0.0
 11
-46.0
 21
-70.179177374888809
 31
0.0
  0
LINE
  5
24C
100
AcDbEntity
  8
measurements
 62
256
370
-1
 48
1.0
  6
BYLAYER
100
AcDbLine
 10
-45.0
 20
-69.820822625111191
 30
0.0
 11
-45.0
 21
-70.179177374888809
 31
0.0
  0
LINE
  5
24D
100
AcDbEntity
  8
measurements
 62
256
370
-1
 48
1.0
  6
BYLAYER
100
AcDbLine
 10
-44.0
 20
-69.820822625111191
 30
0.0
 11
-44.0
 21
-70.179177374888809
 31
0.0
  0
LINE
  5
24E
100
AcDbEntity
  8
measurements
 62
256
370
-1
 48
1.0
  6
BYLAYER
100
AcDbLine
 10
-43.0
 20
-69.820822625111191
 30
0.0
 11
-43.0
 21
-70.179177374888809
 31
0.0
  0
LINE
  5
24F
100
AcDbEntity
  8
measurements
 62
256
370
-1
 48
1.0
  6
BYLAYER
100
AcDbLine
 10
-42.0
 20
-69.820822625111191
 30
0.0
 11
-42.0
 21
-70.179177374888809
 31
0.0
  0
LINE
  5
250
100
AcDbEntity
  8
measurements
 62
256
370
-1
 48
1.0
  6
BYLAYER
100
AcDbLine
 10
-41.0
 20
-69.820822625111191
 30
0.0
 11
-41.0
 21
-70.179177374888809
 31
0.0
  0
LINE
  5
251
100
AcDbEntity
  8
measurements
 62
256
370
-1
 48
1.0
  6
BYLAYER
100
AcDbLine
 10
-40.0
 20
-69.820822625111191
 30
0.0
 11
-40.0
 21
-70.179177374888809
 31
0.0
  0
LINE
  5
252
100
AcDbEntity
  8
measurements
 62
256
370
-1
 48
1.0
  6
BYLAYER
100
AcDbLine
 10
-39.0
 20
-69.820822625111191
 30
0.0
 11
-39.0
 21
-70.179177374888809
 31
0.0
  0
LINE
  5
253
100
AcDbEntity
  8
measurements
 62
256
370
-1
 48
1.0
  6
BYLAYER
100
AcDbLine
 10
-38.0
 20
-69.820822625111191
 30
0.0
 11
-38.0
 21
-70.179177374888809
 31
0.0
  0
LINE
  5
254
100
AcDbEntity
  8
measurements
 62
256
370
-1
 48
1.0
  6
BYLAYER
100
AcDbLine
 10
-37.0
 20
-69.820822625111191
 30
0.0
 11
-37.0
 21
-70.179177374888809
 31
0.0
  0
LINE
  5
255
100
AcDbEntity
  8
measurements
 62
256
370
-1
 48
1.0
  6
BYLAYER
100
AcDbLine
 10
-36.0
 20
-69.820822625111191
 30
0.0
 11
-36.0
 21
-70.179177374888809
 31
0.0
  0
LINE
  5
256
100
AcDbEntity
  8
measurements
 62
256
370
-1
 48
1.0
  6
BYLAYER
100
AcDbLine
 10
-35.0
 20
-69.820822625111191
 30
0.0
 11
-35.0
 21
-70.179177374888809
 31
0.0
  0
LINE
  5
257
100
AcDbEntity
  8
measurements
 62
256
370
-1
 48
1.0
  6
BYLAYER
100
AcDbLine
 10
-34.0
 20
-69.820822625111191
 30
0.0
 11
-34.0
 21
-70.179177374888809
 31
0.0
  0
LINE
  5
258
100
AcDbEntity
  8
measurements
 62
256
370
-1
 48
1.0
  6
BYLAYER
100
AcDbLine
 10
-33.0
 20
-69.820822625111191
 30
0.0
 11
-33.0
 21
-70.179177374888809
 31
0.0
  0
LINE
  5
259
100
AcDbEntity
  8
measurements
 62
256
370
-1
 48
1.0
  6
BYLAYER
100
AcDbLine
 10
-32.0
 20
-69.820822625111191
 30
0.0
 11
-32.0
 21
-70.179177374888809
 31
0.0
  0
LINE
  5
25A
100
AcDbEntity
  8
measurements
 62
256
370
-1
 48
1.0
  6
BYLAYER
100
AcDbLine
 10
-31.0
 20
-69.820822625111191
 30
0.0
 11
-31.0
 21
-70.179177374888809
 31
0.0
  0
LINE
  5
25B
100
AcDbEntity
  8
measurements
 62
256
370
-1
 48
1.0
  6
BYLAYER
100
AcDbLine
 10
-30.0
 20
-69.820822625111191
 30
0.0
 11
-30.0
 21
-70.179177374888809
 31
0.0
  0
LINE
  5
25C
100
AcDbEntity
  8
measurements
 62
256
370
-1
 48
1.0
  6
BYLAYER
100
AcDbLine
 10
-29.0
 20
-69.820822625111191
 30
0.0
 11
-29.0
 21
-70.179177374888809
 31
0.0
  0
LINE
  5
25D
100
AcDbEntity
  8
measurements
 62
256
370
-1
 48
1.0
  6
BYLAYER
100
AcDbLine
 10
-28.0
 20
-69.820822625111191
 30
0.0
 11
-28.0
 21
-70.179177374888809
 31
0.0
  0
LINE
  5
25E
100
AcDbEntity
  8
measurements
 62
256
370
-1
 48
1.0
  6
BYLAYER
100
AcDbLine
 10
-27.0
 20
-69.820822625111191
 30
0.0
 11
-27.0
 21
-70.179177374888809
 31
0.0
  0
LINE
  5
25F
100
AcDbEntity
  8
measurements
 62
256
370
-1
 48
1.0
  6
BYLAYER
100
AcDbLine
 10
-26.0
 20
-69.820822625111191
 30
0.0
 11
-26.0
 21
-70.179177374888809
 31
0.0
  0
LINE
  5
260
100
AcDbEntity
  8
measurements
 62
256
370
-1
 48
1.0
  6
BYLAYER
100
AcDbLine
 10
-25.0
 20
-69.820822625111191
 30
0.0
 11
-25.0
 21
-70.179177374888809
 31
0.0
  0
LINE
  5
261
100
AcDbEntity
  8
measurements
 62
256
370
-1
 48
1.0
  6
BYLAYER
100
AcDbLine
 10
-24.0
 20
-69.820822625111191
 30
0.0
 11
-24.0
 21
-70.179177374888809
 31
0.0
  0
LINE
  5
262
100
AcDbEntity
  8
measurements
 62
256
370
-1
 48
1.0
  6
BYLAYER
100
AcDbLine
 10
-23.0
 20
-69.820822625111191
 30
0.0
 11
-23.0
 21
-70.179177374888809
 31
0.0
  0
LINE
  5
263
100
AcDbEntity
  8
measurements
 62
256
370
-1
 48
1.0
  6
BYLAYER
100
AcDbLine
 10
-22.0
 20
-69.820822625111191
 30
0.0
 11
-22.0
 21
-70.179177374888809
 31
0.0
  0
LINE
  5
264
100
AcDbEntity
  8
measurements
 62
256
370
-1
 48
1.0
  6
BYLAYER
100
AcDbLine
 10
-21.0
 20
-69.820822625111191
 30
0.0
 11
-21.0
 21
-70.179177374888809
 31
0.0
  0
LINE
  5
265
100
AcDbEntity
  8
measurements
 62
256
370
-1
 48
1.0
  6
BYLAYER
100
AcDbLine
 10
-20.0
 20
-69.820822625111191
 30
0.0
 11
-20.0
 21
-70.179177374888809
 31
0.0
  0
LINE
  5
266
100
AcDbEntity
  8
measurements
 62
256
370
-1
 48
1.0
  6
BYLAYER
100
AcDbLine
 10
-19.0
 20
-69.820822625111191
 30
0.0
 11
-19.0
 21
-70.179177374888809
 31
0.0
  0
LINE
  5
267
100
AcDbEntity
  8
measurements
 62
256
370
-1
 48
1.0
  6
BYLAYER
100
AcDbLine
 10
-18.0
 20
-69.820822625111191
 30
0.0
 11
-18.0
 21
-70.179177374888809
 31
0.0
  0
LINE
  5
268
100
AcDbEntity
  8
measurements
 62
256
370
-1
 48
1.0
  6
BYLAYER
100
AcDbLine
 10
-17.0
 20
-69.820822625111191
 30
0.0
 11
-17.0
 21
-70.179177374888809
 31
0.0
  0
LINE
  5
269
100
AcDbEntity
  8
measurements
 62
256
370
-1
 48
1.0
  6
BYLAYER
100
AcDbLine
 10
-16.0
 20
-69.820822625111191
 30
0.0
 11
-16.0
 21
-70.179177374888809
 31
0.0
  0
LINE
  5
26A
100
AcDbEntity
  8
measurements
 62
256
370
-1
 48
1.0
  6
BYLAYER
100
AcDbLine
 10
-15.0
 20
-69.820822625111191
 30
0.0
 11
-15.0
 21
-70.179177374888809
 31
0.0
  0
LINE
  5
26B
100
AcDbEntity
  8
measurements
 62
256
370
-1
 48
1.0
  6
BYLAYER
100
AcDbLine
 10
-14.0
 20
-69.820822625111191
 30
0.0
 11
-14.0
 21
-70.179177374888809
 31
0.0
  0
LINE
  5
26C
100
AcDbEntity
  8
measurements
 62
256
370
-1
 48
1.0
  6
BYLAYER
100
AcDbLine
 10
-13.0
 20
-69.820822625111191
 30
0.0
 11
-13.0
 21
-70.179177374888809
 31
0.0
  0
LINE
  5
26D
100
AcDbEntity
  8
measurements
 62
256
370
-1
 48
1.0
  6
BYLAYER
100
AcDbLine
 10
-12.0
 20
-69.820822625111191
 30
0.0
 11
-12.0
 21
-70.179177374888809
 31
0.0
  0
LINE
  5
26E
100
AcDbEntity
  8
measurements
 62
256
370
-1
 48
1.0
  6
BYLAYER
100
AcDbLine
 10
-11.0
 20
-69.820822625111191
 30
0.0
 11
-11.0
 21
-70.179177374888809
 31
0.0
  0
LINE
  5
26F
100
AcDbEntity
  8
measurements
 62
256
370
-1
 48
1.0
  6
BYLAYER
100
AcDbLine
 10
-10.0
 20
-69.820822625111191
 30
0.0
 11
-10.0
 21
-70.179177374888809
 31
0.0
  0
LINE
  5
270
100
AcDbEntity
  8
measurements
 62
256
370
-1
 48
1.0
  6
BYLAYER
100
AcDbLine
 10
-9.0
 20
-69.820822625111191
 30
0.0
 11
-9.0
 21
-70.179177374888809
 31
0.0
  0
LINE
  5
271
100
AcDbEntity
  8
measurements
 62
256
370
-1
 48
1.0
  6
BYLAYER
100
AcDbLine
 10
-8.0
 20
-69.820822625111191
 30
0.0
 11
-8.0
 21
-70.179177374888809
 31
0.0
  0
LINE
  5
272
100
AcDbEntity
  8
measurements
 62
256
370
-1
 48
1.0
  6
BYLAYER
100
AcDbLine
 10
-7.0
 20
-69.820822625111191
 30
0.0
 11
-7.0
 21
-70.179177374888809
 31
0.0
  0
LINE
  5
273
100
AcDbEntity
  8
measurements
 62
256
370
-1
 48
1.0
  6
BYLAYER
100
AcDbLine
 10
-6.0
 20
-69.820822625111191
 30
0.0
 11
-6.0
 21
-70.179177374888809
 31
0.0
  0
LINE
  5
274
100
AcDbEntity
  8
measurements
 62
256
370
-1
 48
1.0
  6
BYLAYER
100
AcDbLine
 10
-5.0
 20
-69.820822625111191
 30
0.0
 11
-5.0
 21
-70.179177374888809
 31
0.0
  0
LINE
  5
275
100
AcDbEntity
  8
measurements
 62
256
370
-1
 48
1.0
  6
BYLAYER
100
AcDbLine
 10
-4.0
 20
-69.820822625111191
 30
0.0
 11
-4.0
 21
-70.179177374888809
 31
0.0
  0
LINE
  5
276
100
AcDbEntity
  8
measurements
 62
256
370
-1
 48
1.0
  6
BYLAYER
100
AcDbLine
 10
-3.0
 20
-69.820822625111191
 30
0.0
 11
-3.0
 21
-70.179177374888809
 31
0.0
  0
LINE
  5
277
100
AcDbEntity
  8
measurements
 62
256
370
-1
 48
1.0
  6
BYLAYER
100
AcDbLine
 10
-2.0
 20
-69.820822625111191
 30
0.0
 11
-2.0
 21
-70.179177374888809
 31
0.0
  0
LINE
  5
278
100
AcDbEntity
  8
measurements
 62
256
370
-1
 48
1.0
  6
BYLAYER
100
AcDbLine
 10
-1.0
 20
-69.820822625111191
 30
0.0
 11
-1.0
 21
-70.179177374888809
 31
0.0
  0
LINE
  5
279
100
AcDbEntity
  8
measurements
 62
256
370
-1
 48
1.0
  6
BYLAYER
100
AcDbLine
 10
0.0
 20
-69.820822625111191
 30
0.0
 11
-0.0
 21
-70.179177374888809
 31
0.0
  0
LINE
  5
27A
100
AcDbEntity
  8
measurements
 62
256
370
-1
 48
1.0
  6
BYLAYER
100
AcDbLine
 10
1.0
 20
-69.820822625111191
 30
0.0
 11
1.0
 21
-70.179177374888809
 31
0.0
  0
LINE
  5
27B
100
AcDbEntity
  8
measurements
 62
256
370
-1
 48
1.0
  6
BYLAYER
100
AcDbLine
 10
2.0
 20
-69.820822625111191
 30
0.0
 11
2.0
 21
-70.179177374888809
 31
0.0
  0
LINE
  5
27C
100
AcDbEntity
  8
measurements
 62
256
370
-1
 48
1.0
  6
BYLAYER
100
AcDbLine
 10
3.0
 20
-69.820822625111191
 30
0.0
 11
3.0
 21
-70.179177374888809
 31
0.0
  0
LINE
  5
27D
100
AcDbEntity
  8
measurements
 62
256
370
-1
 48
1.0
  6
BYLAYER
100
AcDbLine
 10
4.0
 20
-69.820822625111191
 30
0.0
 11
4.0
 21
-70.179177374888809
 31
0.0
  0
LINE
  5
27E
100
AcDbEntity
  8
measurements
 62
256
370
-1
 48
1.0
  6
BYLAYER
100
AcDbLine
 10
5.0
 20
-69.820822625111191
 30
0.0
 11
5.0
 21
-70.179177374888809
 31
0.0
  0
LINE
  5
27F
100
AcDbEntity
  8
measurements
 62
256
370
-1
 48
1.0
  6
BYLAYER
100
AcDbLine
 10
6.0
 20
-69.820822625111191
 30
0.0
 11
6.0
 21
-70.179177374888809
 31
0.0
  0
LINE
  5
280
100
AcDbEntity
  8
measurements
 62
256
370
-1
 48
1.0
  6
BYLAYER
100
AcDbLine
 10
7.0
 20
-69.820822625111191
 30
0.0
 11
7.0
 21
-70.179177374888809
 31
0.0
  0
LINE
  5
281
100
AcDbEntity
  8
measurements
 62
256
370
-1
 48
1.0
  6
BYLAYER
100
AcDbLine
 10
8.0
 20
-69.820822625111191
 30
0.0
 11
8.0
 21
-70.179177374888809
 31
0.0
  0
LINE
  5
282
100
AcDbEntity
  8
measurements
 62
256
370
-1
 48
1.0
  6
BYLAYER
100
AcDbLine
 10
9.0
 20
-69.820822625111191
 30
0.0
 11
9.0
 21
-70.179177374888809
 31
0.0
  0
LINE
  5
283
100
AcDbEntity
  8
measurements
 62
256
370
-1
 48
1.0
  6
BYLAYER
100
AcDbLine
 10
10.0
 20
-69.820822625111191
 30
0.0
 11
10.0
 21
-70.179177374888809
 31
0.0
  0
LINE
  5
284
100
AcDbEntity
  8
measurements
 62
256
370
-1
 48
1.0
  6
BYLAYER
100
AcDbLine
 10
11.0
 20
-69.820822625111191
 30
0.0
 11
11.0
 21
-70.179177374888809
 31
0.0
  0
LINE
  5
285
100
AcDbEntity
  8
measurements
 62
256
370
-1
 48
1.0
  6
BYLAYER
100
AcDbLine
 10
12.0
 20
-69.820822625111191
 30
0.0
 11
12.0
 21
-70.179177374888809
 31
0.0
  0
LINE
  5
286
100
AcDbEntity
  8
measurements
 62
256
370
-1
 48
1.0
  6
BYLAYER
100
AcDbLine
 10
13.0
 20
-69.820822625111191
 30
0.0
 11
13.0
 21
-70.179177374888809
 31
0.0
  0
LINE
  5
287
100
AcDbEntity
  8
measurements
 62
256
370
-1
 48
1.0
  6
BYLAYER
100
AcDbLine
 10
14.0
 20
-69.820822625111191
 30
0.0
 11
14.0
 21
-70.179177374888809
 31
0.0
  0
LINE
  5
288
100
AcDbEntity
  8
measurements
 62
256
370
-1
 48
1.0
  6
BYLAYER
100
AcDbLine
 10
15.0
 20
-69.820822625111191
 30
0.0
 11
15.0
 21
-70.179177374888809
 31
0.0
  0
LINE
  5
289
100
AcDbEntity
  8
measurements
 62
256
370
-1
 48
1.0
  6
BYLAYER
100
AcDbLine
 10
16.0
 20
-69.820822625111191
 30
0.0
 11
16.0
 21
-70.179177374888809
 31
0.0
  0
LINE
  5
28A
100
AcDbEntity
  8
measurements
 62
256
370
-1
 48
1.0
  6
BYLAYER
100
AcDbLine
 10
17.0
 20
-69.820822625111191
 30
0.0
 11
17.0
 21
-70.179177374888809
 31
0.0
  0
LINE
  5
28B
100
AcDbEntity
  8
measurements
 62
256
370
-1
 48
1.0
  6
BYLAYER
100
AcDbLine
 10
18.0
 20
-69.820822625111191
 30
0.0
 11
18.0
 21
-70.179177374888809
 31
0.0
  0
LINE
  5
28C
100
AcDbEntity
  8
measurements
 62
256
370
-1
 48
1.0
  6
BYLAYER
100
AcDbLine
 10
19.0
 20
-69.820822625111191
 30
0.0
 11
19.0
 21
-70.179177374888809
 31
0.0
  0
LINE
  5
28D
100
AcDbEntity
  8
measurements
 62
256
370
-1
 48
1.0
  6
BYLAYER
100
AcDbLine
 10
20.0
 20
-69.820822625111191
 30
0.0
 11
20.0
 21
-70.179177374888809
 31
0.0
  0
LINE
  5
28E
100
AcDbEntity
  8
measurements
 62
256
370
-1
 48
1.0
  6
BYLAYER
100
AcDbLine
 10
21.0
 20
-69.820822625111191
 30
0.0
 11
21.0
 21
-70.179177374888809
 31
0.0
  0
LINE
  5
28F
100
AcDbEntity
  8
measurements
 62
256
370
-1
 48
1.0
  6
BYLAYER
100
AcDbLine
 10
22.0
 20
-69.820822625111191
 30
0.0
 11
22.0
 21
-70.179177374888809
 31
0.0
  0
LINE
  5
290
100
AcDbEntity
  8
measurements
 62
256
370
-1
 48
1.0
  6
BYLAYER
100
AcDbLine
 10
23.0
 20
-69.820822625111191
 30
0.0
 11
23.0
 21
-70.179177374888809
 31
0.0
  0
LINE
  5
291
100
AcDbEntity
  8
measurements
 62
256
370
-1
 48
1.0
  6
BYLAYER
100
AcDbLine
 10
24.0
 20
-69.820822625111191
 30
0.0
 11
24.0
 21
-70.179177374888809
 31
0.0
  0
LINE
  5
292
100
AcDbEntity
  8
measurements
 62
256
370
-1
 48
1.0
  6
BYLAYER
100
AcDbLine
 10
25.0
 20
-69.820822625111191
 30
0.0
 11
25.0
 21
-70.179177374888809
 31
0.0
  0
LINE
  5
293
100
AcDbEntity
  8
measurements
 62
256
370
-1
 48
1.0
  6
BYLAYER
100
AcDbLine
 10
26.0
 20
-69.820822625111191
 30
0.0
 11
26.0
 21
-70.179177374888809
 31
0.0
  0
LINE
  5
294
100
AcDbEntity
  8
measurements
 62
256
370
-1
 48
1.0
  6
BYLAYER
100
AcDbLine
 10
27.0
 20
-69.820822625111191
 30
0.0
 11
27.0
 21
-70.179177374888809
 31
0.0
  0
LINE
  5
295
100
AcDbEntity
  8
measurements
 62
256
370
-1
 48
1.0
  6
BYLAYER
100
AcDbLine
 10
28.0
 20
-69.820822625111191
 30
0.0
 11
28.0
 21
-70.179177374888809
 31
0.0
  0
LINE
  5
296
100
AcDbEntity
  8
measurements
 62
256
370
-1
 48
1.0
  6
BYLAYER
100
AcDbLine
 10
29.0
 20
-69.820822625111191
 30
0.0
 11
29.0
 21
-70.179177374888809
 31
0.0
  0
LINE
  5
297
100
AcDbEntity
  8
measurements
 62
256
370
-1
 48
1.0
  6
BYLAYER
100
AcDbLine
 10
30.0
 20
-69.820822625111191
 30
0.0
 11
30.0
 21
-70.179177374888809
 31
0.0
  0
LINE
  5
298
100
AcDbEntity
  8
measurements
 62
256
370
-1
 48
1.0
  6
BYLAYER
100
AcDbLine
 10
31.0
 20
-69.820822625111191
 30
0.0
 11
31.0
 21
-70.179177374888809
 31
0.0
  0
LINE
  5
299
100
AcDbEntity
  8
measurements
 62
256
370
-1
 48
1.0
  6
BYLAYER
100
AcDbLine
 10
32.0
 20
-69.820822625111191
 30
0.0
 11
32.0
 21
-70.179177374888809
 31
0.0
  0
LINE
  5
29A
100
AcDbEntity
  8
measurements
 62
256
370
-1
 48
1.0
  6
BYLAYER
100
AcDbLine
 10
33.0
 20
-69.820822625111191
 30
0.0
 11
33.0
 21
-70.179177374888809
 31
0.0
  0
LINE
  5
29B
100
AcDbEntity
  8
measurements
 62
256
370
-1
 48
1.0
  6
BYLAYER
100
AcDbLine
 10
34.0
 20
-69.820822625111191
 30
0.0
 11
34.0
 21
-70.179177374888809
 31
0.0
  0
LINE
  5
29C
100
AcDbEntity
  8
measurements
 62
256
370
-1
 48
1.0
  6
BYLAYER
100
AcDbLine
 10
35.0
 20
-69.820822625111191
 30
0.0
 11
35.0
 21
-70.179177374888809
 31
0.0
  0
LINE
  5
29D
100
AcDbEntity
  8
measurements
 62
256
370
-1
 48
1.0
  6
BYLAYER
100
AcDbLine
 10
36.0
 20
-69.820822625111191
 30
0.0
 11
36.0
 21
-70.179177374888809
 31
0.0
  0
LINE
  5
29E
100
AcDbEntity
  8
measurements
 62
256
370
-1
 48
1.0
  6
BYLAYER
100
AcDbLine
 10
37.0
 20
-69.820822625111191
 30
0.0
 11
37.0
 21
-70.179177374888809
 31
0.0
  0
LINE
  5
29F
100
AcDbEntity
  8
measurements
 62
256
370
-1
 48
1.0
  6
BYLAYER
100
AcDbLine
 10
38.0
 20
-69.820822625111191
 30
0.0
 11
38.0
 21
-70.179177374888809
 31
0.0
  0
LINE
  5
2A0
100
AcDbEntity
  8
measurements
 62
256
370
-1
 48
1.0
  6
BYLAYER
100
AcDbLine
 10
39.0
 20
-69.820822625111191
 30
0.0
 11
39.0
 21
-70.179177374888809
 31
0.0
  0
LINE
  5
2A1
100
AcDbEntity
  8
measurements
 62
256
370
-1
 48
1.0
  6
BYLAYER
100
AcDbLine
 10
40.0
 20
-69.820822625111191
 30
0.0
 11
40.0
 21
-70.179177374888809
 31
0.0
  0
LINE
  5
2A2
100
AcDbEntity
  8
measurements
 62
256
370
-1
 48
1.0
  6
BYLAYER
100
AcDbLine
 10
41.0
 20
-69.820822625111191
 30
0.0
 11
41.0
 21
-70.179177374888809
 31
0.0
  0
LINE
  5
2A3
100
AcDbEntity
  8
measurements
 62
256
370
-1
 48
1.0
  6
BYLAYER
100
AcDbLine
 10
42.0
 20
-69.820822625111191
 30
0.0
 11
42.0
 21
-70.179177374888809
 31
0.0
  0
LINE
  5
2A4
100
AcDbEntity
  8
measurements
 62
256
370
-1
 48
1.0
  6
BYLAYER
100
AcDbLine
 10
43.0
 20
-69.820822625111191
 30
0.0
 11
43.0
 21
-70.179177374888809
 31
0.0
  0
LINE
  5
2A5
100
AcDbEntity
  8
measurements
 62
256
370
-1
 48
1.0
  6
BYLAYER
100
AcDbLine
 10
44.0
 20
-69.820822625111191
 30
0.0
 11
44.0
 21
-70.179177374888809
 31
0.0
  0
LINE
  5
2A6
100
AcDbEntity
  8
measurements
 62
256
370
-1
 48
1.0
  6
BYLAYER
100
AcDbLine
 10
45.0
 20
-69.820822625111191
 30
0.0
 11
45.0
 21
-70.179177374888809
 31
0.0
  0
LINE
  5
2A7
100
AcDbEntity
  8
measurements
 62
256
370
-1
 48
1.0
  6
BYLAYER
100
AcDbLine
 10
46.0
 20
-69.820822625111191
 30
0.0
 11
46.0
 21
-70.179177374888809
 31
0.0
  0
LINE
  5
2A8
100
AcDbEntity
  8
measurements
 62
256
370
-1
 48
1.0
  6
BYLAYER
100
AcDbLine
 10
47.0
 20
-69.820822625111191
 30
0.0
 11
47.0
 21
-70.179177374888809
 31
0.0
  0
LINE
  5
2A9
100
AcDbEntity
  8
measurements
 62
256
370
-1
 48
1.0
  6
BYLAYER
100
AcDbLine
 10
48.0
 20
-69.820822625111191
 30
0.0
 11
48.0
 21
-70.179177374888809
 31
0.0
  0
LINE
  5
2AA
100
AcDbEntity
  8
measurements
 62
256
370
-1
 48
1.0
  6
BYLAYER
100
AcDbLine
 10
49.0
 20
-69.820822625111191
 30
0.0
 11
49.0
 21
-70.179177374888809
 31
0.0
  0
LINE
  5
2AB
100
AcDbEntity
  8
measurements
 62
256
370
-1
 48
1.0
  6
BYLAYER
100
AcDbLine
 10
50.0
 20
-69.820822625111191
 30
0.0
 11
50.0
 21
-70.179177374888809
 31
0.0
  0
LINE
  5
2AC
100
AcDbEntity
  8
measurements
 62
256
370
-1
 48
1.0
  6
BYLAYER
100
AcDbLine
 10
51.0
 20
-69.820822625111191
 30
0.0
 11
51.0
 21
-70.179177374888809
 31
0.0
  0
LINE
  5
2AD
100
AcDbEntity
  8
measurements
 62
256
370
-1
 48
1.0
  6
BYLAYER
100
AcDbLine
 10
52.0
 20
-69.820822625111191
 30
0.0
 11
52.0
 21
-70.179177374888809
 31
0.0
  0
LINE
  5
2AE
100
AcDbEntity
  8
measurements
 62
256
370
-1
 48
1.0
  6
BYLAYER
100
AcDbLine
 10
53.0
 20
-69.820822625111191
 30
0.0
 11
53.0
 21
-70.179177374888809
 31
0.0
  0
LINE
  5
2AF
100
AcDbEntity
  8
measurements
 62
256
370
-1
 48
1.0
  6
BYLAYER
100
AcDbLine
 10
54.0
 20
-69.820822625111191
 30
0.0
 11
54.0
 21
-70.179177374888809
 31
0.0
  0
LINE
  5
2B0
100
AcDbEntity
  8
measurements
 62
256
370
-1
 48
1.0
  6
BYLAYER
100
AcDbLine
 10
55.0
 20
-69.820822625111191
 30
0.0
 11
55.0
 21
-70.179177374888809
 31
0.0
  0
LINE
  5
2B1
100
AcDbEntity
  8
measurements
 62
256
370
-1
 48
1.0
  6
BYLAYER
100
AcDbLine
 10
56.0
 20
-69.820822625111191
 30
0.0
 11
56.0
 21
-70.179177374888809
 31
0.0
  0
LINE
  5
2B2
100
AcDbEntity
  8
measurements
 62
256
370
-1
 48
1.0
  6
BYLAYER
100
AcDbLine
 10
57.0
 20
-69.820822625111191
 30
0.0
 11
57.0
 21
-70.179177374888809
 31
0.0
  0
LINE
  5
2B3
100
AcDbEntity
  8
measurements
 62
256
370
-1
 48
1.0
  6
BYLAYER
100
AcDbLine
 10
58.0
 20
-69.820822625111191
 30
0.0
 11
58.0
 21
-70.179177374888809
 31
0.0
  0
LINE
  5
2B4
100
AcDbEntity
  8
measurements
 62
256
370
-1
 48
1.0
  6
BYLAYER
100
AcDbLine
 10
59.0
 20
-69.820822625111191
 30
0.0
 11
59.0
 21
-70.179177374888809
 31
0.0
  0
LINE
  5
2B5
100
AcDbEntity
  8
measurements
 62
256
370
-1
 48
1.0
  6
BYLAYER
100
AcDbLine
 10
60.0
 20
-69.820822625111191
 30
0.0
 11
60.0
 21
-70.179177374888809
 31
0.0
  0
LINE
  5
2B6
100
AcDbEntity
  8
measurements
 62
256
370
-1
 48
1.0
  6
BYLAYER
100
AcDbLine
 10
61.0
 20
-69.820822625111191
 30
0.0
 11
61.0
 21
-70.179177374888809
 31
0.0
  0
LINE
  5
2B7
100
AcDbEntity
  8
measurements
 62
256
370
-1
 48
1.0
  6
BYLAYER
100
AcDbLine
 10
62.0
 20
-69.820822625111191
 30
0.0
 11
62.0
 21
-70.179177374888809
 31
0.0
  0
LINE
  5
2B8
100
AcDbEntity
  8
measurements
 62
256
370
-1
 48
1.0
  6
BYLAYER
100
AcDbLine
 10
63.0
 20
-69.820822625111191
 30
0.0
 11
63.0
 21
-70.179177374888809
 31
0.0
  0
LINE
  5
2B9
100
AcDbEntity
  8
measurements
 62
256
370
-1
 48
1.0
  6
BYLAYER
100
AcDbLine
 10
64.0
 20
-69.820822625111191
 30
0.0
 11
64.0
 21
-70.179177374888809
 31
0.0
  0
LINE
  5
2BA
100
AcDbEntity
  8
measurements
 62
256
370
-1
 48
1.0
  6
BYLAYER
100
AcDbLine
 10
65.0
 20
-69.820822625111191
 30
0.0
 11
65.0
 21
-70.179177374888809
 31
0.0
  0
LINE
  5
2BB
100
AcDbEntity
  8
measurements
 62
256
370
-1
 48
1.0
  6
BYLAYER
100
AcDbLine
 10
66.0
 20
-69.820822625111191
 30
0.0
 11
66.0
 21
-70.179177374888809
 31
0.0
  0
LINE
  5
2BC
100
AcDbEntity
  8
measurements
 62
256
370
-1
 48
1.0
  6
BYLAYER
100
AcDbLine
 10
67.0
 20
-69.820822625111191
 30
0.0
 11
67.0
 21
-70.179177374888809
 31
0.0
  0
LINE
  5
2BD
100
AcDbEntity
  8
measurements
 62
256
370
-1
 48
1.0
  6
BYLAYER
100
AcDbLine
 10
68.0
 20
-69.820822625111191
 30
0.0
 11
68.0
 21
-70.179177374888809
 31
0.0
  0
LINE
  5
2BE
100
AcDbEntity
  8
measurements
 62
256
370
-1
 48
1.0
  6
BYLAYER
100
AcDbLine
 10
69.0
 20
-69.820822625111191
 30
0.0
 11
69.0
 21
-70.179177374888809
 31
0.0
  0
LINE
  5
2BF
100
AcDbEntity
  8
measurements
 62
256
370
-1
 48
1.0
  6
BYLAYER
100
AcDbLine
 10
70.0
 20
-69.820822625111191
 30
0.0
 11
70.0
 21
-70.179177374888809
 31
0.0
  0
LINE
  5
2C0
100
AcDbEntity
  8
measurements
 62
256
370
-1
 48
1.0
  6
BYLAYER
100
AcDbLine
 10
71.0
 20
-69.820822625111191
 30
0.0
 11
71.0
 21
-70.179177374888809
 31
0.0
  0
LINE
  5
2C1
100
AcDbEntity
  8
measurements
 62
256
370
-1
 48
1.0
  6
BYLAYER
100
AcDbLine
 10
72.0
 20
-69.820822625111191
 30
0.0
 11
72.0
 21
-70.179177374888809
 31
0.0
  0
LINE
  5
2C2
100
AcDbEntity
  8
measurements
 62
256
370
-1
 48
1.0
  6
BYLAYER
100
AcDbLine
 10
73.0
 20
-69.820822625111191
 30
0.0
 11
73.0
 21
-70.179177374888809
 31
0.0
  0
LINE
  5
2C3
100
AcDbEntity
  8
measurements
 62
256
370
-1
 48
1.0
  6
BYLAYER
100
AcDbLine
 10
74.0
 20
-69.820822625111191
 30
0.0
 11
74.0
 21
-70.179177374888809
 31
0.0
  0
LINE
  5
2C4
100
AcDbEntity
  8
measurements
 62
256
370
-1
 48
1.0
  6
BYLAYER
100
AcDbLine
 10
75.0
 20
-69.820822625111191
 30
0.0
 11
75.0
 21
-70.179177374888809
 31
0.0
  0
LINE
  5
2C5
100
AcDbEntity
  8
measurements
 62
256
370
-1
 48
1.0
  6
BYLAYER
100
AcDbLine
 10
76.0
 20
-69.820822625111191
 30
0.0
 11
76.0
 21
-70.179177374888809
 31
0.0
  0
LINE
  5
2C6
100
AcDbEntity
  8
measurements
 62
256
370
-1
 48
1.0
  6
BYLAYER
100
AcDbLine
 10
77.0
 20
-69.820822625111191
 30
0.0
 11
77.0
 21
-70.179177374888809
 31
0.0
  0
LINE
  5
2C7
100
AcDbEntity
  8
measurements
 62
256
370
-1
 48
1.0
  6
BYLAYER
100
AcDbLine
 10
78.0
 20
-69.820822625111191
 30
0.0
 11
78.0
 21
-70.179177374888809
 31
0.0
  0
LINE
  5
2C8
100
AcDbEntity
  8
measurements
 62
256
370
-1
 48
1.0
  6
BYLAYER
100
AcDbLine
 10
79.0
 20
-69.820822625111191
 30
0.0
 11
79.0
 21
-70.179177374888809
 31
0.0
  0
LINE
  5
2C9
100
AcDbEntity
  8
measurements
 62
256
370
-1
 48
1.0
  6
BYLAYER
100
AcDbLine
 10
80.0
 20
-69.820822625111191
 30
0.0
 11
80.0
 21
-70.179177374888809
 31
0.0
  0
LINE
  5
2CA
100
AcDbEntity
  8
measurements
 62
256
370
-1
 48
1.0
  6
BYLAYER
100
AcDbLine
 10
81.0
 20
-69.820822625111191
 30
0.0
 11
81.0
 21
-70.179177374888809
 31
0.0
  0
LINE
  5
2CB
100
AcDbEntity
  8
measurements
 62
256
370
-1
 48
1.0
  6
BYLAYER
100
AcDbLine
 10
82.0
 20
-69.820822625111191
 30
0.0
 11
82.0
 21
-70.179177374888809
 31
0.0
  0
LINE
  5
2CC
100
AcDbEntity
  8
measurements
 62
256
370
-1
 48
1.0
  6
BYLAYER
100
AcDbLine
 10
83.0
 20
-69.820822625111191
 30
0.0
 11
83.0
 21
-70.179177374888809
 31
0.0
  0
LINE
  5
2CD
100
AcDbEntity
  8
measurements
 62
256
370
-1
 48
1.0
  6
BYLAYER
100
AcDbLine
 10
84.0
 20
-69.820822625111191
 30
0.0
 11
84.0
 21
-70.179177374888809
 31
0.0
  0
LINE
  5
2CE
100
AcDbEntity
  8
measurements
 62
256
370
-1
 48
1.0
  6
BYLAYER
100
AcDbLine
 10
85.0
 20
-69.820822625111191
 30
0.0
 11
85.0
 21
-70.179177374888809
 31
0.0
  0
LINE
  5
2CF
100
AcDbEntity
  8
measurements
 62
256
370
-1
 48
1.0
  6
BYLAYER
100
AcDbLine
 10
86.0
 20
-69.820822625111191
 30
0.0
 11
86.0
 21
-70.179177374888809
 31
0.0
  0
LINE
  5
2D0
100
AcDbEntity
  8
measurements
 62
256
370
-1
 48
1.0
  6
BYLAYER
100
AcDbLine
 10
87.0
 20
-69.820822625111191
 30
0.0
 11
87.0
 21
-70.179177374888809
 31
0.0
  0
LINE
  5
2D1
100
AcDbEntity
  8
measurements
 62
256
370
-1
 48
1.0
  6
BYLAYER
100
AcDbLine
 10
88.0
 20
-69.820822625111191
 30
0.0
 11
88.0
 21
-70.179177374888809
 31
0.0
  0
LINE
  5
2D2
100
AcDbEntity
  8
measurements
 62
256
370
-1
 48
1.0
  6
BYLAYER
100
AcDbLine
 10
89.0
 20
-69.820822625111191
 30
0.0
 11
89.0
 21
-70.179177374888809
 31
0.0
  0
LINE
  5
2D3
100
AcDbEntity
  8
measurements
 62
256
370
-1
 48
1.0
  6
BYLAYER
100
AcDbLine
 10
90.0
 20
-69.820822625111191
 30
0.0
 11
90.0
 21
-70.179177374888809
 31
0.0
  0
LINE
  5
2D4
100
AcDbEntity
  8
measurements
 62
256
370
-1
 48
1.0
  6
BYLAYER
100
AcDbLine
 10
91.0
 20
-69.820822625111191
 30
0.0
 11
91.0
 21
-70.179177374888809
 31
0.0
  0
LINE
  5
2D5
100
AcDbEntity
  8
measurements
 62
256
370
-1
 48
1.0
  6
BYLAYER
100
AcDbLine
 10
92.0
 20
-69.820822625111191
 30
0.0
 11
92.0
 21
-70.179177374888809
 31
0.0
  0
LINE
  5
2D6
100
AcDbEntity
  8
measurements
 62
256
370
-1
 48
1.0
  6
BYLAYER
100
AcDbLine
 10
93.0
 20
-69.820822625111191
 30
0.0
 11
93.0
 21
-70.179177374888809
 31
0.0
  0
LINE
  5
2D7
100
AcDbEntity
  8
measurements
 62
256
370
-1
 48
1.0
  6
BYLAYER
100
AcDbLine
 10
94.0
 20
-69.820822625111191
 30
0.0
 11
94.0
 21
-70.179177374888809
 31
0.0
  0
LINE
  5
2D8
100
AcDbEntity
  8
measurements
 62
256
370
-1
 48
1.0
  6
BYLAYER
100
AcDbLine
 10
95.0
 20
-69.820822625111191
 30
0.0
 11
95.0
 21
-70.179177374888809
 31
0.0
  0
LINE
  5
2D9
100
AcDbEntity
  8
measurements
 62
256
370
-1
 48
1.0
  6
BYLAYER
100
AcDbLine
 10
96.0
 20
-69.820822625111191
 30
0.0
 11
96.0
 21
-70.179177374888809
 31
0.0
  0
LINE
  5
2DA
100
AcDbEntity
  8
measurements
 62
256
370
-1
 48
1.0
  6
BYLAYER
100
AcDbLine
 10
97.0
 20
-69.820822625111191
 30
0.0
 11
97.0
 21
-70.179177374888809
 31
0.0
  0
LINE
  5
2DB
100
AcDbEntity
  8
measurements
 62
256
370
-1
 48
1.0
  6
BYLAYER
100
AcDbLine
 10
98.0
 20
-69.820822625111191
 30
0.0
 11
98.0
 21
-70.179177374888809
 31
0.0
  0
LINE
  5
2DC
100
AcDbEntity
  8
measurements
 62
256
370
-1
 48
1.0
  6
BYLAYER
100
AcDbLine
 10
99.0
 20
-69.820822625111191
 30
0.0
 11
99.0
 21
-70.179177374888809
 31
0.0
  0
LINE
  5
2DD
100
AcDbEntity
  8
measurements
 62
256
370
-1
 48
1.0
  6
BYLAYER
100
AcDbLine
 10
100.0
 20
-69.820822625111191
 30
0.0
 11
100.0
 21
-70.179177374888809
 31
0.0
  0
LINE
  5
2DE
100
AcDbEntity
  8
measurements
 62
256
370
-1
 48
1.0
  6
BYLAYER
100
AcDbLine
 10
101.0
 20
-69.820822625111191
 30
0.0
 11
101.0
 21
-70.179177374888809
 31
0.0
  0
LINE
  5
2DF
100
AcDbEntity
  8
measurements
 62
256
370
-1
 48
1.0
  6
BYLAYER
100
AcDbLine
 10
102.0
 20
-69.820822625111191
 30
0.0
 11
102.0
 21
-70.179177374888809
 31
0.0
  0
LINE
  5
2E0
100
AcDbEntity
  8
measurements
 62
256
370
-1
 48
1.0
  6
BYLAYER
100
AcDbLine
 10
103.0
 20
-69.820822625111191
 30
0.0
 11
103.0
 21
-70.179177374888809
 31
0.0
  0
LINE
  5
2E1
100
AcDbEntity
  8
measurements
 62
256
370
-1
 48
1.0
  6
BYLAYER
100
AcDbLine
 10
104.0
 20
-69.820822625111191
 30
0.0
 11
104.0
 21
-70.179177374888809
 31
0.0
  0
LINE
  5
2E2
100
AcDbEntity
  8
measurements
 62
256
370
-1
 48
1.0
  6
BYLAYER
100
AcDbLine
 10
105.0
 20
-69.820822625111191
 30
0.0
 11
105.0
 21
-70.179177374888809
 31
0.0
  0
LINE
  5
2E3
100
AcDbEntity
  8
measurements
 62
256
370
-1
 48
1.0
  6
BYLAYER
100
AcDbLine
 10
106.0
 20
-69.820822625111191
 30
0.0
 11
106.0
 21
-70.179177374888809
 31
0.0
  0
LINE
  5
2E4
100
AcDbEntity
  8
measurements
 62
256
370
-1
 48
1.0
  6
BYLAYER
100
AcDbLine
 10
107.0
 20
-69.820822625111191
 30
0.0
 11
107.0
 21
-70.179177374888809
 31
0.0
  0
LINE
  5
2E5
100
AcDbEntity
  8
measurements
 62
256
370
-1
 48
1.0
  6
BYLAYER
100
AcDbLine
 10
108.0
 20
-69.820822625111191
 30
0.0
 11
108.0
 21
-70.179177374888809
 31
0.0
  0
LINE
  5
2E6
100
AcDbEntity
  8
measurements
 62
256
370
-1
 48
1.0
  6
BYLAYER
100
AcDbLine
 10
109.0
 20
-69.820822625111191
 30
0.0
 11
109.0
 21
-70.179177374888809
 31
0.0
  0
LINE
  5
2E7
100
AcDbEntity
  8
measurements
 62
256
370
-1
 48
1.0
  6
BYLAYER
100
AcDbLine
 10
110.0
 20
-69.820822625111191
 30
0.0
 11
110.0
 21
-70.179177374888809
 31
0.0
  0
LINE
  5
2E8
100
AcDbEntity
  8
measurements
 62
256
370
-1
 48
1.0
  6
BYLAYER
100
AcDbLine
 10
111.0
 20
-69.820822625111191
 30
0.0
 11
111.0
 21
-70.179177374888809
 31
0.0
  0
LINE
  5
2E9
100
AcDbEntity
  8
measurements
 62
256
370
-1
 48
1.0
  6
BYLAYER
100
AcDbLine
 10
112.0
 20
-69.820822625111191
 30
0.0
 11
112.0
 21
-70.179177374888809
 31
0.0
  0
LINE
  5
2EA
100
AcDbEntity
  8
measurements
 62
256
370
-1
 48
1.0
  6
BYLAYER
100
AcDbLine
 10
113.0
 20
-69.820822625111191
 30
0.0
 11
113.0
 21
-70.179177374888809
 31
0.0
  0
LINE
  5
2EB
100
AcDbEntity
  8
measurements
 62
256
370
-1
 48
1.0
  6
BYLAYER
100
AcDbLine
 10
114.0
 20
-69.820822625111191
 30
0.0
 11
114.0
 21
-70.179177374888809
 31
0.0
  0
LINE
  5
2EC
100
AcDbEntity
  8
measurements
 62
256
370
-1
 48
1.0
  6
BYLAYER
100
AcDbLine
 10
115.0
 20
-69.820822625111191
 30
0.0
 11
115.0
 21
-70.179177374888809
 31
0.0
  0
LINE
  5
2ED
100
AcDbEntity
  8
measurements
 62
256
370
-1
 48
1.0
  6
BYLAYER
100
AcDbLine
 10
116.0
 20
-69.820822625111191
 30
0.0
 11
116.0
 21
-70.179177374888809
 31
0.0
  0
LINE
  5
2EE
100
AcDbEntity
  8
measurements
 62
256
370
-1
 48
1.0
  6
BYLAYER
100
AcDbLine
 10
117.0
 20
-69.820822625111191
 30
0.0
 11
117.0
 21
-70.179177374888809
 31
0.0
  0
LINE
  5
2EF
100
AcDbEntity
  8
measurements
 62
256
370
-1
 48
1.0
  6
BYLAYER
100
AcDbLine
 10
118.0
 20
-69.820822625111191
 30
0.0
 11
118.0
 21
-70.179177374888809
 31
0.0
  0
LINE
  5
2F0
100
AcDbEntity
  8
measurements
 62
256
370
-1
 48
1.0
  6
BYLAYER
100
AcDbLine
 10
119.0
 20
-69.820822625111191
 30
0.0
 11
119.0
 21
-70.179177374888809
 31
0.0
  0
LINE
  5
2F1
100
AcDbEntity
  8
measurements
 62
256
370
-1
 48
1.0
  6
BYLAYER
100
AcDbLine
 10
120.0
 20
-69.820822625111191
 30
0.0
 11
120.0
 21
-70.179177374888809
 31
0.0
  0
LINE
  5
2F2
100
AcDbEntity
  8
measurements
 62
256
370
-1
 48
1.0
  6
BYLAYER
100
AcDbLine
 10
121.0
 20
-69.820822625111191
 30
0.0
 11
121.0
 21
-70.179177374888809
 31
0.0
  0
LINE
  5
2F3
100
AcDbEntity
  8
measurements
 62
256
370
-1
 48
1.0
  6
BYLAYER
100
AcDbLine
 10
122.0
 20
-69.820822625111191
 30
0.0
 11
122.0
 21
-70.179177374888809
 31
0.0
  0
LINE
  5
2F4
100
AcDbEntity
  8
measurements
 62
256
370
-1
 48
1.0
  6
BYLAYER
100
AcDbLine
 10
123.0
 20
-69.820822625111191
 30
0.0
 11
123.0
 21
-70.179177374888809
 31
0.0
  0
LINE
  5
2F5
100
AcDbEntity
  8
measurements
 62
256
370
-1
 48
1.0
  6
BYLAYER
100
AcDbLine
 10
124.0
 20
-69.820822625111191
 30
0.0
 11
124.0
 21
-70.179177374888809
 31
0.0
  0
LINE
  5
2F6
100
AcDbEntity
  8
measurements
 62
256
370
-1
 48
1.0
  6
BYLAYER
100
AcDbLine
 10
125.0
 20
-69.820822625111191
 30
0.0
 11
125.0
 21
-70.179177374888809
 31
0.0
  0
LINE
  5
2F7
100
AcDbEntity
  8
measurements
 62
256
370
-1
 48
1.0
  6
BYLAYER
100
AcDbLine
 10
126.0
 20
-69.820822625111191
 30
0.0
 11
126.0
 21
-70.179177374888809
 31
0.0
  0
LINE
  5
2F8
100
AcDbEntity
  8
measurements
 62
256
370
-1
 48
1.0
  6
BYLAYER
100
AcDbLine
 10
127.0
 20
-69.820822625111191
 30
0.0
 11
127.0
 21
-70.179177374888809
 31
0.0
  0
LINE
  5
2F9
100
AcDbEntity
  8
measurements
 62
256
370
-1
 48
1.0
  6
BYLAYER
100
AcDbLine
 10
128.0
 20
-69.820822625111191
 30
0.0
 11
128.0
 21
-70.179177374888809
 31
0.0
  0
LINE
  5
2FA
100
AcDbEntity
  8
measurements
 62
256
370
-1
 48
1.0
  6
BYLAYER
100
AcDbLine
 10
129.0
 20
-69.820822625111191
 30
0.0
 11
129.0
 21
-70.179177374888809
 31
0.0
  0
LINE
  5
2FB
100
AcDbEntity
  8
measurements
 62
256
370
-1
 48
1.0
  6
BYLAYER
100
AcDbLine
 10
130.0
 20
-69.820822625111191
 30
0.0
 11
130.0
 21
-70.179177374888809
 31
0.0
  0
LINE
  5
2FC
100
AcDbEntity
  8
measurements
 62
256
370
-1
 48
1.0
  6
BYLAYER
100
AcDbLine
 10
131.0
 20
-69.820822625111191
 30
0.0
 11
131.0
 21
-70.179177374888809
 31
0.0
  0
LINE
  5
2FD
100
AcDbEntity
  8
measurements
 62
256
370
-1
 48
1.0
  6
BYLAYER
100
AcDbLine
 10
132.0
 20
-69.820822625111191
 30
0.0
 11
132.0
 21
-70.179177374888809
 31
0.0
  0
LINE
  5
2FE
100
AcDbEntity
  8
measurements
 62
256
370
-1
 48
1.0
  6
BYLAYER
100
AcDbLine
 10
133.0
 20
-69.820822625111191
 30
0.0
 11
133.0
 21
-70.179177374888809
 31
0.0
  0
LINE
  5
2FF
100
AcDbEntity
  8
measurements
 62
256
370
-1
 48
1.0
  6
BYLAYER
100
AcDbLine
 10
134.0
 20
-69.820822625111191
 30
0.0
 11
134.0
 21
-70.179177374888809
 31
0.0
  0
LINE
  5
300
100
AcDbEntity
  8
measurements
 62
256
370
-1
 48
1.0
  6
BYLAYER
100
AcDbLine
 10
135.0
 20
-69.820822625111191
 30
0.0
 11
135.0
 21
-70.179177374888809
 31
0.0
  0
LINE
  5
301
100
AcDbEntity
  8
measurements
 62
256
370
-1
 48
1.0
  6
BYLAYER
100
AcDbLine
 10
136.0
 20
-69.820822625111191
 30
0.0
 11
136.0
 21
-70.179177374888809
 31
0.0
  0
LINE
  5
302
100
AcDbEntity
  8
measurements
 62
256
370
-1
 48
1.0
  6
BYLAYER
100
AcDbLine
 10
137.0
 20
-69.820822625111191
 30
0.0
 11
137.0
 21
-70.179177374888809
 31
0.0
  0
LINE
  5
303
100
AcDbEntity
  8
measurements
 62
256
370
-1
 48
1.0
  6
BYLAYER
100
AcDbLine
 10
138.0
 20
-69.820822625111191
 30
0.0
 11
138.0
 21
-70.179177374888809
 31
0.0
  0
LINE
  5
304
100
AcDbEntity
  8
measurements
 62
256
370
-1
 48
1.0
  6
BYLAYER
100
AcDbLine
 10
139.0
 20
-69.820822625111191
 30
0.0
 11
139.0
 21
-70.179177374888809
 31
0.0
  0
LINE
  5
305
100
AcDbEntity
  8
measurements
 62
256
370
-1
 48
1.0
  6
BYLAYER
100
AcDbLine
 10
140.0
 20
-69.820822625111191
 30
0.0
 11
140.0
 21
-70.179177374888809
 31
0.0
  0
LINE
  5
306
100
AcDbEntity
  8
measurements
 62
256
370
-1
 48
1.0
  6
BYLAYER
100
AcDbLine
 10
141.0
 20
-69.820822625111191
 30
0.0
 11
141.0
 21
-70.179177374888809
 31
0.0
  0
LINE
  5
307
100
AcDbEntity
  8
measurements
 62
256
370
-1
 48
1.0
  6
BYLAYER
100
AcDbLine
 10
142.0
 20
-69.820822625111191
 30
0.0
 11
142.0
 21
-70.179177374888809
 31
0.0
  0
LINE
  5
308
100
AcDbEntity
  8
measurements
 62
256
370
-1
 48
1.0
  6
BYLAYER
100
AcDbLine
 10
143.0
 20
-69.820822625111191
 30
0.0
 11
143.0
 21
-70.179177374888809
 31
0.0
  0
LINE
  5
309
100
AcDbEntity
  8
measurements
 62
256
370
-1
 48
1.0
  6
BYLAYER
100
AcDbLine
 10
144.0
 20
-69.820822625111191
 30
0.0
 11
144.0
 21
-70.179177374888809
 31
0.0
  0
LINE
  5
30A
100
AcDbEntity
  8
measurements
 62
256
370
-1
 48
1.0
  6
BYLAYER
100
AcDbLine
 10
145.0
 20
-69.820822625111191
 30
0.0
 11
145.0
 21
-70.179177374888809
 31
0.0
  0
LINE
  5
30B
100
AcDbEntity
  8
measurements
 62
256
370
-1
 48
1.0
  6
BYLAYER
100
AcDbLine
 10
146.0
 20
-69.820822625111191
 30
0.0
 11
146.0
 21
-70.179177374888809
 31
0.0
  0
LINE
  5
30C
100
AcDbEntity
  8
measurements
 62
256
370
-1
 48
1.0
  6
BYLAYER
100
AcDbLine
 10
147.0
 20
-69.820822625111191
 30
0.0
 11
147.0
 21
-70.179177374888809
 31
0.0
  0
LINE
  5
30D
100
AcDbEntity
  8
measurements
 62
256
370
-1
 48
1.0
  6
BYLAYER
100
AcDbLine
 10
148.0
 20
-69.820822625111191
 30
0.0
 11
148.0
 21
-70.179177374888809
 31
0.0
  0
LINE
  5
30E
100
AcDbEntity
  8
measurements
 62
256
370
-1
 48
1.0
  6
BYLAYER
100
AcDbLine
 10
149.0
 20
-69.820822625111191
 30
0.0
 11
149.0
 21
-70.179177374888809
 31
0.0
  0
LINE
  5
30F
100
AcDbEntity
  8
measurements
 62
256
370
-1
 48
1.0
  6
BYLAYER
100
AcDbLine
 10
150.0
 20
-69.820822625111191
 30
0.0
 11
150.0
 21
-70.179177374888809
 31
0.0
  0
LINE
  5
310
100
AcDbEntity
  8
measurements
 62
256
370
-1
 48
1.0
  6
BYLAYER
100
AcDbLine
 10
151.0
 20
-69.820822625111191
 30
0.0
 11
151.0
 21
-70.179177374888809
 31
0.0
  0
LINE
  5
311
100
AcDbEntity
  8
measurements
 62
256
370
-1
 48
1.0
  6
BYLAYER
100
AcDbLine
 10
152.0
 20
-69.820822625111191
 30
0.0
 11
152.0
 21
-70.179177374888809
 31
0.0
  0
LINE
  5
312
100
AcDbEntity
  8
measurements
 62
256
370
-1
 48
1.0
  6
BYLAYER
100
AcDbLine
 10
153.0
 20
-69.820822625111191
 30
0.0
 11
153.0
 21
-70.179177374888809
 31
0.0
  0
LINE
  5
313
100
AcDbEntity
  8
measurements
 62
256
370
-1
 48
1.0
  6
BYLAYER
100
AcDbLine
 10
154.0
 20
-69.820822625111191
 30
0.0
 11
154.0
 21
-70.179177374888809
 31
0.0
  0
LINE
  5
314
100
AcDbEntity
  8
measurements
 62
256
370
-1
 48
1.0
  6
BYLAYER
100
AcDbLine
 10
155.0
 20
-69.820822625111191
 30
0.0
 11
155.0
 21
-70.179177374888809
 31
0.0
  0
LINE
  5
315
100
AcDbEntity
  8
measurements
 62
256
370
-1
 48
1.0
  6
BYLAYER
100
AcDbLine
 10
156.0
 20
-69.820822625111191
 30
0.0
 11
156.0
 21
-70.179177374888809
 31
0.0
  0
LINE
  5
316
100
AcDbEntity
  8
measurements
 62
256
370
-1
 48
1.0
  6
BYLAYER
100
AcDbLine
 10
157.0
 20
-69.820822625111191
 30
0.0
 11
157.0
 21
-70.179177374888809
 31
0.0
  0
LINE
  5
317
100
AcDbEntity
  8
measurements
 62
256
370
-1
 48
1.0
  6
BYLAYER
100
AcDbLine
 10
158.0
 20
-69.820822625111191
 30
0.0
 11
158.0
 21
-70.179177374888809
 31
0.0
  0
LINE
  5
318
100
AcDbEntity
  8
measurements
 62
256
370
-1
 48
1.0
  6
BYLAYER
100
AcDbLine
 10
159.0
 20
-69.820822625111191
 30
0.0
 11
159.0
 21
-70.179177374888809
 31
0.0
  0
LINE
  5
319
100
AcDbEntity
  8
measurements
 62
256
370
-1
 48
1.0
  6
BYLAYER
100
AcDbLine
 10
160.0
 20
-69.820822625111191
 30
0.0
 11
160.0
 21
-70.179177374888809
 31
0.0
  0
LINE
  5
31A
100
AcDbEntity
  8
measurements
 62
256
370
-1
 48
1.0
  6
BYLAYER
100
AcDbLine
 10
161.0
 20
-69.820822625111191
 30
0.0
 11
161.0
 21
-70.179177374888809
 31
0.0
  0
LINE
  5
31B
100
AcDbEntity
  8
measurements
 62
256
370
-1
 48
1.0
  6
BYLAYER
100
AcDbLine
 10
162.0
 20
-69.820822625111191
 30
0.0
 11
162.0
 21
-70.179177374888809
 31
0.0
  0
LINE
  5
31C
100
AcDbEntity
  8
measurements
 62
256
370
-1
 48
1.0
  6
BYLAYER
100
AcDbLine
 10
163.0
 20
-69.820822625111191
 30
0.0
 11
163.0
 21
-70.179177374888809
 31
0.0
  0
LINE
  5
31D
100
AcDbEntity
  8
measurements
 62
256
370
-1
 48
1.0
  6
BYLAYER
100
AcDbLine
 10
164.0
 20
-69.820822625111191
 30
0.0
 11
164.0
 21
-70.179177374888809
 31
0.0
  0
LINE
  5
31E
100
AcDbEntity
  8
measurements
 62
256
370
-1
 48
1.0
  6
BYLAYER
100
AcDbLine
 10
165.0
 20
-69.820822625111191
 30
0.0
 11
165.0
 21
-70.179177374888809
 31
0.0
  0
LINE
  5
31F
100
AcDbEntity
  8
measurements
 62
256
370
-1
 48
1.0
  6
BYLAYER
100
AcDbLine
 10
166.0
 20
-69.820822625111191
 30
0.0
 11
166.0
 21
-70.179177374888809
 31
0.0
  0
LINE
  5
320
100
AcDbEntity
  8
measurements
 62
256
370
-1
 48
1.0
  6
BYLAYER
100
AcDbLine
 10
167.0
 20
-69.820822625111191
 30
0.0
 11
167.0
 21
-70.179177374888809
 31
0.0
  0
LINE
  5
321
100
AcDbEntity
  8
measurements
 62
256
370
-1
 48
1.0
  6
BYLAYER
100
AcDbLine
 10
168.0
 20
-69.820822625111191
 30
0.0
 11
168.0
 21
-70.179177374888809
 31
0.0
  0
LINE
  5
322
100
AcDbEntity
  8
measurements
 62
256
370
-1
 48
1.0
  6
BYLAYER
100
AcDbLine
 10
169.0
 20
-69.820822625111191
 30
0.0
 11
169.0
 21
-70.179177374888809
 31
0.0
  0
LINE
  5
323
100
AcDbEntity
  8
measurements
 62
256
370
-1
 48
1.0
  6
BYLAYER
100
AcDbLine
 10
170.0
 20
-69.820822625111191
 30
0.0
 11
170.0
 21
-70.179177374888809
 31
0.0
  0
LINE
  5
324
100
AcDbEntity
  8
measurements
 62
256
370
-1
 48
1.0
  6
BYLAYER
100
AcDbLine
 10
171.0
 20
-69.820822625111191
 30
0.0
 11
171.0
 21
-70.179177374888809
 31
0.0
  0
LINE
  5
325
100
AcDbEntity
  8
measurements
 62
256
370
-1
 48
1.0
  6
BYLAYER
100
AcDbLine
 10
172.0
 20
-69.820822625111191
 30
0.0
 11
172.0
 21
-70.179177374888809
 31
0.0
  0
LINE
  5
326
100
AcDbEntity
  8
measurements
 62
256
370
-1
 48
1.0
  6
BYLAYER
100
AcDbLine
 10
173.0
 20
-69.820822625111191
 30
0.0
 11
173.0
 21
-70.179177374888809
 31
0.0
  0
LINE
  5
327
100
AcDbEntity
  8
measurements
 62
256
370
-1
 48
1.0
  6
BYLAYER
100
AcDbLine
 10
174.0
 20
-69.820822625111191
 30
0.0
 11
174.0
 21
-70.179177374888809
 31
0.0
  0
LINE
  5
328
100
AcDbEntity
  8
measurements
 62
256
370
-1
 48
1.0
  6
BYLAYER
100
AcDbLine
 10
175.0
 20
-69.820822625111191
 30
0.0
 11
175.0
 21
-70.179177374888809
 31
0.0
  0
LINE
  5
329
100
AcDbEntity
  8
measurements
 62
256
370
-1
 48
1.0
  6
BYLAYER
100
AcDbLine
 10
176.0
 20
-69.820822625111191
 30
0.0
 11
176.0
 21
-70.179177374888809
 31
0.0
  0
LINE
  5
32A
100
AcDbEntity
  8
measurements
 62
256
370
-1
 48
1.0
  6
BYLAYER
100
AcDbLine
 10
177.0
 20
-69.820822625111191
 30
0.0
 11
177.0
 21
-70.179177374888809
 31
0.0
  0
LINE
  5
32B
100
AcDbEntity
  8
measurements
 62
256
370
-1
 48
1.0
  6
BYLAYER
100
AcDbLine
 10
178.0
 20
-69.820822625111191
 30
0.0
 11
178.0
 21
-70.179177374888809
 31
0.0
  0
LINE
  5
32C
100
AcDbEntity
  8
measurements
 62
256
370
-1
 48
1.0
  6
BYLAYER
100
AcDbLine
 10
179.0
 20
-69.820822625111191
 30
0.0
 11
179.0
 21
-70.179177374888809
 31
0.0
  0
LINE
  5
32D
100
AcDbEntity
  8
measurements
 62
256
370
-1
 48
1.0
  6
BYLAYER
100
AcDbLine
 10
180.0
 20
-69.820822625111191
 30
0.0
 11
180.0
 21
-70.179177374888809
 31
0.0
  0
LINE
  5
32E
100
AcDbEntity
  8
measurements
 62
256
370
-1
 48
1.0
  6
BYLAYER
100
AcDbLine
 10
181.0
 20
-69.820822625111191
 30
0.0
 11
181.0
 21
-70.179177374888809
 31
0.0
  0
LINE
  5
32F
100
AcDbEntity
  8
measurements
 62
256
370
-1
 48
1.0
  6
BYLAYER
100
AcDbLine
 10
182.0
 20
-69.820822625111191
 30
0.0
 11
182.0
 21
-70.179177374888809
 31
0.0
  0
LINE
  5
330
100
AcDbEntity
  8
measurements
 62
256
370
-1
 48
1.0
  6
BYLAYER
100
AcDbLine
 10
183.0
 20
-69.820822625111191
 30
0.0
 11
183.0
 21
-70.179177374888809
 31
0.0
  0
LINE
  5
331
100
AcDbEntity
  8
measurements
 62
256
370
-1
 48
1.0
  6
BYLAYER
100
AcDbLine
 10
184.0
 20
-69.820822625111191
 30
0.0
 11
184.0
 21
-70.179177374888809
 31
0.0
  0
LINE
  5
332
100
AcDbEntity
  8
measurements
 62
256
370
-1
 48
1.0
  6
BYLAYER
100
AcDbLine
 10
185.0
 20
-69.820822625111191
 30
0.0
 11
185.0
 21
-70.179177374888809
 31
0.0
  0
LINE
  5
333
100
AcDbEntity
  8
measurements
 62
256
370
-1
 48
1.0
  6
BYLAYER
100
AcDbLine
 10
186.0
 20
-69.820822625111191
 30
0.0
 11
186.0
 21
-70.179177374888809
 31
0.0
  0
LINE
  5
334
100
AcDbEntity
  8
measurements
 62
256
370
-1
 48
1.0
  6
BYLAYER
100
AcDbLine
 10
187.0
 20
-69.820822625111191
 30
0.0
 11
187.0
 21
-70.179177374888809
 31
0.0
  0
LINE
  5
335
100
AcDbEntity
  8
measurements
 62
256
370
-1
 48
1.0
  6
BYLAYER
100
AcDbLine
 10
188.0
 20
-69.820822625111191
 30
0.0
 11
188.0
 21
-70.179177374888809
 31
0.0
  0
LINE
  5
336
100
AcDbEntity
  8
measurements
 62
256
370
-1
 48
1.0
  6
BYLAYER
100
AcDbLine
 10
189.0
 20
-69.820822625111191
 30
0.0
 11
189.0
 21
-70.179177374888809
 31
0.0
  0
LINE
  5
337
100
AcDbEntity
  8
measurements
 62
256
370
-1
 48
1.0
  6
BYLAYER
100
AcDbLine
 10
190.0
 20
-69.820822625111191
 30
0.0
 11
190.0
 21
-70.179177374888809
 31
0.0
  0
LINE
  5
338
100
AcDbEntity
  8
measurements
 62
256
370
-1
 48
1.0
  6
BYLAYER
100
AcDbLine
 10
191.0
 20
-69.820822625111191
 30
0.0
 11
191.0
 21
-70.179177374888809
 31
0.0
  0
LINE
  5
339
100
AcDbEntity
  8
measurements
 62
256
370
-1
 48
1.0
  6
BYLAYER
100
AcDbLine
 10
192.0
 20
-69.820822625111191
 30
0.0
 11
192.0
 21
-70.179177374888809
 31
0.0
  0
LINE
  5
33A
100
AcDbEntity
  8
measurements
 62
256
370
-1
 48
1.0
  6
BYLAYER
100
AcDbLine
 10
193.0
 20
-69.820822625111191
 30
0.0
 11
193.0
 21
-70.179177374888809
 31
0.0
  0
LINE
  5
33B
100
AcDbEntity
  8
measurements
 62
256
370
-1
 48
1.0
  6
BYLAYER
100
AcDbLine
 10
194.0
 20
-69.820822625111191
 30
0.0
 11
194.0
 21
-70.179177374888809
 31
0.0
  0
LINE
  5
33C
100
AcDbEntity
  8
measurements
 62
256
370
-1
 48
1.0
  6
BYLAYER
100
AcDbLine
 10
195.0
 20
-69.820822625111191
 30
0.0
 11
195.0
 21
-70.179177374888809
 31
0.0
  0
LINE
  5
33D
100
AcDbEntity
  8
measurements
 62
256
370
-1
 48
1.0
  6
BYLAYER
100
AcDbLine
 10
196.0
 20
-69.820822625111191
 30
0.0
 11
196.0
 21
-70.179177374888809
 31
0.0
  0
LINE
  5
33E
100
AcDbEntity
  8
measurements
 62
256
370
-1
 48
1.0
  6
BYLAYER
100
AcDbLine
 10
197.0
 20
-69.820822625111191
 30
0.0
 11
197.0
 21
-70.179177374888809
 31
0.0
  0
LINE
  5
33F
100
AcDbEntity
  8
measurements
 62
256
370
-1
 48
1.0
  6
BYLAYER
100
AcDbLine
 10
198.0
 20
-69.820822625111191
 30
0.0
 11
198.0
 21
-70.179177374888809
 31
0.0
  0
LINE
  5
340
100
AcDbEntity
  8
measurements
 62
256
370
-1
 48
1.0
  6
BYLAYER
100
AcDbLine
 10
199.0
 20
-69.820822625111191
 30
0.0
 11
199.0
 21
-70.179177374888809
 31
0.0
  0
LINE
  5
341
100
AcDbEntity
  8
measurements
 62
256
370
-1
 48
1.0
  6
BYLAYER
100
AcDbLine
 10
200.0
 20
-69.820822625111191
 30
0.0
 11
200.0
 21
-70.179177374888809
 31
0.0
  0
LINE
  5
342
100
AcDbEntity
  8
measurements
 62
256
370
-1
 48
1.0
  6
BYLAYER
100
AcDbLine
 10
201.0
 20
-69.820822625111191
 30
0.0
 11
201.0
 21
-70.179177374888809
 31
0.0
  0
LINE
  5
343
100
AcDbEntity
  8
measurements
 62
256
370
-1
 48
1.0
  6
BYLAYER
100
AcDbLine
 10
202.0
 20
-69.820822625111191
 30
0.0
 11
202.0
 21
-70.179177374888809
 31
0.0
  0
LINE
  5
344
100
AcDbEntity
  8
measurements
 62
256
370
-1
 48
1.0
  6
BYLAYER
100
AcDbLine
 10
203.0
 20
-69.820822625111191
 30
0.0
 11
203.0
 21
-70.179177374888809
 31
0.0
  0
LINE
  5
345
100
AcDbEntity
  8
measurements
 62
256
370
-1
 48
1.0
  6
BYLAYER
100
AcDbLine
 10
204.0
 20
-69.820822625111191
 30
0.0
 11
204.0
 21
-70.179177374888809
 31
0.0
  0
LINE
  5
346
100
AcDbEntity
  8
measurements
 62
256
370
-1
 48
1.0
  6
BYLAYER
100
AcDbLine
 10
205.0
 20
-69.820822625111191
 30
0.0
 11
205.0
 21
-70.179177374888809
 31
0.0
  0
LINE
  5
347
100
AcDbEntity
  8
measurements
 62
256
370
-1
 48
1.0
  6
BYLAYER
100
AcDbLine
 10
206.0
 20
-69.820822625111191
 30
0.0
 11
206.0
 21
-70.179177374888809
 31
0.0
  0
LINE
  5
348
100
AcDbEntity
  8
measurements
 62
256
370
-1
 48
1.0
  6
BYLAYER
100
AcDbLine
 10
207.0
 20
-69.820822625111191
 30
0.0
 11
207.0
 21
-70.179177374888809
 31
0.0
  0
LINE
  5
349
100
AcDbEntity
  8
measurements
 62
256
370
-1
 48
1.0
  6
BYLAYER
100
AcDbLine
 10
208.0
 20
-69.820822625111191
 30
0.0
 11
208.0
 21
-70.179177374888809
 31
0.0
  0
LINE
  5
34A
100
AcDbEntity
  8
measurements
 62
256
370
-1
 48
1.0
  6
BYLAYER
100
AcDbLine
 10
209.0
 20
-69.820822625111191
 30
0.0
 11
209.0
 21
-70.179177374888809
 31
0.0
  0
LINE
  5
34B
100
AcDbEntity
  8
measurements
 62
256
370
-1
 48
1.0
  6
BYLAYER
100
AcDbLine
 10
210.0
 20
-69.820822625111191
 30
0.0
 11
210.0
 21
-70.179177374888809
 31
0.0
  0
LINE
  5
34C
100
AcDbEntity
  8
measurements
 62
256
370
-1
 48
1.0
  6
BYLAYER
100
AcDbLine
 10
211.0
 20
-69.820822625111191
 30
0.0
 11
211.0
 21
-70.179177374888809
 31
0.0
  0
LINE
  5
34D
100
AcDbEntity
  8
measurements
 62
256
370
-1
 48
1.0
  6
BYLAYER
100
AcDbLine
 10
212.0
 20
-69.820822625111191
 30
0.0
 11
212.0
 21
-70.179177374888809
 31
0.0
  0
LINE
  5
34E
100
AcDbEntity
  8
measurements
 62
256
370
-1
 48
1.0
  6
BYLAYER
100
AcDbLine
 10
213.0
 20
-69.820822625111191
 30
0.0
 11
213.0
 21
-70.179177374888809
 31
0.0
  0
LINE
  5
34F
100
AcDbEntity
  8
measurements
 62
256
370
-1
 48
1.0
  6
BYLAYER
100
AcDbLine
 10
214.0
 20
-69.820822625111191
 30
0.0
 11
214.0
 21
-70.179177374888809
 31
0.0
  0
LINE
  5
350
100
AcDbEntity
  8
measurements
 62
256
370
-1
 48
1.0
  6
BYLAYER
100
AcDbLine
 10
215.0
 20
-69.820822625111191
 30
0.0
 11
215.0
 21
-70.179177374888809
 31
0.0
  0
LINE
  5
351
100
AcDbEntity
  8
measurements
 62
256
370
-1
 48
1.0
  6
BYLAYER
100
AcDbLine
 10
216.0
 20
-69.820822625111191
 30
0.0
 11
216.0
 21
-70.179177374888809
 31
0.0
  0
LINE
  5
352
100
AcDbEntity
  8
measurements
 62
256
370
-1
 48
1.0
  6
BYLAYER
100
AcDbLine
 10
217.0
 20
-69.820822625111191
 30
0.0
 11
217.0
 21
-70.179177374888809
 31
0.0
  0
LINE
  5
353
100
AcDbEntity
  8
measurements
 62
256
370
-1
 48
1.0
  6
BYLAYER
100
AcDbLine
 10
218.0
 20
-69.820822625111191
 30
0.0
 11
218.0
 21
-70.179177374888809
 31
0.0
  0
LINE
  5
354
100
AcDbEntity
  8
measurements
 62
256
370
-1
 48
1.0
  6
BYLAYER
100
AcDbLine
 10
219.0
 20
-69.820822625111191
 30
0.0
 11
219.0
 21
-70.179177374888809
 31
0.0
  0
LINE
  5
355
100
AcDbEntity
  8
measurements
 62
256
370
-1
 48
1.0
  6
BYLAYER
100
AcDbLine
 10
220.0
 20
-69.820822625111191
 30
0.0
 11
220.0
 21
-70.179177374888809
 31
0.0
  0
LINE
  5
356
100
AcDbEntity
  8
measurements
 62
256
370
-1
 48
1.0
  6
BYLAYER
100
AcDbLine
 10
221.0
 20
-69.820822625111191
 30
0.0
 11
221.0
 21
-70.179177374888809
 31
0.0
  0
LINE
  5
357
100
AcDbEntity
  8
measurements
 62
256
370
-1
 48
1.0
  6
BYLAYER
100
AcDbLine
 10
222.0
 20
-69.820822625111191
 30
0.0
 11
222.0
 21
-70.179177374888809
 31
0.0
  0
LINE
  5
358
100
AcDbEntity
  8
measurements
 62
256
370
-1
 48
1.0
  6
BYLAYER
100
AcDbLine
 10
223.0
 20
-69.820822625111191
 30
0.0
 11
223.0
 21
-70.179177374888809
 31
0.0
  0
LINE
  5
359
100
AcDbEntity
  8
measurements
 62
256
370
-1
 48
1.0
  6
BYLAYER
100
AcDbLine
 10
224.0
 20
-69.820822625111191
 30
0.0
 11
224.0
 21
-70.179177374888809
 31
0.0
  0
LINE
  5
35A
100
AcDbEntity
  8
measurements
 62
256
370
-1
 48
1.0
  6
BYLAYER
100
AcDbLine
 10
225.0
 20
-69.820822625111191
 30
0.0
 11
225.0
 21
-70.179177374888809
 31
0.0
  0
LINE
  5
35B
100
AcDbEntity
  8
measurements
 62
256
370
-1
 48
1.0
  6
BYLAYER
100
AcDbLine
 10
226.0
 20
-69.820822625111191
 30
0.0
 11
226.0
 21
-70.179177374888809
 31
0.0
  0
LINE
  5
35C
100
AcDbEntity
  8
measurements
 62
256
370
-1
 48
1.0
  6
BYLAYER
100
AcDbLine
 10
227.0
 20
-69.820822625111191
 30
0.0
 11
227.0
 21
-70.179177374888809
 31
0.0
  0
LINE
  5
35D
100
AcDbEntity
  8
measurements
 62
256
370
-1
 48
1.0
  6
BYLAYER
100
AcDbLine
 10
228.0
 20
-69.820822625111191
 30
0.0
 11
228.0
 21
-70.179177374888809
 31
0.0
  0
LINE
  5
35E
100
AcDbEntity
  8
measurements
 62
256
370
-1
 48
1.0
  6
BYLAYER
100
AcDbLine
 10
229.0
 20
-69.820822625111191
 30
0.0
 11
229.0
 21
-70.179177374888809
 31
0.0
  0
LINE
  5
35F
100
AcDbEntity
  8
measurements
 62
256
370
-1
 48
1.0
  6
BYLAYER
100
AcDbLine
 10
230.0
 20
-69.820822625111191
 30
0.0
 11
230.0
 21
-70.179177374888809
 31
0.0
  0
LINE
  5
360
100
AcDbEntity
  8
measurements
 62
256
370
-1
 48
1.0
  6
BYLAYER
100
AcDbLine
 10
231.0
 20
-69.820822625111191
 30
0.0
 11
231.0
 21
-70.179177374888809
 31
0.0
  0
LINE
  5
361
100
AcDbEntity
  8
measurements
 62
256
370
-1
 48
1.0
  6
BYLAYER
100
AcDbLine
 10
232.0
 20
-69.820822625111191
 30
0.0
 11
232.0
 21
-70.179177374888809
 31
0.0
  0
LINE
  5
362
100
AcDbEntity
  8
measurements
 62
256
370
-1
 48
1.0
  6
BYLAYER
100
AcDbLine
 10
233.0
 20
-69.820822625111191
 30
0.0
 11
233.0
 21
-70.179177374888809
 31
0.0
  0
LINE
  5
363
100
AcDbEntity
  8
measurements
 62
256
370
-1
 48
1.0
  6
BYLAYER
100
AcDbLine
 10
234.0
 20
-69.820822625111191
 30
0.0
 11
234.0
 21
-70.179177374888809
 31
0.0
  0
LINE
  5
364
100
AcDbEntity
  8
measurements
 62
256
370
-1
 48
1.0
  6
BYLAYER
100
AcDbLine
 10
235.0
 20
-69.820822625111191
 30
0.0
 11
235.0
 21
-70.179177374888809
 31
0.0
  0
LINE
  5
365
100
AcDbEntity
  8
measurements
 62
256
370
-1
 48
1.0
  6
BYLAYER
100
AcDbLine
 10
236.0
 20
-69.820822625111191
 30
0.0
 11
236.0
 21
-70.179177374888809
 31
0.0
  0
LINE
  5
366
100
AcDbEntity
  8
measurements
 62
256
370
-1
 48
1.0
  6
BYLAYER
100
AcDbLine
 10
237.0
 20
-69.820822625111191
 30
0.0
 11
237.0
 21
-70.179177374888809
 31
0.0
  0
LINE
  5
367
100
AcDbEntity
  8
measurements
 62
256
370
-1
 48
1.0
  6
BYLAYER
100
AcDbLine
 10
238.0
 20
-69.820822625111191
 30
0.0
 11
238.0
 21
-70.179177374888809
 31
0.0
  0
LINE
  5
368
100
AcDbEntity
  8
measurements
 62
256
370
-1
 48
1.0
  6
BYLAYER
100
AcDbLine
 10
239.0
 20
-69.820822625111191
 30
0.0
 11
239.0
 21
-70.179177374888809
 31
0.0
  0
LINE
  5
369
100
AcDbEntity
  8
measurements
 62
256
370
-1
 48
1.0
  6
BYLAYER
100
AcDbLine
 10
240.0
 20
-69.820822625111191
 30
0.0
 11
240.0
 21
-70.179177374888809
 31
0.0
  0
LINE
  5
36A
100
AcDbEntity
  8
measurements
 62
256
370
-1
 48
1.0
  6
BYLAYER
100
AcDbLine
 10
241.0
 20
-69.820822625111191
 30
0.0
 11
241.0
 21
-70.179177374888809
 31
0.0
  0
LINE
  5
36B
100
AcDbEntity
  8
measurements
 62
256
370
-1
 48
1.0
  6
BYLAYER
100
AcDbLine
 10
242.0
 20
-69.820822625111191
 30
0.0
 11
242.0
 21
-70.179177374888809
 31
0.0
  0
LINE
  5
36C
100
AcDbEntity
  8
measurements
 62
256
370
-1
 48
1.0
  6
BYLAYER
100
AcDbLine
 10
243.0
 20
-69.820822625111191
 30
0.0
 11
243.0
 21
-70.179177374888809
 31
0.0
  0
LINE
  5
36D
100
AcDbEntity
  8
measurements
 62
256
370
-1
 48
1.0
  6
BYLAYER
100
AcDbLine
 10
244.0
 20
-69.820822625111191
 30
0.0
 11
244.0
 21
-70.179177374888809
 31
0.0
  0
LINE
  5
36E
100
AcDbEntity
  8
measurements
 62
256
370
-1
 48
1.0
  6
BYLAYER
100
AcDbLine
 10
245.0
 20
-69.820822625111191
 30
0.0
 11
245.0
 21
-70.179177374888809
 31
0.0
  0
LINE
  5
36F
100
AcDbEntity
  8
measurements
 62
256
370
-1
 48
1.0
  6
BYLAYER
100
AcDbLine
 10
246.0
 20
-69.820822625111191
 30
0.0
 11
246.0
 21
-70.179177374888809
 31
0.0
  0
LINE
  5
370
100
AcDbEntity
  8
measurements
 62
256
370
-1
 48
1.0
  6
BYLAYER
100
AcDbLine
 10
247.0
 20
-69.820822625111191
 30
0.0
 11
247.0
 21
-70.179177374888809
 31
0.0
  0
LINE
  5
371
100
AcDbEntity
  8
measurements
 62
256
370
-1
 48
1.0
  6
BYLAYER
100
AcDbLine
 10
248.0
 20
-69.820822625111191
 30
0.0
 11
248.0
 21
-70.179177374888809
 31
0.0
  0
LINE
  5
372
100
AcDbEntity
  8
measurements
 62
256
370
-1
 48
1.0
  6
BYLAYER
100
AcDbLine
 10
249.0
 20
-69.820822625111191
 30
0.0
 11
249.0
 21
-70.179177374888809
 31
0.0
  0
LINE
  5
373
100
AcDbEntity
  8
measurements
 62
256
370
-1
 48
1.0
  6
BYLAYER
100
AcDbLine
 10
250.0
 20
-69.820822625111191
 30
0.0
 11
250.0
 21
-70.179177374888809
 31
0.0
  0
LINE
  5
374
100
AcDbEntity
  8
measurements
 62
256
370
-1
 48
1.0
  6
BYLAYER
100
AcDbLine
 10
251.0
 20
-69.820822625111191
 30
0.0
 11
251.0
 21
-70.179177374888809
 31
0.0
  0
LINE
  5
375
100
AcDbEntity
  8
measurements
 62
256
370
-1
 48
1.0
  6
BYLAYER
100
AcDbLine
 10
252.0
 20
-69.820822625111191
 30
0.0
 11
252.0
 21
-70.179177374888809
 31
0.0
  0
LINE
  5
376
100
AcDbEntity
  8
measurements
 62
256
370
-1
 48
1.0
  6
BYLAYER
100
AcDbLine
 10
253.0
 20
-69.820822625111191
 30
0.0
 11
253.0
 21
-70.179177374888809
 31
0.0
  0
LINE
  5
377
100
AcDbEntity
  8
measurements
 62
256
370
-1
 48
1.0
  6
BYLAYER
100
AcDbLine
 10
254.0
 20
-69.820822625111191
 30
0.0
 11
254.0
 21
-70.179177374888809
 31
0.0
  0
LINE
  5
378
100
AcDbEntity
  8
measurements
 62
256
370
-1
 48
1.0
  6
BYLAYER
100
AcDbLine
 10
255.0
 20
-69.820822625111191
 30
0.0
 11
255.0
 21
-70.179177374888809
 31
0.0
  0
LINE
  5
379
100
AcDbEntity
  8
measurements
 62
256
370
-1
 48
1.0
  6
BYLAYER
100
AcDbLine
 10
256.0
 20
-69.820822625111191
 30
0.0
 11
256.0
 21
-70.179177374888809
 31
0.0
  0
LINE
  5
37A
100
AcDbEntity
  8
measurements
 62
256
370
-1
 48
1.0
  6
BYLAYER
100
AcDbLine
 10
257.0
 20
-69.820822625111191
 30
0.0
 11
257.0
 21
-70.179177374888809
 31
0.0
  0
LINE
  5
37B
100
AcDbEntity
  8
measurements
 62
256
370
-1
 48
1.0
  6
BYLAYER
100
AcDbLine
 10
258.0
 20
-69.820822625111191
 30
0.0
 11
258.0
 21
-70.179177374888809
 31
0.0
  0
LINE
  5
37C
100
AcDbEntity
  8
measurements
 62
256
370
-1
 48
1.0
  6
BYLAYER
100
AcDbLine
 10
259.0
 20
-69.820822625111191
 30
0.0
 11
259.0
 21
-70.179177374888809
 31
0.0
  0
LINE
  5
37D
100
AcDbEntity
  8
measurements
 62
256
370
-1
 48
1.0
  6
BYLAYER
100
AcDbLine
 10
260.0
 20
-69.820822625111191
 30
0.0
 11
260.0
 21
-70.179177374888809
 31
0.0
  0
LINE
  5
37E
100
AcDbEntity
  8
measurements
 62
256
370
-1
 48
1.0
  6
BYLAYER
100
AcDbLine
 10
261.0
 20
-69.820822625111191
 30
0.0
 11
261.0
 21
-70.179177374888809
 31
0.0
  0
LINE
  5
37F
100
AcDbEntity
  8
measurements
 62
256
370
-1
 48
1.0
  6
BYLAYER
100
AcDbLine
 10
262.0
 20
-69.820822625111191
 30
0.0
 11
262.0
 21
-70.179177374888809
 31
0.0
  0
LINE
  5
380
100
AcDbEntity
  8
measurements
 62
256
370
-1
 48
1.0
  6
BYLAYER
100
AcDbLine
 10
263.0
 20
-69.820822625111191
 30
0.0
 11
263.0
 21
-70.179177374888809
 31
0.0
  0
LINE
  5
381
100
AcDbEntity
  8
measurements
 62
256
370
-1
 48
1.0
  6
BYLAYER
100
AcDbLine
 10
264.0
 20
-69.820822625111191
 30
0.0
 11
264.0
 21
-70.179177374888809
 31
0.0
  0
LINE
  5
382
100
AcDbEntity
  8
measurements
 62
256
370
-1
 48
1.0
  6
BYLAYER
100
AcDbLine
 10
265.0
 20
-69.820822625111191
 30
0.0
 11
265.0
 21
-70.179177374888809
 31
0.0
  0
LINE
  5
383
100
AcDbEntity
  8
measurements
 62
256
370
-1
 48
1.0
  6
BYLAYER
100
AcDbLine
 10
266.0
 20
-69.820822625111191
 30
0.0
 11
266.0
 21
-70.179177374888809
 31
0.0
  0
LINE
  5
384
100
AcDbEntity
  8
measurements
 62
256
370
-1
 48
1.0
  6
BYLAYER
100
AcDbLine
 10
267.0
 20
-69.820822625111191
 30
0.0
 11
267.0
 21
-70.179177374888809
 31
0.0
  0
LINE
  5
385
100
AcDbEntity
  8
measurements
 62
256
370
-1
 48
1.0
  6
BYLAYER
100
AcDbLine
 10
268.0
 20
-69.820822625111191
 30
0.0
 11
268.0
 21
-70.179177374888809
 31
0.0
  0
LINE
  5
386
100
AcDbEntity
  8
measurements
 62
256
370
-1
 48
1.0
  6
BYLAYER
100
AcDbLine
 10
269.0
 20
-69.820822625111191
 30
0.0
 11
269.0
 21
-70.179177374888809
 31
0.0
  0
LINE
  5
387
100
AcDbEntity
  8
measurements
 62
256
370
-1
 48
1.0
  6
BYLAYER
100
AcDbLine
 10
270.0
 20
-69.820822625111191
 30
0.0
 11
270.0
 21
-70.179177374888809
 31
0.0
  0
LINE
  5
388
100
AcDbEntity
  8
measurements
 62
256
370
-1
 48
1.0
  6
BYLAYER
100
AcDbLine
 10
271.0
 20
-69.820822625111191
 30
0.0
 11
271.0
 21
-70.179177374888809
 31
0.0
  0
LINE
  5
389
100
AcDbEntity
  8
measurements
 62
256
370
-1
 48
1.0
  6
BYLAYER
100
AcDbLine
 10
272.0
 20
-69.820822625111191
 30
0.0
 11
272.0
 21
-70.179177374888809
 31
0.0
  0
LINE
  5
38A
100
AcDbEntity
  8
measurements
 62
256
370
-1
 48
1.0
  6
BYLAYER
100
AcDbLine
 10
273.0
 20
-69.820822625111191
 30
0.0
 11
273.0
 21
-70.179177374888809
 31
0.0
  0
LINE
  5
38B
100
AcDbEntity
  8
measurements
 62
256
370
-1
 48
1.0
  6
BYLAYER
100
AcDbLine
 10
274.0
 20
-69.820822625111191
 30
0.0
 11
274.0
 21
-70.179177374888809
 31
0.0
  0
LINE
  5
38C
100
AcDbEntity
  8
measurements
 62
256
370
-1
 48
1.0
  6
BYLAYER
100
AcDbLine
 10
275.0
 20
-69.820822625111191
 30
0.0
 11
275.0
 21
-70.179177374888809
 31
0.0
  0
LINE
  5
38D
100
AcDbEntity
  8
measurements
 62
256
370
-1
 48
1.0
  6
BYLAYER
100
AcDbLine
 10
276.0
 20
-69.820822625111191
 30
0.0
 11
276.0
 21
-70.179177374888809
 31
0.0
  0
LINE
  5
38E
100
AcDbEntity
  8
measurements
 62
256
370
-1
 48
1.0
  6
BYLAYER
100
AcDbLine
 10
277.0
 20
-69.820822625111191
 30
0.0
 11
277.0
 21
-70.179177374888809
 31
0.0
  0
LINE
  5
38F
100
AcDbEntity
  8
measurements
 62
256
370
-1
 48
1.0
  6
BYLAYER
100
AcDbLine
 10
278.0
 20
-69.820822625111191
 30
0.0
 11
278.0
 21
-70.179177374888809
 31
0.0
  0
LINE
  5
390
100
AcDbEntity
  8
measurements
 62
256
370
-1
 48
1.0
  6
BYLAYER
100
AcDbLine
 10
279.0
 20
-69.820822625111191
 30
0.0
 11
279.0
 21
-70.179177374888809
 31
0.0
  0
LINE
  5
391
100
AcDbEntity
  8
measurements
 62
256
370
-1
 48
1.0
  6
BYLAYER
100
AcDbLine
 10
280.0
 20
-69.820822625111191
 30
0.0
 11
280.0
 21
-70.179177374888809
 31
0.0
  0
LINE
  5
392
100
AcDbEntity
  8
measurements
 62
256
370
-1
 48
1.0
  6
BYLAYER
100
AcDbLine
 10
281.0
 20
-69.820822625111191
 30
0.0
 11
281.0
 21
-70.179177374888809
 31
0.0
  0
LINE
  5
393
100
AcDbEntity
  8
measurements
 62
256
370
-1
 48
1.0
  6
BYLAYER
100
AcDbLine
 10
282.0
 20
-69.820822625111191
 30
0.0
 11
282.0
 21
-70.179177374888809
 31
0.0
  0
LINE
  5
394
100
AcDbEntity
  8
measurements
 62
256
370
-1
 48
1.0
  6
BYLAYER
100
AcDbLine
 10
283.0
 20
-69.820822625111191
 30
0.0
 11
283.0
 21
-70.179177374888809
 31
0.0
  0
LINE
  5
395
100
AcDbEntity
  8
measurements
 62
256
370
-1
 48
1.0
  6
BYLAYER
100
AcDbLine
 10
284.0
 20
-69.820822625111191
 30
0.0
 11
284.0
 21
-70.179177374888809
 31
0.0
  0
LINE
  5
396
100
AcDbEntity
  8
measurements
 62
256
370
-1
 48
1.0
  6
BYLAYER
100
AcDbLine
 10
285.0
 20
-69.820822625111191
 30
0.0
 11
285.0
 21
-70.179177374888809
 31
0.0
  0
LINE
  5
397
100
AcDbEntity
  8
measurements
 62
256
370
-1
 48
1.0
  6
BYLAYER
100
AcDbLine
 10
286.0
 20
-69.820822625111191
 30
0.0
 11
286.0
 21
-70.179177374888809
 31
0.0
  0
LINE
  5
398
100
AcDbEntity
  8
measurements
 62
256
370
-1
 48
1.0
  6
BYLAYER
100
AcDbLine
 10
287.0
 20
-69.820822625111191
 30
0.0
 11
287.0
 21
-70.179177374888809
 31
0.0
  0
LINE
  5
399
100
AcDbEntity
  8
measurements
 62
256
370
-1
 48
1.0
  6
BYLAYER
100
AcDbLine
 10
288.0
 20
-69.820822625111191
 30
0.0
 11
288.0
 21
-70.179177374888809
 31
0.0
  0
LINE
  5
39A
100
AcDbEntity
  8
measurements
 62
256
370
-1
 48
1.0
  6
BYLAYER
100
AcDbLine
 10
289.0
 20
-69.820822625111191
 30
0.0
 11
289.0
 21
-70.179177374888809
 31
0.0
  0
LINE
  5
39B
100
AcDbEntity
  8
measurements
 62
256
370
-1
 48
1.0
  6
BYLAYER
100
AcDbLine
 10
290.0
 20
-69.820822625111191
 30
0.0
 11
290.0
 21
-70.179177374888809
 31
0.0
  0
LINE
  5
39C
100
AcDbEntity
  8
measurements
 62
256
370
-1
 48
1.0
  6
BYLAYER
100
AcDbLine
 10
291.0
 20
-69.820822625111191
 30
0.0
 11
291.0
 21
-70.179177374888809
 31
0.0
  0
LINE
  5
39D
100
AcDbEntity
  8
measurements
 62
256
370
-1
 48
1.0
  6
BYLAYER
100
AcDbLine
 10
292.0
 20
-69.820822625111191
 30
0.0
 11
292.0
 21
-70.179177374888809
 31
0.0
  0
LINE
  5
39E
100
AcDbEntity
  8
measurements
 62
256
370
-1
 48
1.0
  6
BYLAYER
100
AcDbLine
 10
293.0
 20
-69.820822625111191
 30
0.0
 11
293.0
 21
-70.179177374888809
 31
0.0
  0
LINE
  5
39F
100
AcDbEntity
  8
measurements
 62
256
370
-1
 48
1.0
  6
BYLAYER
100
AcDbLine
 10
294.0
 20
-69.820822625111191
 30
0.0
 11
294.0
 21
-70.179177374888809
 31
0.0
  0
LINE
  5
3A0
100
AcDbEntity
  8
measurements
 62
256
370
-1
 48
1.0
  6
BYLAYER
100
AcDbLine
 10
295.0
 20
-69.820822625111191
 30
0.0
 11
295.0
 21
-70.179177374888809
 31
0.0
  0
LINE
  5
3A1
100
AcDbEntity
  8
measurements
 62
256
370
-1
 48
1.0
  6
BYLAYER
100
AcDbLine
 10
296.0
 20
-69.820822625111191
 30
0.0
 11
296.0
 21
-70.179177374888809
 31
0.0
  0
LINE
  5
3A2
100
AcDbEntity
  8
measurements
 62
256
370
-1
 48
1.0
  6
BYLAYER
100
AcDbLine
 10
297.0
 20
-69.820822625111191
 30
0.0
 11
297.0
 21
-70.179177374888809
 31
0.0
  0
LINE
  5
3A3
100
AcDbEntity
  8
measurements
 62
256
370
-1
 48
1.0
  6
BYLAYER
100
AcDbLine
 10
298.0
 20
-69.820822625111191
 30
0.0
 11
298.0
 21
-70.179177374888809
 31
0.0
  0
LINE
  5
3A4
100
AcDbEntity
  8
measurements
 62
256
370
-1
 48
1.0
  6
BYLAYER
100
AcDbLine
 10
299.0
 20
-69.820822625111191
 30
0.0
 11
299.0
 21
-70.179177374888809
 31
0.0
  0
LINE
  5
3A5
100
AcDbEntity
  8
measurements
 62
256
370
-1
 48
1.0
  6
BYLAYER
100
AcDbLine
 10
-140.0
 20
-69.5520565627779632
 30
0.0
 11
-140.0
 21
-70.4479434372220368
 31
0.0
  0
LINE
  5
3A6
100
AcDbEntity
  8
measurements
 62
256
370
-1
 48
1.0
  6
BYLAYER
100
AcDbLine
 10
-130.0
 20
-69.5520565627779632
 30
0.0
 11
-130.0
 21
-70.4479434372220368
 31
0.0
  0
LINE
  5
3A7
100
AcDbEntity
  8
measurements
 62
256
370
-1
 48
1.0
  6
BYLAYER
100
AcDbLine
 10
-120.0
 20
-69.5520565627779632
 30
0.0
 11
-120.0
 21
-70.4479434372220368
 31
0.0
  0
LINE
  5
3A8
100
AcDbEntity
  8
measurements
 62
256
370
-1
 48
1.0
  6
BYLAYER
100
AcDbLine
 10
-110.0
 20
-69.5520565627779632
 30
0.0
 11
-110.0
 21
-70.4479434372220368
 31
0.0
  0
LINE
  5
3A9
100
AcDbEntity
  8
measurements
 62
256
370
-1
 48
1.0
  6
BYLAYER
100
AcDbLine
 10
-100.0
 20
-69.5520565627779632
 30
0.0
 11
-100.0
 21
-70.4479434372220368
 31
0.0
  0
LINE
  5
3AA
100
AcDbEntity
  8
measurements
 62
256
370
-1
 48
1.0
  6
BYLAYER
100
AcDbLine
 10
-90.0
 20
-69.5520565627779632
 30
0.0
 11
-90.0
 21
-70.4479434372220368
 31
0.0
  0
LINE
  5
3AB
100
AcDbEntity
  8
measurements
 62
256
370
-1
 48
1.0
  6
BYLAYER
100
AcDbLine
 10
-80.0
 20
-69.5520565627779632
 30
0.0
 11
-80.0
 21
-70.4479434372220368
 31
0.0
  0
LINE
  5
3AC
100
AcDbEntity
  8
measurements
 62
256
370
-1
 48
1.0
  6
BYLAYER
100
AcDbLine
 10
-70.0
 20
-69.5520565627779632
 30
0.0
 11
-70.0
 21
-70.4479434372220368
 31
0.0
  0
LINE
  5
3AD
100
AcDbEntity
  8
measurements
 62
256
370
-1
 48
1.0
  6
BYLAYER
100
AcDbLine
 10
-60.0
 20
-69.5520565627779632
 30
0.0
 11
-60.0
 21
-70.4479434372220368
 31
0.0
  0
LINE
  5
3AE
100
AcDbEntity
  8
measurements
 62
256
370
-1
 48
1.0
  6
BYLAYER
100
AcDbLine
 10
-50.0
 20
-69.5520565627779632
 30
0.0
 11
-50.0
 21
-70.4479434372220368
 31
0.0
  0
LINE
  5
3AF
100
AcDbEntity
  8
measurements
 62
256
370
-1
 48
1.0
  6
BYLAYER
100
AcDbLine
 10
-40.0
 20
-69.5520565627779632
 30
0.0
 11
-40.0
 21
-70.4479434372220368
 31
0.0
  0
LINE
  5
3B0
100
AcDbEntity
  8
measurements
 62
256
370
-1
 48
1.0
  6
BYLAYER
100
AcDbLine
 10
-30.0
 20
-69.5520565627779632
 30
0.0
 11
-30.0
 21
-70.4479434372220368
 31
0.0
  0
LINE
  5
3B1
100
AcDbEntity
  8
measurements
 62
256
370
-1
 48
1.0
  6
BYLAYER
100
AcDbLine
 10
-20.0
 20
-69.5520565627779632
 30
0.0
 11
-20.0
 21
-70.4479434372220368
 31
0.0
  0
LINE
  5
3B2
100
AcDbEntity
  8
measurements
 62
256
370
-1
 48
1.0
  6
BYLAYER
100
AcDbLine
 10
-10.0
 20
-69.5520565627779632
 30
0.0
 11
-10.0
 21
-70.4479434372220368
 31
0.0
  0
LINE
  5
3B3
100
AcDbEntity
  8
measurements
 62
256
370
-1
 48
1.0
  6
BYLAYER
100
AcDbLine
 10
0.0000000000000001
 20
-69.5520565627779632
 30
0.0
 11
-0.0000000000000001
 21
-70.4479434372220368
 31
0.0
  0
LINE
  5
3B4
100
AcDbEntity
  8
measurements
 62
256
370
-1
 48
1.0
  6
BYLAYER
100
AcDbLine
 10
10.0
 20
-69.5520565627779632
 30
0.0
 11
10.0
 21
-70.4479434372220368
 31
0.0
  0
LINE
  5
3B5
100
AcDbEntity
  8
measurements
 62
256
370
-1
 48
1.0
  6
BYLAYER
100
AcDbLine
 10
20.0
 20
-69.5520565627779632
 30
0.0
 11
20.0
 21
-70.4479434372220368
 31
0.0
  0
LINE
  5
3B6
100
AcDbEntity
  8
measurements
 62
256
370
-1
 48
1.0
  6
BYLAYER
100
AcDbLine
 10
30.0
 20
-69.5520565627779632
 30
0.0
 11
30.0
 21
-70.4479434372220368
 31
0.0
  0
LINE
  5
3B7
100
AcDbEntity
  8
measurements
 62
256
370
-1
 48
1.0
  6
BYLAYER
100
AcDbLine
 10
40.0
 20
-69.5520565627779632
 30
0.0
 11
40.0
 21
-70.4479434372220368
 31
0.0
  0
LINE
  5
3B8
100
AcDbEntity
  8
measurements
 62
256
370
-1
 48
1.0
  6
BYLAYER
100
AcDbLine
 10
50.0
 20
-69.5520565627779632
 30
0.0
 11
50.0
 21
-70.4479434372220368
 31
0.0
  0
LINE
  5
3B9
100
AcDbEntity
  8
measurements
 62
256
370
-1
 48
1.0
  6
BYLAYER
100
AcDbLine
 10
60.0
 20
-69.5520565627779632
 30
0.0
 11
60.0
 21
-70.4479434372220368
 31
0.0
  0
LINE
  5
3BA
100
AcDbEntity
  8
measurements
 62
256
370
-1
 48
1.0
  6
BYLAYER
100
AcDbLine
 10
70.0
 20
-69.5520565627779632
 30
0.0
 11
70.0
 21
-70.4479434372220368
 31
0.0
  0
LINE
  5
3BB
100
AcDbEntity
  8
measurements
 62
256
370
-1
 48
1.0
  6
BYLAYER
100
AcDbLine
 10
80.0
 20
-69.5520565627779632
 30
0.0
 11
80.0
 21
-70.4479434372220368
 31
0.0
  0
LINE
  5
3BC
100
AcDbEntity
  8
measurements
 62
256
370
-1
 48
1.0
  6
BYLAYER
100
AcDbLine
 10
90.0
 20
-69.5520565627779632
 30
0.0
 11
90.0
 21
-70.4479434372220368
 31
0.0
  0
LINE
  5
3BD
100
AcDbEntity
  8
measurements
 62
256
370
-1
 48
1.0
  6
BYLAYER
100
AcDbLine
 10
100.0
 20
-69.5520565627779632
 30
0.0
 11
100.0
 21
-70.4479434372220368
 31
0.0
  0
LINE
  5
3BE
100
AcDbEntity
  8
measurements
 62
256
370
-1
 48
1.0
  6
BYLAYER
100
AcDbLine
 10
110.0
 20
-69.5520565627779632
 30
0.0
 11
110.0
 21
-70.4479434372220368
 31
0.0
  0
LINE
  5
3BF
100
AcDbEntity
  8
measurements
 62
256
370
-1
 48
1.0
  6
BYLAYER
100
AcDbLine
 10
120.0
 20
-69.5520565627779632
 30
0.0
 11
120.0
 21
-70.4479434372220368
 31
0.0
  0
LINE
  5
3C0
100
AcDbEntity
  8
measurements
 62
256
370
-1
 48
1.0
  6
BYLAYER
100
AcDbLine
 10
130.0
 20
-69.5520565627779632
 30
0.0
 11
130.0
 21
-70.4479434372220368
 31
0.0
  0
LINE
  5
3C1
100
AcDbEntity
  8
measurements
 62
256
370
-1
 48
1.0
  6
BYLAYER
100
AcDbLine
 10
140.0
 20
-69.5520565627779632
 30
0.0
 11
140.0
 21
-70.4479434372220368
 31
0.0
  0
LINE
  5
3C2
100
AcDbEntity
  8
measurements
 62
256
370
-1
 48
1.0
  6
BYLAYER
100
AcDbLine
 10
150.0
 20
-69.5520565627779632
 30
0.0
 11
150.0
 21
-70.4479434372220368
 31
0.0
  0
LINE
  5
3C3
100
AcDbEntity
  8
measurements
 62
256
370
-1
 48
1.0
  6
BYLAYER
100
AcDbLine
 10
160.0
 20
-69.5520565627779632
 30
0.0
 11
160.0
 21
-70.4479434372220368
 31
0.0
  0
LINE
  5
3C4
100
AcDbEntity
  8
measurements
 62
256
370
-1
 48
1.0
  6
BYLAYER
100
AcDbLine
 10
170.0
 20
-69.5520565627779632
 30
0.0
 11
170.0
 21
-70.4479434372220368
 31
0.0
  0
LINE
  5
3C5
100
AcDbEntity
  8
measurements
 62
256
370
-1
 48
1.0
  6
BYLAYER
100
AcDbLine
 10
180.0
 20
-69.5520565627779632
 30
0.0
 11
180.0
 21
-70.4479434372220368
 31
0.0
  0
LINE
  5
3C6
100
AcDbEntity
  8
measurements
 62
256
370
-1
 48
1.0
  6
BYLAYER
100
AcDbLine
 10
190.0
 20
-69.5520565627779632
 30
0.0
 11
190.0
 21
-70.4479434372220368
 31
0.0
  0
LINE
  5
3C7
100
AcDbEntity
  8
measurements
 62
256
370
-1
 48
1.0
  6
BYLAYER
100
AcDbLine
 10
200.0
 20
-69.5520565627779632
 30
0.0
 11
200.0
 21
-70.4479434372220368
 31
0.0
  0
LINE
  5
3C8
100
AcDbEntity
  8
measurements
 62
256
370
-1
 48
1.0
  6
BYLAYER
100
AcDbLine
 10
210.0
 20
-69.5520565627779632
 30
0.0
 11
210.0
 21
-70.4479434372220368
 31
0.0
  0
LINE
  5
3C9
100
AcDbEntity
  8
measurements
 62
256
370
-1
 48
1.0
  6
BYLAYER
100
AcDbLine
 10
220.0
 20
-69.5520565627779632
 30
0.0
 11
220.0
 21
-70.4479434372220368
 31
0.0
  0
LINE
  5
3CA
100
AcDbEntity
  8
measurements
 62
256
370
-1
 48
1.0
  6
BYLAYER
100
AcDbLine
 10
230.0
 20
-69.5520565627779632
 30
0.0
 11
230.0
 21
-70.4479434372220368
 31
0.0
  0
LINE
  5
3CB
100
AcDbEntity
  8
measurements
 62
256
370
-1
 48
1.0
  6
BYLAYER
100
AcDbLine
 10
240.0
 20
-69.5520565627779632
 30
0.0
 11
240.0
 21
-70.4479434372220368
 31
0.0
  0
LINE
  5
3CC
100
AcDbEntity
  8
measurements
 62
256
370
-1
 48
1.0
  6
BYLAYER
100
AcDbLine
 10
250.0
 20
-69.5520565627779632
 30
0.0
 11
250.0
 21
-70.4479434372220368
 31
0.0
  0
LINE
  5
3CD
100
AcDbEntity
  8
measurements
 62
256
370
-1
 48
1.0
  6
BYLAYER
100
AcDbLine
 10
260.0
 20
-69.5520565627779632
 30
0.0
 11
260.0
 21
-70.4479434372220368
 31
0.0
  0
LINE
  5
3CE
100
AcDbEntity
  8
measurements
 62
256
370
-1
 48
1.0
  6
BYLAYER
100
AcDbLine
 10
270.0
 20
-69.5520565627779632
 30
0.0
 11
270.0
 21
-70.4479434372220368
 31
0.0
  0
LINE
  5
3CF
100
AcDbEntity
  8
measurements
 62
256
370
-1
 48
1.0
  6
BYLAYER
100
AcDbLine
 10
280.0
 20
-69.5520565627779632
 30
0.0
 11
280.0
 21
-70.4479434372220368
 31
0.0
  0
LINE
  5
3D0
100
AcDbEntity
  8
measurements
 62
256
370
-1
 48
1.0
  6
BYLAYER
100
AcDbLine
 10
290.0
 20
-69.5520565627779632
 30
0.0
 11
290.0
 21
-70.4479434372220368
 31
0.0
  0
MTEXT
  5
3D1
100
AcDbEntity
  8
measurements
 62
256
370
-1
 48
1.0
  6
BYLAYER
100
AcDbMText
 10
302.0
 20
-65.2000000000000028
 30
0.0
 40
4.0
 41
0.0
 71
1
 72
1
  1
450
  7
textstyle8
 50
0.0
 73
2
 44
1.0
  0
LINE
  5
3D2
100
AcDbEntity
  8
measurements
 62
256
370
-1
 48
1.0
  6
BYLAYER
100
AcDbLine
 10
310.0
 20
130.0
 30
0.0
 11
310.0
 21
-60.0
 31
0.0
  0
LINE
  5
3D3
100
AcDbEntity
  8
measurements
 62
256
370
-1
 48
1.0
  6
BYLAYER
100
AcDbLine
 10
310.5375321246664271
 20
130.0
 30
0.0
 11
309.4624678753335729
 21
130.0
 31
0.0
  0
LINE
  5
3D4
100
AcDbEntity
  8
measurements
 62
256
370
-1
 48
1.0
  6
BYLAYER
100
AcDbLine
 10
310.5375321246664271
 20
-60.0
 30
0.0
 11
309.4624678753335729
 21
-60.0
 31
0.0
  0
LINE
  5
3D5
100
AcDbEntity
  8
measurements
 62
256
370
-1
 48
1.0
  6
BYLAYER
100
AcDbLine
 10
310.2150128498665822
 20
120.0
 30
0.0
 11
309.7849871501334178
 21
120.0
 31
0.0
  0
LINE
  5
3D6
100
AcDbEntity
  8
measurements
 62
256
370
-1
 48
1.0
  6
BYLAYER
100
AcDbLine
 10
310.2150128498665822
 20
110.0
 30
0.0
 11
309.7849871501334178
 21
110.0
 31
0.0
  0
LINE
  5
3D7
100
AcDbEntity
  8
measurements
 62
256
370
-1
 48
1.0
  6
BYLAYER
100
AcDbLine
 10
310.2150128498665822
 20
100.0
 30
0.0
 11
309.7849871501334178
 21
100.0
 31
0.0
  0
LINE
  5
3D8
100
AcDbEntity
  8
measurements
 62
256
370
-1
 48
1.0
  6
BYLAYER
100
AcDbLine
 10
310.2150128498665822
 20
90.0
 30
0.0
 11
309.7849871501334178
 21
90.0
 31
0.0
  0
LINE
  5
3D9
100
AcDbEntity
  8
measurements
 62
256
370
-1
 48
1.0
  6
BYLAYER
100
AcDbLine
 10
310.2150128498665822
 20
80.0
 30
0.0
 11
309.7849871501334178
 21
80.0
 31
0.0
  0
LINE
  5
3DA
100
AcDbEntity
  8
measurements
 62
256
370
-1
 48
1.0
  6
BYLAYER
100
AcDbLine
 10
310.2150128498665822
 20
70.0
 30
0.0
 11
309.7849871501334178
 21
70.0
 31
0.0
  0
LINE
  5
3DB
100
AcDbEntity
  8
measurements
 62
256
370
-1
 48
1.0
  6
BYLAYER
100
AcDbLine
 10
310.2150128498665822
 20
60.0
 30
0.0
 11
309.7849871501334178
 21
60.0
 31
0.0
  0
LINE
  5
3DC
100
AcDbEntity
  8
measurements
 62
256
370
-1
 48
1.0
  6
BYLAYER
100
AcDbLine
 10
310.2150128498665822
 20
50.0
 30
0.0
 11
309.7849871501334178
 21
50.0
 31
0.0
  0
LINE
  5
3DD
100
AcDbEntity
  8
measurements
 62
256
370
-1
 48
1.0
  6
BYLAYER
100
AcDbLine
 10
310.2150128498665822
 20
40.0
 30
0.0
 11
309.7849871501334178
 21
40.0
 31
0.0
  0
LINE
  5
3DE
100
AcDbEntity
  8
measurements
 62
256
370
-1
 48
1.0
  6
BYLAYER
100
AcDbLine
 10
310.2150128498665822
 20
30.0
 30
0.0
 11
309.7849871501334178
 21
30.0
 31
0.0
  0
LINE
  5
3DF
100
AcDbEntity
  8
measurements
 62
256
370
-1
 48
1.0
  6
BYLAYER
100
AcDbLine
 10
310.2150128498665822
 20
20.0
 30
0.0
 11
309.7849871501334178
 21
20.0
 31
0.0
  0
LINE
  5
3E0
100
AcDbEntity
  8
measurements
 62
256
370
-1
 48
1.0
  6
BYLAYER
100
AcDbLine
 10
310.2150128498665822
 20
10.0
 30
0.0
 11
309.7849871501334178
 21
10.0
 31
0.0
  0
LINE
  5
3E1
100
AcDbEntity
  8
measurements
 62
256
370
-1
 48
1.0
  6
BYLAYER
100
AcDbLine
 10
310.2150128498665822
 20
-0.0000000000000001
 30
0.0
 11
309.7849871501334178
 21
0.0000000000000001
 31
0.0
  0
LINE
  5
3E2
100
AcDbEntity
  8
measurements
 62
256
370
-1
 48
1.0
  6
BYLAYER
100
AcDbLine
 10
310.2150128498665822
 20
-10.0
 30
0.0
 11
309.7849871501334178
 21
-10.0
 31
0.0
  0
LINE
  5
3E3
100
AcDbEntity
  8
measurements
 62
256
370
-1
 48
1.0
  6
BYLAYER
100
AcDbLine
 10
310.2150128498665822
 20
-20.0
 30
0.0
 11
309.7849871501334178
 21
-20.0
 31
0.0
  0
LINE
  5
3E4
100
AcDbEntity
  8
measurements
 62
256
370
-1
 48
1.0
  6
BYLAYER
100
AcDbLine
 10
310.2150128498665254
 20
-30.0
 30
0.0
 11
309.784987150133361
 21
-30.0
 31
0.0
  0
LINE
  5
3E5
100
AcDbEntity
  8
measurements
 62
256
370
-1
 48
1.0
  6
BYLAYER
100
AcDbLine
 10
310.2150128498665254
 20
-40.0
 30
0.0
 11
309.784987150133361
 21
-40.0
 31
0.0
  0
LINE
  5
3E6
100
AcDbEntity
  8
measurements
 62
256
370
-1
 48
1.0
  6
BYLAYER
100
AcDbLine
 10
310.2150128498665254
 20
-50.0
 30
0.0
 11
309.784987150133361
 21
-50.0
 31
0.0
  0
LINE
  5
3E7
100
AcDbEntity
  8
measurements
 62
256
370
-1
 48
1.0
  6
BYLAYER
100
AcDbLine
 10
310.5375321246664271
 20
30.0
 30
0.0
 11
309.4624678753335729
 21
30.0
 31
0.0
  0
MTEXT
  5
3E8
100
AcDbEntity
  8
measurements
 62
256
370
-1
 48
1.0
  6
BYLAYER
100
AcDbMText
 10
312.0
 20
-55.2000000000000028
 30
0.0
 40
4.0
 41
0.0
 71
1
 72
1
  1
190
  7
textstyle9
 50
0.0
 73
2
 44
1.0
  0
ENDSEC
  0
SECTION
  2
OBJECTS
  0
DICTIONARY
  5
C
100
AcDbDictionary
280
0
281
1
  3
ACAD_GROUP
350
D
  3
ACAD_LAYOUT
350
1A
  3
ACAD_MLINESTYLE
350
17
  3
ACAD_PLOTSETTINGS
350
19
  3
ACAD_PLOTSTYLENAME
350
E
  3
AcDbVariableDictionary
350
3E9
  3
QCAD_OBJECTS
350
3EA
  0
DICTIONARY
  5
D
100
AcDbDictionary
280
0
281
1
  0
ACDBDICTIONARYWDFLT
  5
E
100
AcDbDictionary
281
1
  3
Normal
350
F
100
AcDbDictionaryWithDefault
340
F
  0
ACDBPLACEHOLDER
  5
F
  0
DICTIONARY
  5
17
100
AcDbDictionary
280
0
281
1
  3
Standard
350
18
  0
MLINESTYLE
  5
18
100
AcDbMlineStyle
  2
STANDARD
 70
0
  3

 62
256
 51
90.0
 52
90.0
 71
2
 49
0.5
 62
256
  6
BYLAYER
 49
-0.5
 62
256
  6
BYLAYER
  0
DICTIONARY
  5
19
100
AcDbDictionary
280
0
281
1
  0
DICTIONARY
  5
1A
100
AcDbDictionary
281
1
  3
Layout1
350
1E
  3
Layout2
350
26
  3
Model
350
22
  0
LAYOUT
  5
1E
100
AcDbPlotSettings
  1

  2
none_device
  4

  6

 40
0.0
 41
0.0
 42
0.0
 43
0.0
 44
0.0
 45
0.0
 46
0.0
 47
0.0
 48
0.0
 49
0.0
140
0.0
141
0.0
142
1.0
143
1.0
 70
688
 72
0
 73
0
 74
5
  7

 75
16
147
1.0
148
0.0
149
0.0
100
AcDbLayout
  1
Layout1
 70
1
 71
1
 10
0.0
 20
0.0
 11
420.0
 21
297.0
 12
0.0
 22
0.0
 32
0.0
 14
100000000000000000000.0
 24
100000000000000000000.0
 34
100000000000000000000.0
 15
-100000000000000000000.0
 25
-100000000000000000000.0
 35
-100000000000000000000.0
146
0.0
 13
0.0
 23
0.0
 33
0.0
 16
1.0
 26
0.0
 36
0.0
 17
0.0
 27
1.0
 37
0.0
 76
0
330
1B
  0
LAYOUT
  5
22
100
AcDbPlotSettings
  1

  2
none_device
  4

  6

 40
0.0
 41
0.0
 42
0.0
 43
0.0
 44
0.0
 45
0.0
 46
0.0
 47
0.0
 48
0.0
 49
0.0
140
0.0
141
0.0
142
1.0
143
1.0
 70
1712
 72
0
 73
0
 74
0
  7

 75
0
147
1.0
148
0.0
149
0.0
100
AcDbLayout
  1
Model
 70
1
 71
0
 10
0.0
 20
0.0
 11
12.0
 21
9.0
 12
0.0
 22
0.0
 32
0.0
 14
0.0
 24
0.0
 34
0.0
 15
0.0
 25
0.0
 35
0.0
146
0.0
 13
0.0
 23
0.0
 33
0.0
 16
1.0
 26
0.0
 36
0.0
 17
0.0
 27
1.0
 37
0.0
 76
0
330
1F
  0
LAYOUT
  5
26
100
AcDbPlotSettings
  1

  2
none_device
  4

  6

 40
0.0
 41
0.0
 42
0.0
 43
0.0
 44
0.0
 45
0.0
 46
0.0
 47
0.0
 48
0.0
 49
0.0
140
0.0
141
0.0
142
1.0
143
1.0
 70
688
 72
0
 73
0
 74
5
  7

 75
16
147
1.0
148
0.0
149
0.0
100
AcDbLayout
  1
Layout2
 70
1
 71
2
 10
0.0
 20
0.0
 11
12.0
 21
9.0
 12
0.0
 22
0.0
 32
0.0
 14
0.0
 24
0.0
 34
0.0
 15
0.0
 25
0.0
 35
0.0
146
0.0
 13
0.0
 23
0.0
 33
0.0
 16
1.0
 26
0.0
 36
0.0
 17
0.0
 27
1.0
 37
0.0
 76
0
330
23
  0
DICTIONARY
  5
3E9
100
AcDbDictionary
281
1
  3
DIMASSOC
350
3EC
  3
HIDETEXT
350
3EB
  0
DICTIONARYVAR
  5
3EB
100
DictionaryVariables
280
0
  1
2
  0
DICTIONARYVAR
  5
3EC
100
DictionaryVariables
280
0
  1
1
  0
DICTIONARY
  5
3EA
100
AcDbDictionary
281
1
  3
ColorSettings/BackgroundColor
350
3ED
  3
ColorSettings/ColorMode
350
3EE
  3
DimensionSettings/AngularFormat
350
3EF
  3
DimensionSettings/AngularPrecision
350
3F0
  3
DimensionSettings/DecimalPoint
350
3F1
  3
DimensionSettings/DimensionFont
350
3F2
  3
DimensionSettings/DimensionTextColor
350
3F3
  3
DimensionSettings/KeepProportions
350
3F4
  3
DimensionSettings/LinearFormat
350
3F5
  3
DimensionSettings/LinearPrecision
350
3F6
  3
Grid/DisplayGrid00
350
3F7
  3
Grid/DisplayGrid01
350
3F8
  3
Grid/DisplayGrid02
350
3F9
  3
Grid/DisplayGrid03
350
3FA
  3
Grid/GridSpacingX00
350
3FB
  3
Grid/GridSpacingX01
350
3FC
  3
Grid/GridSpacingX02
350
3FD
  3
Grid/GridSpacingX03
350
3FE
  3
Grid/GridSpacingY00
350
3FF
  3
Grid/GridSpacingY01
350
400
  3
Grid/GridSpacingY02
350
401
  3
Grid/GridSpacingY03
350
402
  3
Grid/IsometricGrid00
350
403
  3
Grid/IsometricGrid01
350
404
  3
Grid/IsometricGrid02
350
405
  3
Grid/IsometricGrid03
350
406
  3
Grid/IsometricProjection00
350
407
  3
Grid/IsometricProjection01
350
408
  3
Grid/IsometricProjection02
350
409
  3
Grid/IsometricProjection03
350
40A
  3
Grid/MetaGridSpacingX00
350
40B
  3
Grid/MetaGridSpacingX01
350
40C
  3
Grid/MetaGridSpacingX02
350
40D
  3
Grid/MetaGridSpacingX03
350
40E
  3
Grid/MetaGridSpacingY00
350
40F
  3
Grid/MetaGridSpacingY01
350
410
  3
Grid/MetaGridSpacingY02
350
411
  3
Grid/MetaGridSpacingY03
350
412
  3
MultiPageSettings/Columns
350
413
  3
MultiPageSettings/GlueMarginsBottom
350
414
  3
MultiPageSettings/GlueMarginsLeft
350
415
  3
MultiPageSettings/GlueMarginsRight
350
416
  3
MultiPageSettings/GlueMarginsTop
350
417
  3
MultiPageSettings/PrintCropMarks
350
418
  3
MultiPageSettings/Rows
350
419
  3
PageSettings/OffsetX
350
41A
  3
PageSettings/OffsetY
350
41B
  3
PageSettings/PageOrientation
350
41C
  3
PageSettings/PaperHeight
350
41D
  3
PageSettings/PaperSizeAccepted
350
41E
  3
PageSettings/PaperSizeName
350
41F
  3
PageSettings/PaperWidth
350
420
  3
PageSettings/PointSize
350
421
  3
PageSettings/PositionAccepted
350
422
  3
PageSettings/Scale
350
423
  3
PageSettings/ShowPaperBorders
350
424
  3
PageTagSettings/EnablePageTags
350
425
  3
PageTagSettings/TagAlignment
350
426
  3
PageTagSettings/TagFont
350
427
  3
PageTagSettings/TagPosition
350
428
  3
QCADVersion
350
429
  3
UnitSettings/PaperUnit
350
42A
  3
ViewportCenter
350
42B
  3
ViewportHeight
350
42C
  3
ViewportWidth
350
42D
  0
XRECORD
  5
3ED
330
3EA
100
AcDbXrecord
280
1
1000
White
  0
XRECORD
  5
3EE
330
3EA
100
AcDbXrecord
280
1
1000
FullColor
  0
XRECORD
  5
3EF
330
3EA
100
AcDbXrecord
280
1
 90
0
  0
XRECORD
  5
3F0
330
3EA
100
AcDbXrecord
280
1
 90
0
  0
XRECORD
  5
3F1
330
3EA
100
AcDbXrecord
280
1
 90
46
  0
XRECORD
  5
3F2
330
3EA
100
AcDbXrecord
280
1
1000
MS Shell Dlg 2
  0
XRECORD
  5
3F3
330
3EA
100
AcDbXrecord
280
1
1000
By Layer
  0
XRECORD
  5
3F4
330
3EA
100
AcDbXrecord
280
1
290
1
  0
XRECORD
  5
3F5
330
3EA
100
AcDbXrecord
280
1
 90
2
  0
XRECORD
  5
3F6
330
3EA
100
AcDbXrecord
280
1
 90
4
  0
XRECORD
  5
3F7
330
3EA
100
AcDbXrecord
280
1
290
1
  0
XRECORD
  5
3F8
330
3EA
100
AcDbXrecord
280
1
290
1
  0
XRECORD
  5
3F9
330
3EA
100
AcDbXrecord
280
1
290
1
  0
XRECORD
  5
3FA
330
3EA
100
AcDbXrecord
280
1
290
1
  0
XRECORD
  5
3FB
330
3EA
100
AcDbXrecord
280
1
1000
1
  0
XRECORD
  5
3FC
330
3EA
100
AcDbXrecord
280
1
1000
1
  0
XRECORD
  5
3FD
330
3EA
100
AcDbXrecord
280
1
1000
1
  0
XRECORD
  5
3FE
330
3EA
100
AcDbXrecord
280
1
1000
1
  0
XRECORD
  5
3FF
330
3EA
100
AcDbXrecord
280
1
1000
1
  0
XRECORD
  5
400
330
3EA
100
AcDbXrecord
280
1
1000
1
  0
XRECORD
  5
401
330
3EA
100
AcDbXrecord
280
1
1000
1
  0
XRECORD
  5
402
330
3EA
100
AcDbXrecord
280
1
1000
1
  0
XRECORD
  5
403
330
3EA
100
AcDbXrecord
280
1
290
0
  0
XRECORD
  5
404
330
3EA
100
AcDbXrecord
280
1
290
0
  0
XRECORD
  5
405
330
3EA
100
AcDbXrecord
280
1
290
0
  0
XRECORD
  5
406
330
3EA
100
AcDbXrecord
280
1
290
0
  0
XRECORD
  5
407
330
3EA
100
AcDbXrecord
280
1
 90
65537
  0
XRECORD
  5
408
330
3EA
100
AcDbXrecord
280
1
 90
65537
  0
XRECORD
  5
409
330
3EA
100
AcDbXrecord
280
1
 90
65537
  0
XRECORD
  5
40A
330
3EA
100
AcDbXrecord
280
1
 90
65537
  0
XRECORD
  5
40B
330
3EA
100
AcDbXrecord
280
1
1000
10
  0
XRECORD
  5
40C
330
3EA
100
AcDbXrecord
280
1
1000
10
  0
XRECORD
  5
40D
330
3EA
100
AcDbXrecord
280
1
1000
10
  0
XRECORD
  5
40E
330
3EA
100
AcDbXrecord
280
1
1000
10
  0
XRECORD
  5
40F
330
3EA
100
AcDbXrecord
280
1
1000
10
  0
XRECORD
  5
410
330
3EA
100
AcDbXrecord
280
1
1000
10
  0
XRECORD
  5
411
330
3EA
100
AcDbXrecord
280
1
1000
10
  0
XRECORD
  5
412
330
3EA
100
AcDbXrecord
280
1
1000
10
  0
XRECORD
  5
413
330
3EA
100
AcDbXrecord
280
1
 90
1
  0
XRECORD
  5
414
330
3EA
100
AcDbXrecord
280
1
 40
10.0
  0
XRECORD
  5
415
330
3EA
100
AcDbXrecord
280
1
 40
10.0
  0
XRECORD
  5
416
330
3EA
100
AcDbXrecord
280
1
 40
10.0
  0
XRECORD
  5
417
330
3EA
100
AcDbXrecord
280
1
 40
10.0
  0
XRECORD
  5
418
330
3EA
100
AcDbXrecord
280
1
290
0
  0
XRECORD
  5
419
330
3EA
100
AcDbXrecord
280
1
 90
1
  0
XRECORD
  5
41A
330
3EA
100
AcDbXrecord
280
1
 40
-161.9668246445497743
  0
XRECORD
  5
41B
330
3EA
100
AcDbXrecord
280
1
 40
-100.7863025367838929
  0
XRECORD
  5
41C
330
3EA
100
AcDbXrecord
280
1
1000
Portrait
  0
XRECORD
  5
41D
330
3EA
100
AcDbXrecord
280
1
1000
300
  0
XRECORD
  5
41E
330
3EA
100
AcDbXrecord
280
1
290
1
  0
XRECORD
  5
41F
330
3EA
100
AcDbXrecord
280
1
1000
Custom
  0
XRECORD
  5
420
330
3EA
100
AcDbXrecord
280
1
1000
400
  0
XRECORD
  5
421
330
3EA
100
AcDbXrecord
280
1
1000
0.5
  0
XRECORD
  5
422
330
3EA
100
AcDbXrecord
280
1
290
1
  0
XRECORD
  5
423
330
3EA
100
AcDbXrecord
280
1
 40
0.844
  0
XRECORD
  5
424
330
3EA
100
AcDbXrecord
280
1
290
1
  0
XRECORD
  5
425
330
3EA
100
AcDbXrecord
280
1
290
0
  0
XRECORD
  5
426
330
3EA
100
AcDbXrecord
280
1
1000
Inside
  0
XRECORD
  5
427
330
3EA
100
AcDbXrecord
280
1
1000
Arial,10,-1,5,50,0,0,0,0,0
  0
XRECORD
  5
428
330
3EA
100
AcDbXrecord
280
1
1000
TopLeft
  0
XRECORD
  5
429
330
3EA
100
AcDbXrecord
280
1
1000
3.29.4
  0
XRECORD
  5
42A
330
3EA
100
AcDbXrecord
280
1
 90
4
  0
XRECORD
  5
42C
330
3EA
100
AcDbXrecord
280
1
 40
469.9499215124215539
  0
XRECORD
  5
42D
330
3EA
100
AcDbXrecord
280
1
 40
575.1228501228501955
  0
ENDSEC
  0
EOF
